<?xml version="1.0" standalone="no"?>
<!DOCTYPE svg PUBLIC "-//W3C//DTD SVG 1.1//EN" "http://www.w3.org/Graphics/SVG/1.1/DTD/svg11.dtd" >
<svg xmlns="http://www.w3.org/2000/svg">
<metadata>Generated by IcoMoon</metadata>
<defs>
<font id="icomoon" horiz-adv-x="1024">
<font-face units-per-em="1024" ascent="960" descent="-64" />
<missing-glyph horiz-adv-x="1024" />
<glyph unicode="&#x20;" horiz-adv-x="512" d="" />
<glyph unicode="&#xe900;" glyph-name="air-horn" d="M734.986 955.126c-10.149 6.13-22.476 6.5-32.975 0.982-138.379-78.243-204.652-75.695-325.034-74.789v12.75c0 19.566-15.918 35.484-35.483 35.484h-62.089c-19.565 0-35.483-15.918-35.483-35.484v-12.75h-68.668v10.166c0 17.934-14.59 32.524-32.525 32.524h-32.368c-36.546 0-66.277-29.731-66.277-66.277v-102.101c0-36.546 29.731-66.276 66.277-66.276h32.368c17.934 0 32.525 14.589 32.525 32.522v10.167h68.67v-51.955c-52.97 0.906-98.956-43.163-98.67-97.326v-592.207c0-30.085 24.476-54.561 54.559-54.561h221.274c30.083 0 54.559 24.476 54.559 54.561v430.747c0 8.283-6.715 15-15 15-8.283 0-14.998-6.717-14.998-15v-267.071h-270.394v321.541h285.392c8.283 0 14.998 6.717 14.998 15v91.994c0.177 53.030-44.494 98.297-98.668 97.323v51.955c25.143-0.25 81.428 0.853 106.202-1.27v-50.447c0-11.926 2.153-23.636 6.399-34.807l39.556-104.113c18.346-45.322 94.356-26.105 82.045 24.107l-25.040 92.863c-1.554 5.757-2.344 11.717-2.344 17.711v35.339c24.992-7.885 49.302-17.959 72.531-30.167l45.68-24.007c17.968-11.116 49.867 3.42 49.188 29.716v239.421c0.005 11.86-6.058 22.602-16.209 28.734zM145.256 721.879c0-1.393-1.132-2.524-2.526-2.524h-32.368c-20.002 0-36.278 16.273-36.278 36.277v36.049h20.624c8.284 0 15 6.716 15 15s-6.716 15-15 15h-20.622v36.050c0 20.004 16.274 36.278 36.278 36.278h32.368c1.392 0 2.526-1.132 2.526-2.524l-0.002-169.606zM175.256 762.045v89.275h68.67v-89.275h-68.67zM445.647 124.232v-133.673c0-13.542-11.018-24.558-24.56-24.558h-221.273c-13.542 0-24.56 11.016-24.56 24.558v133.673h270.393zM445.647 582.768v-76.993h-270.391v76.993c0 37.123 30.202 67.325 67.323 67.325h135.744c37.123-0.002 67.325-30.203 67.325-67.325zM273.925 680.091v213.978c0 3.024 2.46 5.484 5.484 5.484h62.086c3.024 0 5.484-2.46 5.484-5.484v-213.978h-73.054zM557.177 650.563l25.040-92.856c4.237-10.158-18.518-17.9-25.033-5.648l-39.561 104.12c-2.949 7.755-4.442 15.881-4.442 24.15v47.181c13.651-1.962 27.209-4.549 40.619-7.771v-43.65c0-8.633 1.136-17.224 3.377-25.527zM721.199 686.972c-0.696-0.717 0.86-3.604-5.232-3.161l-43.55 22.888v88.163c0 8.284-6.715 15-14.998 15-8.285 0-15-6.716-15-15v-73.589c-96.92 43.549-178.012 41.675-265.441 40.771v89.275c88.278-2.764 184.092 2.012 265.441 40.772v-27.772c0-8.284 6.715-15 15-15 8.283 0 14.998 6.716 14.998 15v42.345l43.55 22.888c0.958-0.284 2.79 2.436 5.232-3.162v-239.419zM232.53 317.062c0-42.057 34.213-76.27 76.272-76.27 42.057 0 76.27 34.213 76.27 76.27 0 42.055-34.213 76.272-76.27 76.272-42.059 0-76.272-34.215-76.272-76.272zM355.071 317.062c0-25.516-20.755-46.271-46.269-46.271s-46.271 20.755-46.271 46.271c0 25.514 20.758 46.271 46.271 46.271s46.269-20.758 46.269-46.271zM276.13 10.267h69.655c8.283 0 15 6.715 15 15 0 8.283-6.717 14.998-15 14.998h-69.655c-8.283 0-15-6.715-15-14.998 0-8.285 6.715-15 15-15zM830.619 870.574c3.837 0 7.678 1.464 10.606 4.394l56.937 56.938c5.86 5.858 5.86 15.356 0 21.212-5.857 5.858-15.355 5.858-21.21 0l-56.939-56.938c-5.857-5.858-5.857-15.356 0-21.212 2.929-2.928 6.765-4.394 10.606-4.394zM841.225 738.451c-5.86 5.858-15.358 5.858-21.213 0-5.857-5.858-5.857-15.357 0-21.212l56.939-56.939c2.926-2.926 6.768-4.394 10.604-4.394 3.839 0 7.68 1.465 10.606 4.394 5.86 5.86 5.86 15.358 0 21.213l-56.937 56.938zM964.913 820.267h-134.294c-8.283 0-15-6.716-15-15s6.717-15 15-15h134.294c8.283 0 15 6.716 15 15s-6.717 15-15 15z" />
<glyph unicode="&#xe901;" glyph-name="angle-down" horiz-adv-x="1843" d="M921.801-12.8c-36 0-68 11.999-92 36l-640 640c-52 48.001-52 132 0 180 47.999 52 132 52 179.999 0l552.002-547.999 548 547.999c47.999 52 132 52 179.999 0 52.001-48 52.001-131.999 0-180l-640-640c-23.998-24.001-55.998-36-87.998-36z" />
<glyph unicode="&#xe902;" glyph-name="angle-left" horiz-adv-x="626" d="M525.542 931.555c22.096 0 41.736-7.365 56.466-22.096 31.915-29.461 31.915-81.018 0-110.479l-336.344-338.8 336.344-336.345c31.915-29.463 31.915-81.015 0-110.478-29.46-31.915-81.016-31.915-110.477 0l-392.812 392.812c-31.916 29.461-31.916 81.018 0 110.478l392.812 392.812c14.73 14.73 34.371 22.096 54.011 22.096z" />
<glyph unicode="&#xe903;" glyph-name="angle-right" horiz-adv-x="626" d="M100.236-35.556c-22.096 0-41.737 7.367-56.467 22.096-31.916 29.463-31.916 81.015 0 110.478l336.345 338.8-336.345 336.345c-31.916 29.461-31.916 81.018 0 110.478 29.461 31.916 81.017 31.916 110.478 0l392.812-392.812c31.916-29.46 31.916-81.017 0-110.478l-392.812-392.812c-14.73-14.729-34.371-22.096-54.011-22.096z" />
<glyph unicode="&#xe904;" glyph-name="arrow-left" horiz-adv-x="1229" d="M94.185 522.203l414.476 414.476c15.543 15.543 36.267 23.314 56.99 23.314 23.314 0 44.038-7.771 59.581-23.314 33.676-31.086 33.676-85.486 0-116.571l-272-274.59h792.685c46.626 0 82.896-36.267 82.896-82.896 0-44.038-36.27-82.895-82.896-82.895h-792.685l272-272.002c33.676-31.082 33.676-85.484 0-116.572-31.086-33.676-85.486-33.676-116.571 0l-414.476 414.479c-33.676 31.086-33.676 85.486 0 116.571z" />
<glyph unicode="&#xe905;" glyph-name="arrow-right" horiz-adv-x="1229" d="M1134.64 373.799l-414.474-414.479c-15.544-15.537-36.27-23.313-56.991-23.313-23.314 0-44.038 7.776-59.581 23.313-33.676 31.089-33.676 85.49 0 116.572l272.002 274.592h-792.687c-46.629 0-82.895 36.267-82.895 82.896 0 44.038 36.267 82.895 82.895 82.895h792.687l-272.002 272c-33.676 31.085-33.676 85.486 0 116.571 31.086 33.676 85.484 33.676 116.572 0l414.474-414.476c33.676-31.086 33.676-85.486 0-116.571z" />
<glyph unicode="&#xe906;" glyph-name="arrow-up" d="M797.005 674.013v-386.174c0-14.482-6.033-27.757-15.688-37.411-10.861-10.861-24.136-16.895-38.617-16.895-30.17-1.207-55.513 24.136-54.306 54.306l-1.207 254.633-369.279-369.279c-21.722-21.722-55.513-21.722-77.236 0-20.515 20.515-21.722 55.512 0 77.234l369.28 369.28h-253.428c-30.17-1.207-55.513 24.135-54.306 54.305-1.207 30.171 24.136 55.513 54.306 54.306h386.175c30.17 1.207 55.512-24.135 54.305-54.306z" />
<glyph unicode="&#xe907;" glyph-name="awesome-play" horiz-adv-x="900" d="M828.301 525.3l-679.647 401.912c-14.042 8.482-30.093 13.061-46.496 13.266s-32.564-3.972-46.814-12.1c-14.249-8.128-26.071-19.912-34.244-34.136s-12.401-30.371-12.248-46.775v-803.409c0.005-16.341 4.333-32.389 12.547-46.518 8.213-14.125 20.019-25.83 34.218-33.916 14.199-8.090 30.285-12.276 46.626-12.136 16.34 0.143 32.353 4.602 46.411 12.933l679.647 401.61c13.867 8.183 25.361 19.844 33.348 33.829 7.984 13.985 12.186 29.811 12.186 45.916s-4.202 31.93-12.186 45.916c-7.987 13.982-19.481 25.643-33.348 33.829v-0.22z" />
<glyph unicode="&#xe908;" glyph-name="cake" d="M918.001 151.905c-4.229 12.283-13.609 21.727-25.219 26.299 8.033 9.444 14.482 20.252 19.459 30.316 12.524 25.318 18.337 50.309 18.58 51.361 1.853 8.074-3.19 16.123-11.261 17.976-8.074 1.856-16.125-3.19-17.976-11.261-0.054-0.225-5.253-22.577-16.233-44.777-6.39-12.918-15.642-27.597-27.172-34.967v72.722c0 8.287-6.715 15.002-14.999 15.002s-15.002-6.715-15.002-15.002v-78.333h-67.2v189.834c14.83 1.567 26.424 14.139 26.424 29.379v40.284c0 16.292-13.253 29.545-29.548 29.545h-42.545v147.53c14.769 1.626 26.301 14.167 26.301 29.361v34.893c0 16.292-13.253 29.547-29.548 29.547h-49.088c-6.776 40.604-42.138 71.656-84.631 71.656h-25.503l29.883 29.742c14.257 14.19 18.266 35.268 10.214 53.702-9.846 22.542-34.9 33.752-58.271 26.090l-22.669-7.44-22.671 7.44c-23.373 7.674-48.425-3.546-58.271-26.090-8.049-18.434-4.042-39.512 10.217-53.702l29.883-29.742h-25.5c-42.496 0-77.86-31.054-84.634-71.656h-49.088c-16.292 0-29.548-13.255-29.548-29.547v-34.893c0-15.194 11.53-27.735 26.301-29.361v-91.748c0-8.287 6.715-15.002 14.999-15.002s14.999 6.715 14.999 15.002v71.009l31.473-30.653c12.677-12.352 29.189-18.555 45.722-18.555 15.803 0 31.624 5.673 44.129 17.068l52.104 47.498 53.862-47.982c25.879-23.050 65.362-21.924 89.879 2.568l29.455 29.42v-126.159h-63.749v27.692c0 8.284-6.717 14.999-15.002 14.999s-14.999-6.715-14.999-14.999v-27.692h-159.124v27.692c0 8.284-6.715 14.999-14.999 14.999s-14.999-6.715-14.999-14.999v-27.692h-136.297c-16.292 0-29.548-13.253-29.548-29.545v-40.284c0-15.237 11.596-27.812 26.424-29.379v-189.832h-67.2v533.537c0.002 118.675 96.551 215.225 215.227 215.225h201.907c118.676 0 215.224-96.55 215.224-215.225v-384.34c0-8.287 6.717-14.999 15.002-14.999s14.999 6.712 14.999 14.999v384.34c0 135.217-110.008 245.225-245.225 245.225h-201.907c-135.217 0-245.225-110.008-245.225-245.225v-527.892c-23.466 15.009-39.18 61.463-43.406 79.726-1.86 8.069-9.914 13.107-17.974 11.251-8.074-1.856-13.118-9.902-11.262-17.976 0.242-1.050 6.056-26.043 18.58-51.364 4.976-10.061 11.426-20.872 19.458-30.316-11.61-4.572-20.99-14.016-25.22-26.304l-11.526-33.518c-6.258-17.149 6.85-40.904 29.15-40.817h120.6c8.284 0 14.999 6.715 14.999 14.999 0 8.287-6.715 15.002-14.999 15.002h-120.6c0.032 0.079-0.952 0.028-0.776 1.080l11.518 33.495c1.876 5.445 7.010 9.103 12.778 9.103h181.701c6.502-8.059 18.604-15.191 32.684-13.453l94.497 11.971c5.417-9.124 15.342-15.27 26.703-15.27h58.547c11.359 0 21.284 6.147 26.703 15.27l94.497-11.971c9.743-1.167 24.338 2.378 32.684 13.453h181.701c5.768 0 10.9-3.658 12.777-9.098l11.512-33.482c-0.090 0.013 0.297-0.924-0.771-1.098h-584.466c-8.284 0-15.002-6.715-15.002-15.002 0-8.284 6.717-14.999 15.002-14.999h141.251v-32.888c0-27.681-7.959-54.595-23.012-77.824l-0.289-0.445c-123.973 0.061-125.051-0.259-127.636-1.037-7.933-2.381-12.434-10.744-10.051-18.678 1.953-6.497 7.91-10.691 14.362-10.691 0.512 0 1.029 0.028 1.546 0.079 14.024 0.568 246.938 0.269 401.347-0.077h0.036c8.266 0 14.979 6.694 14.999 14.966 0.018 8.284-6.682 15.017-14.966 15.035 0 0-54.413 0.123-123.241 0.23l-0.402 0.617c-15.053 23.229-23.012 50.143-23.012 77.824v32.886h333.542c18.268-0.356 36.46 19.748 29.143 40.837l-11.528 33.505zM458.55 854.708c4.334 6.41 9.902 12.848 21.425 9.594l23.949-7.86c5.284-1.73 10.867-1.732 16.156 0.002l23.944 7.858c8.594 2.818 17.805-1.304 21.425-9.594 3.062-7.014 1.539-15.034-3.886-20.432l-49.564-49.326-49.559 49.328c-5.425 5.398-6.95 13.418-3.889 20.43zM445.658 753.275h132.687c25.884 0 47.716-17.714 54.001-41.656h-240.691c6.287 23.94 28.116 41.656 54.003 41.656zM312.389 681.618h399.222v-33.989h-399.222v33.989zM439.8 587.11c-13.873-12.641-35.267-12.288-48.707 0.806l-30.505 29.711h112.691l-33.48-30.518zM634.657 588.25c-13.292-13.281-34.696-13.891-48.724-1.393l-34.542 30.771h112.681l-29.414-29.379zM266.596 440.287h490.808v-39.375h-490.808v39.375zM357.755 167.552c-2.821 0.215-5.263 0.090-6.61 5.824v68.987c1.229 2.964-0.543 4.726 6.61 5.824l93.908-11.896v-56.845l-93.908-11.894zM542.336 165.55c0-0.586-0.476-1.060-1.062-1.060h-58.547c-0.584 0-1.062 0.474-1.062 1.060v84.639c0 0.586 0.476 1.062 1.062 1.062h58.547c0.584 0 1.062-0.476 1.062-1.062v-84.639zM670.868 168.973c-0.745-0.658-2.324-1.71-4.623-1.421l-93.908 11.894v56.845l93.911 11.896c2.819-0.223 5.261-0.087 6.607-5.824v-68.987c0-2.307-1.247-3.748-1.987-4.403zM702.856 181.243v61.123c0.287 18.744-17.866 38.592-40.379 35.584l-94.5-11.968c-5.42 9.124-15.342 15.27-26.701 15.27h-58.547c-11.359 0-21.284-6.149-26.701-15.27l-94.5 11.968c-18.563 2.637-40.53-12.867-40.379-35.584v-61.123h-28.124v189.66h437.957v-189.66h-28.127zM555.54-33.6h-87.081c12.278 24.192 18.701 50.921 18.701 78.275v32.888h49.677v-32.888c0-27.354 6.426-54.083 18.703-78.275zM346.432 346.701c-8.622 0-15.611-6.991-15.611-15.613s6.989-15.611 15.611-15.611c8.622 0 15.613 6.989 15.613 15.611s-6.989 15.613-15.613 15.613zM429.207 346.701c-8.622 0-15.611-6.991-15.611-15.613s6.989-15.611 15.611-15.611c8.622 0 15.613 6.989 15.613 15.611s-6.991 15.613-15.613 15.613zM512.008 346.701c-8.622 0-15.613-6.991-15.613-15.613s6.991-15.611 15.613-15.611c8.622 0 15.611 6.989 15.611 15.611s-6.989 15.613-15.611 15.613zM594.783 346.701c-8.622 0-15.613-6.991-15.613-15.613s6.991-15.611 15.613-15.611c8.622 0 15.611 6.989 15.611 15.611s-6.986 15.613-15.611 15.613zM677.583 346.701c-8.622 0-15.613-6.991-15.613-15.613s6.991-15.611 15.613-15.611c8.622 0 15.611 6.989 15.611 15.611s-6.989 15.613-15.611 15.613z" />
<glyph unicode="&#xe909;" glyph-name="calendar" horiz-adv-x="887" d="M298.667 849.067v-59.733h238.933v59.733c0 31.733 26.133 59.733 59.733 59.733 31.733 0 59.733-28 59.733-59.733v-59.733h89.6c48.531 0 89.6-41.066 89.6-89.6v-89.6h-836.267v89.6c0 48.534 39.2 89.6 89.6 89.6h89.6v59.733c0 31.733 26.133 59.733 59.733 59.733 31.733 0 59.733-28 59.733-59.733zM0 550.4h836.267v-507.733c0-50.401-41.069-89.6-89.6-89.6h-657.067c-50.4 0-89.6 39.199-89.6 89.6v507.733zM119.467 341.333c0-16.8 13.067-29.867 29.867-29.867h59.733c14.933 0 29.867 13.067 29.867 29.867v59.733c0 14.933-14.933 29.867-29.867 29.867h-59.733c-16.8 0-29.867-14.933-29.867-29.867v-59.733zM358.4 341.333c0-16.8 13.067-29.867 29.867-29.867h59.733c14.933 0 29.867 13.067 29.867 29.867v59.733c0 14.933-14.933 29.867-29.867 29.867h-59.733c-16.8 0-29.867-14.933-29.867-29.867v-59.733zM627.2 430.933c-16.8 0-29.867-14.933-29.867-29.867v-59.733c0-16.8 13.067-29.867 29.867-29.867h59.733c14.93 0 29.867 13.067 29.867 29.867v59.733c0 14.933-14.937 29.867-29.867 29.867h-59.733zM119.467 102.4c0-16.8 13.067-29.867 29.867-29.867h59.733c14.933 0 29.867 13.066 29.867 29.867v59.733c0 14.93-14.933 29.867-29.867 29.867h-59.733c-16.8 0-29.867-14.937-29.867-29.867v-59.733zM388.267 192c-16.8 0-29.867-14.937-29.867-29.867v-59.733c0-16.8 13.067-29.867 29.867-29.867h59.733c14.933 0 29.867 13.066 29.867 29.867v59.733c0 14.93-14.933 29.867-29.867 29.867h-59.733zM597.333 102.4c0-16.8 13.067-29.867 29.867-29.867h59.733c14.93 0 29.867 13.066 29.867 29.867v59.733c0 14.93-14.937 29.867-29.867 29.867h-59.733c-16.8 0-29.867-14.937-29.867-29.867v-59.733z" />
<glyph unicode="&#xe90a;" glyph-name="call" horiz-adv-x="967" d="M908.447 215.108l-42.667-179.553c-5.336-26.67-26.67-44.442-53.339-44.442-447.997 1.775-812.442 366.217-812.442 814.219 0 26.667 16 48 42.667 53.333l179.556 42.667c24.889 5.333 51.556-8.889 62.222-32l83.556-193.778c8.889-23.111 3.556-49.778-16-64l-96-78.222c60.444-122.667 160-222.219 284.444-282.67l78.222 96.006c14.222 17.772 40.892 24.883 64 15.997l193.775-83.558c23.114-12.442 37.336-39.105 32.006-64z" />
<glyph unicode="&#xe90b;" glyph-name="camera" horiz-adv-x="1365" d="M1344.539 560.954c-13.015 8.649-29.389 10.199-43.796 4.14l-216.071-90.808h-116.442v43.080c0 33.625-25.76 61.341-58.58 64.468l-134.707 291.114c-0.068 0.147-0.14 0.293-0.212 0.44-18.982 38.539-57.467 62.48-100.441 62.48h-364.649c-61.741 0-111.973-50.229-111.973-111.973v-133.903h-26.573c-35.714 0-64.77-29.056-64.77-64.773v-232.883h-38.354c-37.48 0-67.97-30.488-67.97-67.97v-201.714c0-37.478 30.49-67.97 67.97-67.97h1020.729c11.046 0 20.002 8.957 20.002 20.002v366.316l207.537 87.221c3.447 0.693 7.11 1.324 9.086-6.035v-515.4c-0.696-3.451-1.536-7.066-9.086-6.038l-133.233 55.992c-10.185 4.277-21.907-0.505-26.187-10.687s0.505-21.907 10.687-26.187l133.233-55.992c25.692-12.455 65.273 8.489 64.584 42.912v515.4c0.003 15.626-7.769 30.119-20.784 38.769zM782.356 659.175l-81.94 177.050c-0.085 0.184-0.171 0.365-0.263 0.544-4.939 9.878-14.848 16.013-25.863 16.013h-364.649c-15.931 0-28.888-12.96-28.888-28.888v-133.895h-43.085v133.895c0 39.685 32.285 71.973 71.973 71.973h364.649c27.546 0 52.224-15.301 64.457-39.949l126.686-273.777h-176.254c-9.39 0-17.859 5.205-22.101 13.582l-29.747 58.757c-11.093 21.904-33.232 35.512-57.784 35.512h-258.793v122.791h346.441l78.862-170.407c4.639-10.027 16.531-14.392 26.549-9.752 10.022 4.64 14.391 16.528 9.752 26.552zM40 122.651v201.714c0 15.425 12.546 27.972 27.971 27.972h38.354v-257.655h-38.354c-15.424 0-27.971 12.547-27.971 27.969zM146.324 625.218c0 13.658 11.112 24.773 24.771 24.773h408.448c9.39 0 17.859-5.205 22.101-13.581l29.751-58.761c11.093-21.903 33.232-35.509 57.784-35.509h207.34c13.879 2.304 31.082-7.438 31.706-24.774v-422.683h-781.901v530.535zM968.226 434.285h100.475v-339.603h-100.475v339.603zM669.051 474.266h-374.598c-32.379 0-58.72-26.341-58.72-58.72v-177.401c0-32.379 26.341-58.72 58.72-58.72h221.937c11.046 0 20.002 8.957 20.002 19.999 0 11.046-8.957 20.002-20.002 20.002h-221.937c-10.323 0-18.72 8.397-18.72 18.719v177.401c0 10.322 8.397 18.722 18.72 18.722h374.601c10.322 0 18.719-8.4 18.719-18.722v-177.401c0-10.322-8.397-18.719-18.719-18.719h-57.631c-11.046 0-19.999-8.957-19.999-20.002 0-11.042 8.953-19.999 19.999-19.999h57.631c32.379 0 58.72 26.341 58.72 58.72v177.401c-0.003 32.379-26.344 58.72-58.723 58.72zM326.567 326.922c0-44.486 36.192-80.678 80.678-80.678s80.674 36.192 80.674 80.678c0 44.486-36.192 80.678-80.674 80.678-44.486 0-80.678-36.188-80.678-80.678zM447.921 326.922c0-22.429-18.248-40.677-40.673-40.677-22.432 0-40.68 18.248-40.68 40.677s18.248 40.677 40.68 40.677c22.426 0 40.673-18.244 40.673-40.677zM636.774 326.799c0 11.046-8.957 20.002-20.002 20.002h-59.573c-11.046 0-19.999-8.957-19.999-20.002s8.953-19.999 19.999-19.999h59.573c11.046 0 20.002 8.953 20.002 19.999z" />
<glyph unicode="&#xe90c;" glyph-name="camera-two" horiz-adv-x="1124" d="M859.406 864.019c3.217-3.216 7.43-4.823 11.644-4.823s8.427 1.607 11.644 4.823l13.762 13.761 13.762-13.761c3.214-3.214 7.43-4.823 11.641-4.823 4.213 0 8.427 1.607 11.644 4.823 6.429 6.43 6.429 16.854 0 23.282l-13.762 13.761 13.762 13.761c6.429 6.43 6.429 16.854 0 23.282-6.431 6.429-16.854 6.429-23.282 0l-13.762-13.761-13.762 13.761c-6.431 6.429-16.854 6.429-23.285 0-6.429-6.43-6.429-16.854 0-23.282l13.762-13.761-13.762-13.761c-6.434-6.427-6.434-16.852-0.005-23.282zM1048.976 776.977c9.323 0 16.881 7.558 16.881 16.881s-7.558 16.881-16.881 16.881c-9.321 0-16.879-7.558-16.879-16.881s7.558-16.881 16.879-16.881zM921.173 403.024c-9.323 0-16.881-7.558-16.881-16.881 0-9.321 7.558-16.879 16.881-16.879s16.879 7.558 16.879 16.879c0 9.323-7.555 16.881-16.879 16.881zM921.173 474.244c-9.323 0-16.881-7.558-16.881-16.881s7.558-16.881 16.881-16.881c9.323 0 16.879 7.558 16.879 16.881s-7.555 16.881-16.879 16.881zM562.556 305.367c-41.272 0-74.849-33.577-74.849-74.849 0-41.275 33.577-74.847 74.849-74.847s74.847 33.575 74.847 74.847c0 41.27-33.575 74.849-74.847 74.849zM562.556 188.596c-23.115 0-41.922 18.807-41.922 41.922s18.807 41.922 41.922 41.922c23.117 0 41.922-18.807 41.922-41.922 0-23.117-18.804-41.922-41.922-41.922zM1073.809 619.318h-214.615c-18.677 0-34.831 12.663-39.284 30.797l-19.956 81.221c-6.411 26.067-29.629 44.274-56.465 44.274h-361.647c-26.839 0-50.059-18.206-56.467-44.276l-19.953-81.221c-4.456-18.132-20.612-30.795-39.284-30.795h-169.223v47.151c0 7.832 6.37 14.201 14.202 14.201h146.354c9.094 0 16.461 7.373 16.461 16.464s-7.368 16.463-16.461 16.463h-146.354c-25.988 0-47.129-21.141-47.129-47.128v-47.151h-13.895c-27.621 0-50.093-22.473-50.093-50.094v-503.496c0-27.621 22.471-50.091 50.093-50.091h336.358c47.978-39.407 109.331-63.096 176.116-63.096 153.23 0 277.891 124.663 277.891 277.891 0 16.476-1.449 32.616-4.211 48.31h254.729v-213.014c0-9.463-7.7-17.166-17.166-17.166h-255.098c-9.094 0-16.464-7.37-16.464-16.461 0-9.094 7.37-16.464 16.464-16.464h255.098c27.623 0 50.094 22.471 50.094 50.091v503.496c0 27.621-22.471 50.094-50.094 50.094zM32.927 65.728v213.014h255.961c-2.765-15.695-4.213-31.834-4.213-48.31 0-69.482 25.637-133.093 67.946-181.87h-97.185v52.586c0 32.753-26.649 59.402-59.402 59.402h-26.115c-32.754 0-59.402-26.649-59.402-59.402v-52.586h-60.423c-9.465 0.002-17.166 7.702-17.166 17.166zM685.226 375.758c-33.427 28.185-76.473 44.789-122.658 44.789-104.828 0-190.112-85.284-190.112-190.112 0-46.657 16.906-89.433 44.899-122.548l-38.877-38.877c-37.873 43.14-60.876 99.645-60.876 161.425 0 135.076 109.893 244.966 244.968 244.966 61.782 0 118.287-23 161.425-60.876l-38.77-38.767zM143.445 48.565v52.584c0 14.598 11.876 26.477 26.475 26.477h26.115c14.597 0 26.475-11.878 26.475-26.477v-52.584h-79.066zM562.566-14.531c-61.467 0-117.715 22.76-160.77 60.294l38.892 38.89c33.023-27.653 75.539-44.329 121.878-44.329 89.867 0 168.186 63.803 186.228 151.709 1.828 8.909-3.909 17.608-12.817 19.436-8.901 1.821-17.608-3.911-19.436-12.817-14.913-72.664-79.667-125.403-153.975-125.403-86.673 0-157.184 70.514-157.184 157.184 0 86.668 70.511 157.184 157.184 157.184 71.275 0.212 134.129-48.605 152.239-117.895 2.265-8.806 11.227-14.106 20.048-11.843 8.804 2.265 14.109 11.242 11.843 20.048-7.228 28.080-20.527 53.31-38.248 74.48l38.792 38.792c37.531-43.055 60.294-99.303 60.294-160.768-0.002-135.068-109.895-244.961-244.968-244.961zM828.334 311.671c-34.971 114.016-141.774 196.838-265.768 196.655-124.978 0-230.937-82.934-265.768-196.655h-153.353v57.526c0 9.091-7.369 16.461-16.463 16.461s-16.463-7.37-16.463-16.461v-57.526h-77.591v257.553c0 9.466 7.7 17.166 17.166 17.166h216.045c33.877 0 63.178 22.975 71.26 55.87l19.953 81.215c2.288 8.484 11.684 19.479 24.491 19.207h361.647c8.809 0.090 21.324-6.572 24.489-19.207l19.956-81.22c8.080-32.893 37.383-55.868 71.26-55.868h214.615c9.466 0 17.166-7.7 17.166-17.166v-257.553l-262.641 0.002zM653.904 696.195h-182.659c-30.26 0-54.879-24.618-54.879-54.879 0-30.258 24.618-54.876 54.879-54.876h182.659c30.26 0 54.881 24.618 54.881 54.876 0 30.26-24.621 54.879-54.881 54.879zM653.904 619.365h-182.659c-12.106 0-21.951 9.848-21.951 21.951 0 12.106 9.845 21.951 21.951 21.951h182.659c12.106 0 21.954-9.845 21.954-21.951 0-12.103-9.85-21.951-21.954-21.951z" />
<glyph unicode="&#xe90d;" glyph-name="cart" horiz-adv-x="1075" d="M844.948 140.8c27.162 0 53.207-10.788 72.407-29.993 19.205-19.205 29.993-45.251 29.993-72.407s-10.788-53.202-29.993-72.407c-19.2-19.205-45.245-29.993-72.407-29.993-27.156 0-53.202 10.788-72.407 29.993s-29.993 45.251-29.993 72.407c0 56.832 45.568 102.4 102.4 102.4zM25.75 960h167.424l48.128-102.4h757.246c13.578 0 26.604-5.394 36.204-14.996 9.605-9.602 14.996-22.625 14.996-36.204 0-8.704-2.56-17.408-6.144-25.6l-183.296-331.264c-17.408-31.232-51.2-52.736-89.6-52.736h-381.438l-46.080-83.456-1.536-6.144c0-3.395 1.349-6.651 3.749-9.052s5.657-3.748 9.051-3.748h592.894v-102.4h-614.398c-27.158 0-53.204 10.788-72.408 29.993s-29.992 45.251-29.992 72.407c0 17.92 4.608 34.816 12.288 49.152l69.632 125.44-184.32 388.608h-102.4v102.4zM332.95 140.8c27.158 0 53.204-10.788 72.408-29.993s29.992-45.251 29.992-72.407c0-27.156-10.788-53.202-29.992-72.407s-45.25-29.993-72.408-29.993c-27.158 0-53.204 10.788-72.408 29.993s-29.992 45.251-29.992 72.407c0 56.832 45.568 102.4 102.4 102.4zM793.748 499.2l142.336 256h-647.166l120.832-256h383.998z" />
<glyph unicode="&#xe90f;" glyph-name="clock" d="M512 923.442c-262.56 0-475.429-212.869-475.429-475.429s212.868-475.427 475.429-475.427c262.561 0 475.429 212.868 475.429 475.427s-212.868 475.429-475.429 475.429zM731.429 374.87h-219.429c-9.699 0-19.002 3.853-25.86 10.712s-10.712 16.16-10.712 25.86v329.143c0 9.699 3.853 19.002 10.712 25.86s16.16 10.711 25.86 10.711c9.699 0 19.002-3.853 25.86-10.711s10.712-16.161 10.712-25.86v-292.571h182.857c9.699 0 19.003-3.852 25.863-10.711 6.853-6.859 10.708-16.161 10.708-25.86s-3.855-19.001-10.708-25.86c-6.861-6.859-16.165-10.712-25.863-10.712z" />
<glyph unicode="&#xe910;" glyph-name="clown" d="M958.946 665.352c16.177 57.749-29.664 116.552-88.885 116.046-7.689 0-15.36-0.976-22.792-2.874-8.879 41.554-45.88 72.808-90.046 72.808-31.521 0-60.054-15.626-76.955-41.474-11.064 2.062-21.456 3.234-31.248 3.688v9.46c0.255 24.102-22.021 44.584-47.047 42.482-1.072 48.716-41.003 88.023-89.971 88.023s-88.901-39.306-89.971-88.023c-29.359 2.624-50.611-23.838-47.049-51.981-10.873-0.496-21.39-1.834-31.239-3.656-16.903 25.85-45.438 41.482-76.959 41.482-44.164 0-81.166-31.258-90.046-72.808-57.57 15.258-115.321-30.478-114.865-89.201 0-8.092 1.084-16.172 3.188-23.973-37.696-11.696-65.060-47.216-65.060-87.984 0-45.666 33.416-83.672 77.081-90.852 0.542-51.075 44.92-94.363 97.629-90.792-2.14-43.352 33.754-81.852 78.007-81.706h35.032c-0.928-26.39 3.077-56.040 14.855-81.585l-92.666-49.061c-0.042-0.023-0.084-0.046-0.124-0.068-0.1-0.055-0.202-0.096-0.3-0.152-6.622-3.782-12.082-9.268-15.788-15.867-0.092-0.162-0.164-0.33-0.248-0.494-3.396-6.169-5.204-13.128-5.204-20.189v-162.32c0-23.197 18.864-42.070 42.051-42.070h563.348c23.188 0 42.050 18.876 42.050 42.070v162.32c0 7.122-1.836 14.143-5.238 20.257-0.073 0.139-0.132 0.282-0.209 0.419-3.705 6.601-9.164 12.090-15.788 15.872-0.102 0.059-0.207 0.1-0.309 0.157-0.041 0.023-0.082 0.046-0.121 0.066l-44.856 23.748c-7.32 3.878-16.4 1.083-20.275-6.235-3.878-7.323-1.085-16.4 6.235-20.277l36.919-19.545-66.23-44.808c-9.544-6.226-17.77-14.102-31.687-14.57h-364.326c-8.765-1.138-23.418 8.442-31.687 14.57l-66.235 44.808 85.274 45.147c31.45-46.421 84.116-75.061 141.658-75.061h106.305c68.795 0 130.642 40.917 157.564 104.241 9.962 22.225 14.575 52.531 13.535 78.63h35.034c43.684-0.203 79.845 37.396 78.004 81.706 50.979-3.6 97.53 38.76 97.633 90.792 43.663 7.179 77.078 45.186 77.078 90.852 0 40.769-27.364 76.288-65.054 87.984zM541.405-27.789h-58.809v99.471h58.809v-99.471zM571.403 71.682h58.85v-99.471h-58.85v99.471zM452.597-27.789h-58.85v99.471h58.85v-99.471zM793.675-27.789h-44.569v123.558l56.62 38.3v-149.788c-0.002-6.656-5.409-12.070-12.051-12.070zM719.105 76.859v-104.651h-58.85v99.471h33.908c8.661 0.002 17.108 1.798 24.942 5.179zM329.837 71.682h33.908v-99.471h-58.85v17.092c0 8.288-6.715 15-15 15s-15-6.713-15-15v-17.092h-44.569c-6.643 0-12.049 5.414-12.049 12.070v149.788l56.621-38.3v-37.201c0-8.285 6.713-15 15-15 8.285 0 15 6.715 15 15v18.291c7.835-3.381 16.279-5.177 24.94-5.177zM512 923.511c32.429 0 58.93-25.848 59.988-58.022h-119.976c1.058 32.176 27.562 58.022 59.988 58.022zM417.446 835.488h189.112c6.874 0 12.463-5.6 12.463-12.482v-10.45c-40.314-4.804-67.432-23.096-84.733-40.886-9.562-9.832-16.832-20.18-22.289-29.624-5.457 9.444-12.727 19.792-22.289 29.624-25.24 25.956-55.285 37.394-84.733 40.844v10.492c0 6.884 5.593 12.482 12.468 12.482zM107.075 487.613c0 3.368 0.29 6.818 0.86 10.256 1.048 6.849-4.206 17.915-15.86 17.426-34.228 0-62.074 27.846-62.074 62.073-0.178 32.251 28.036 62.614 62.074 62.075 11.304 0 22.364-3.063 31.98-8.861 2.422-1.456 5.092-2.153 7.728-2.153 5.084 0 10.044 2.585 12.862 7.259 4.276 7.097 1.99 16.316-5.106 20.592-13.402 8.076-28.676 12.529-44.35 13.057-2.19 6.401-3.322 13.087-3.322 19.988-0.296 41.647 42.872 73.377 83.591 58.226 1.524-11.912 5.356-23.451 11.314-33.887 2.768-4.847 7.83-7.564 13.040-7.564 2.522 0 5.078 0.637 7.424 1.977 7.196 4.107 9.698 13.269 5.588 20.462-23.868 41.976 8.162 92.941 53.956 92.792 23.955 0 45.354-13.392 55.847-34.95 3.054-6.282 10.044-9.624 16.85-8.052 122.632 28.216 153.618-62.524 157.525-76.102v-42.997l-35.758-52.64c-14.165-23.545-46.071-29.202-72.363-26.906-5.434 0-10.443-2.938-13.091-7.68l-14.702-26.292c-27.853-48.308-75.071-38.944-114.952-39.688-7.254-0.177-16.543-6.956-14.914-18.414 0-34.229-27.846-62.075-62.074-62.075-34.226 0.002-62.072 27.851-62.072 62.077zM252.716 344.018c-30.369-0.421-51.823 28.752-48.007 58.689 29.75 12.506 51.611 40.191 55.789 73.321h27.229v-60.648h-20.282c-8.285 0-15-6.715-15-15 0-8.288 6.715-15 15-15h20.282v-41.36h-35.012zM458.848 161.146c-52.21-0.209-104.926 30.909-127.531 80.614 19.017 47.903 57.13 86.872 104.357 107.145 12.989-29.261 42.303-49.732 76.327-49.732s63.338 20.471 76.327 49.732c47.227-20.273 85.34-59.244 104.357-107.145-21.656-46.289-71.923-81.465-127.531-80.614h-106.305zM512 329.17c-29.487 0-53.476 23.989-53.476 53.476s23.989 53.478 53.476 53.478c29.487 0 53.476-23.991 53.476-53.478s-23.989-53.476-53.476-53.476zM819.291 392.044c0-26.481-21.536-48.026-48.005-48.026h-35.014v41.36h20.282c8.285 0 15 6.713 15 15 0 8.285-6.715 15-15 15h-20.282v60.648h27.232c4.178-33.13 26.037-60.814 55.788-73.321v-10.663zM931.849 515.302c-13.533-0.765-17.788-10.003-14.923-27.689 0-34.227-27.846-62.075-62.073-62.075s-62.073 27.848-62.073 62.075c0.828 7.056-3.104 18.038-14.914 18.414-84.039-4.007-100.516 9.061-129.654 65.98-2.649 4.742-7.657 7.68-13.091 7.68-25.316-1.964-55.276 1.968-71.352 25.463-4.851 6.717-14.224 8.226-20.942 3.381-6.717-4.849-8.233-14.222-3.384-20.942 18.587-27.024 53.865-40.541 86.878-37.906l10.408-18.612c14.939-26.72 40.396-45.468 69.52-52.247v-176.583c0-6.078-0.419-12.081-1.17-18.016-25.111 42.237-63.879 75.815-109.709 94.233 2.715 46.339-36.031 87.975-83.372 87.661-46.276 0.13-86.089-39.922-83.37-87.661-45.832-18.418-84.601-51.999-109.711-94.233-0.751 5.935-1.17 11.938-1.17 18.013v176.583c29.125 6.779 54.581 25.525 69.52 52.247l10.408 18.612c33.189-2.879 69.127 10.95 88.38 40.050l38.35 56.459c1.688 2.485 2.592 5.42 2.592 8.426v47.602c3.941 13.685 34.939 104.316 157.525 76.111 6.804-1.574 13.794 1.772 16.85 8.052 10.493 21.556 31.892 34.95 55.847 34.95 45.852 0.772 77.626-51.768 53.956-92.792-4.11-7.195-1.609-16.357 5.589-20.462 4.795-3.172 15.408-2.53 20.462 5.586 5.957 10.436 9.789 21.975 11.314 33.887 6.852 2.548 14.058 3.846 21.518 3.846 40.983 0.314 72.665-41.715 58.75-82.061-15.672-0.53-30.945-4.981-44.351-13.057-7.095-4.276-9.38-13.494-5.106-20.592 4.638-5.477 10.509-10.037 20.592-5.106 9.616 5.798 20.678 8.861 31.981 8.861 32.265 0.637 62.48-28.495 62.073-62.075 0-34.224-27.839-62.066-62.15-62.066zM598.294 276.762c3.32 7.589-0.139 16.434-7.728 19.756-7.584 3.313-16.434-0.139-19.756-7.728-6.888-15.74-17.733-25.52-28.301-25.52h-63.099c-9.717 0-19.661 8.187-26.599 21.9-3.741 7.393-12.766 10.349-20.157 6.613-7.391-3.741-10.354-12.766-6.613-20.159 12.334-24.373 31.785-38.352 53.369-38.352h63.099c23.013 0 43.864 16.257 55.785 43.49zM634.022 410.71c8.285 0 15 6.713 15 15v41.511c0 8.288-6.715 15-15 15s-15-6.713-15-15v-41.511c0-8.288 6.715-15 15-15zM389.978 482.222c-8.285 0-15-6.713-15-15v-41.511c0-8.288 6.715-15 15-15s15 6.713 15 15v41.511c0 8.288-6.715 15-15 15z" />
<glyph unicode="&#xe911;" glyph-name="comments" horiz-adv-x="1297" d="M844.8 580.267c0-182.934-175.466-328.533-388.267-328.533-72.8 0-138.134 14.937-196 44.8-46.667-24.265-106.4-44.8-179.2-44.8-5.6 0-11.201 1.864-13.067 7.468-1.867 5.598-1.867 11.196 3.734 14.93 0 1.871 42.933 46.668 72.8 108.268-48.533 56.001-76.533 123.2-76.533 197.867 0 181.066 173.6 328.533 388.267 328.533 212.8 0 388.267-147.467 388.267-328.533zM1186.4 80.002c29.867-59.733 70.936-102.666 70.936-104.537 3.734-3.734 5.598-9.332 3.734-14.93-1.871-5.605-7.468-7.468-13.073-7.468-67.195 0-125.065 18.664-171.732 39.199-50.401-24.262-110.135-39.199-171.732-39.199-169.868 0-309.866 104.53-349.067 248.265 199.733 39.199 349.067 194.135 349.067 378.935 0 9.333-1.864 18.667-1.864 28 0 0 0 1.866 1.864 1.866 197.864 0 358.4-147.467 358.4-328.533 0-76.534-29.867-145.599-76.534-201.598z" />
<glyph unicode="&#xe912;" glyph-name="dental-specialists" d="M1010.568 614.72c-8.673 8.676-20.196 13.455-32.448 13.455-25.308 0-45.898-20.59-45.898-45.898v-65.421h-35.581v65.421c0.366 22.625-19.743 46.198-45.898 45.898-25.298 0-45.88-20.59-45.88-45.898v-65.421h-93.601v383.762c0.31 19.884-19.098 40.874-42.952 37.402l-193.62-26.864c-45.105-6.258-90.849-6.254-135.954 0l-193.62 26.864c-19.656 3.034-43.108-13.294-42.952-37.402v-383.762h-87.158c-7.642 0.1-15.214-6.615-15-14.999v-529.211c0-8.287 6.716-14.999 15-14.999s15 6.712 15 14.999v141.117c0 27.82 43.9 57.608 109.25 57.608 27.916 0 54.63-5.837 75.226-16.44 30.698-15.798 67.351-15.798 98.048 0 11.681 6.013 25.779 10.642 40.771 13.384 8.146 1.49 13.545 9.306 12.052 17.454-1.492 8.154-9.308 13.55-17.454 12.058-18.109-3.315-34.627-8.773-49.098-16.22-22.1-11.377-48.489-11.377-70.588 0.003-24.762 12.744-56.354 19.763-88.956 19.763-44.766 0-83.942-12.664-109.25-32.714v32.381c0 18.678 18.144 32.069 28.96 38.39 21.208 12.393 49.72 19.215 80.29 19.215 27.916 0 54.63-5.837 75.226-16.44 30.698-15.798 67.351-15.798 98.048 0.003 20.593 10.601 47.309 16.438 75.226 16.438s54.63-5.837 75.226-16.44c30.697-15.798 67.351-15.798 98.048 0.003 20.593 10.601 47.309 16.438 75.226 16.438s54.63-5.837 75.226-16.44c30.697-15.798 67.351-15.798 98.048 0.003 43.415 21.842 109.983 22.909 155.515-2.78 10.816-6.318 28.961-19.712 28.961-38.39v-32.381c-25.308 20.050-64.484 32.714-109.251 32.714-32.602 0-64.192-7.020-88.955-19.763-22.1-11.379-48.489-11.379-70.589 0-24.76 12.744-56.353 19.763-88.955 19.763s-64.192-7.020-88.955-19.763c-22.1-11.379-48.489-11.377-70.589 0-15.439 7.944-33.9 13.806-53.386 16.957-8.172 1.329-15.88-4.239-17.201-12.416-1.321-8.179 4.237-15.877 12.416-17.203 16.412-2.65 31.78-7.496 44.444-14.016 30.697-15.798 67.348-15.798 98.048 0 20.595 10.604 47.311 16.44 75.226 16.44s54.628-5.837 75.226-16.44c30.697-15.798 67.351-15.798 98.048 0 20.595 10.604 47.311 16.44 75.226 16.44 65.349 0 109.248-29.788 109.248-57.608v-32.379c-25.308 20.050-64.484 32.714-109.248 32.714-32.599 0-64.189-7.020-88.957-19.766-22.098-11.379-48.486-11.379-70.587 0-24.763 12.746-56.356 19.766-88.955 19.766-32.602 0-64.189-7.020-88.957-19.766-22.098-11.379-48.486-11.379-70.587 0-24.763 12.746-56.356 19.766-88.955 19.766-32.602 0-64.189-7.020-88.957-19.766-22.098-11.379-48.487-11.379-70.587 0-24.764 12.746-56.356 19.766-88.956 19.766-21.262 0-41.632-2.854-60.55-8.481-7.94-2.36-12.462-10.711-10.1-18.652 2.362-7.944 10.714-12.462 18.654-10.102 15.912 4.733 33.892 7.235 51.998 7.235 27.912 0 54.628-5.837 75.226-16.44 30.698-15.8 67.352-15.8 98.049-0.003 20.598 10.606 47.311 16.443 75.226 16.443 27.912 0 54.628-5.837 75.226-16.44 30.697-15.8 67.348-15.8 98.045-0.003 20.6 10.606 47.314 16.443 75.226 16.443 27.914 0 54.628-5.837 75.228-16.44 30.697-15.8 67.351-15.8 98.045-0.003 20.598 10.606 47.314 16.443 75.226 16.443 65.352 0 109.251-29.788 109.251-57.608v-53.844c0-8.284 6.715-14.999 14.999-14.999s15.002 6.715 15.002 14.999v609.633c-0.005 12.262-4.777 23.785-13.437 32.443zM962.22 582.277c0 8.768 7.132 15.9 15.9 15.9 6.523-0.156 15.322-5.148 15.882-15.9v-65.421h-31.782v65.421zM734.674 428.298l-12.572-62.392c-0.517-2.57-2.419-3.448-3.507-3.743s-3.172-0.497-4.915 1.459l-42.9 48.087c24.015 3.507 45.302 9.459 63.895 16.589zM685.965 445.036c-95.25-21.658-183.227 12.421-224.827 41.82h319.165c-20.352-14.738-51.768-32.387-94.339-41.82zM564.219 413.481l-42.245-45.791c-1.779-1.928-3.86-1.69-4.938-1.38-1.083 0.312-2.967 1.224-3.443 3.802l-11.236 60.995c18.143-7.24 38.804-13.501 61.862-17.626zM334.323 432.054l-13.658-62.344c-0.563-2.563-2.476-3.41-3.569-3.686-1.088-0.282-3.177-0.445-4.892 1.544l-39.846 46.203c22.861 4.308 43.599 10.819 61.965 18.284zM246.020 440.141c-67.6-11.438-156.647 21.315-188.567 46.715h316.899c-28.114-18.13-72.463-40.274-128.332-46.715zM157.31 413.542l-42.3-45.852c-1.78-1.928-3.862-1.69-4.94-1.38-1.082 0.315-2.968 1.224-3.444 3.802l-11.432 62.052c18.232-7.639 38.994-14.295 62.116-18.621zM834.862 405.74h97.359v-52.467h-97.359v52.467zM932.221 435.738h-97.359v51.118h97.359v-51.118zM834.862 582.277c0 8.768 7.122 15.9 15.88 15.9 6.508-0.151 15.337-5.148 15.9-15.9v-65.421h-31.78v65.421zM132.164 900.619c0.732 3.196 0.564 6.888 8.828 7.688l193.62-26.864c47.841-6.636 96.358-6.636 144.2 0l193.62 26.864c3.264-0.294 6.904 0.392 8.827-7.688v-133.777l-206.572-28.66c-45.107-6.26-90.849-6.26-135.954 0l-148.39 20.588c-8.222 1.146-15.782-4.592-16.918-12.796-1.138-8.206 4.59-15.78 12.796-16.918l148.388-20.588c45.67-6.372 95.951-6.764 144.202 0l202.447 28.088v-219.699h-549.096v383.762zM725.207 268.877c-24.76 12.749-56.353 19.768-88.955 19.768s-64.197-7.020-88.955-19.766c-22.1-11.377-48.489-11.374-70.589-0.003-24.76 12.749-56.353 19.768-88.955 19.768s-64.195-7.020-88.955-19.766c-22.1-11.377-48.489-11.374-70.588-0.003-24.76 12.749-56.354 19.768-88.956 19.768-44.766 0-83.942-12.664-109.25-32.714v213.368c8.552-6.385 19.136-13.545 31.65-20.652l15.47-83.968c2.41-13.079 11.84-23.496 24.614-27.19 3.238-0.937 6.526-1.39 9.776-1.39 9.57 0 18.818 3.953 25.548 11.249l56.846 61.622c12.078-0.768 26.97-0.986 42.822 0.182l52.758-61.174c6.743-7.823 16.333-12.122 26.319-12.122 2.872 0 5.775 0.356 8.655 1.085 12.89 3.264 22.664 13.358 25.508 26.35l18.616 84.989c22.758 12.39 39.66 24.96 49.774 33.283 10.038-8.76 27.052-21.978 50.601-34.783l15.124-82.102c2.412-13.079 11.84-23.496 24.614-27.19 3.238-0.937 6.525-1.39 9.777-1.39 9.569 0 18.819 3.953 25.549 11.246l56.914 61.696c10.056-0.538 18.125-0.975 32.52-0.568l57.833-64.822c6.74-7.552 16.159-11.676 25.935-11.676 3.062 0 6.159 0.404 9.221 1.234 12.831 3.479 22.436 13.737 25.060 26.772l16.899 83.855c14.748 8.018 26.9 16.358 36.457 23.818v-194.504c-3.108-1.344-6.139-2.767-9.068-4.273-22.1-11.379-48.489-11.374-70.589-0.003zM834.862 282.954v40.32h97.359v-39.68c-28.193 6.413-66.035 6.973-97.359-0.64zM962.22 274.24v212.616h31.782v-230.925c-8.975 7.112-19.684 13.292-31.782 18.309z" />
<glyph unicode="&#xe913;" glyph-name="dinner-table" d="M905.6 316.022l-21.322 318.643c-4.362 65.167-58.939 116.215-124.255 116.215h-33.958v71.552c20.974 6.358 36.288 25.862 36.288 48.884v60.618c-0.003 15.476-12.593 28.066-28.068 28.066h-46.444c-15.475 0-28.065-12.59-28.065-28.066v-60.618c0-23.022 15.314-42.526 36.288-48.884v-71.55h-45.23l-32.369 81.992c-5.524 13.992-18.811 23.034-33.856 23.034h-148.915c-3.277 0.124-10.86-2.348-13.353-8.162l-49.61-96.864h-44.782v71.55c20.974 6.358 36.288 25.862 36.288 48.884v60.618c0 15.476-12.59 28.066-28.068 28.066h-46.441c-15.475 0-28.065-12.59-28.065-28.066v-60.618c0-23.022 15.314-42.526 36.288-48.884v-71.55h-32.438c-65.003 0-119.563-50.791-124.211-115.626l-22.884-319.165c-0.932-42.642 34.82-79.165 78.064-79.176 25.892 0 48.884 12.667 63.102 32.128 14.218-19.461 37.207-32.128 63.104-32.128 25.892 0 48.883 12.667 63.101 32.128 16.008-22.136 46.305-36.416 76.396-30.973v-200.013h-66.194c-38.469 0.195-70.52-33.157-68.728-72.333 0-16.389 13.335-29.724 29.724-29.724h310.036c16.392 0 29.724 13.335 29.724 29.724 2.084 38.108-29.604 72.486-68.726 72.333h-81.157c-0.010 0-0.026 0.003-0.036 0.003h-54.641v211.996c7.662 5.125 14.38 11.556 19.809 18.988 5.435-7.439 12.16-13.875 19.83-19v-155.692c0-8.284 6.715-14.999 15.002-14.999 8.284 0 14.999 6.715 14.999 14.999v143.716c26.89-5.594 60.767 8.2 76.375 30.976 14.218-19.461 37.21-32.128 63.104-32.128 25.892 0 48.886 12.669 63.104 32.131 14.223-19.461 37.22-32.131 63.122-32.131 42.084-0.195 78.958 35.648 78.067 79.107zM689.777 871.316v58.684h42.573v-58.684c0-11.622-9.457-21.076-21.076-21.076h-0.42c-11.622 0-21.076 9.456-21.076 21.076zM291.661 871.316v58.684h42.575v-58.684c0-11.622-9.457-21.076-21.079-21.076h-0.417c-11.622 0-21.079 9.456-21.079 21.076zM666.747-30.669v-3.331h-309.484c-1.828 21.023 16.128 42.189 38.728 42.058h232.031c21.353 0 38.725-17.372 38.725-38.728zM590.559 821.858l28.022-70.976h-131.223l-29.617 75.026h126.868c2.644-0.002 4.982-1.592 5.949-4.050zM433.923 804.542l21.181-53.66h-48.668l27.487 53.66zM827.53 266.916c-26.537 0-48.125 21.578-48.125 48.105v71.892c0 8.287-6.712 15.002-14.999 15.002s-14.999-6.715-14.999-15.002v-71.892c0-26.527-21.578-48.105-48.102-48.105-26.527 0-48.105 21.578-48.105 48.105v168.819c0 8.287-6.712 14.999-14.999 14.999s-15.002-6.712-15.002-14.999v-168.819c0-26.527-21.578-48.105-48.102-48.105s-48.102 21.578-48.102 48.105v168.819c0 8.287-6.715 14.999-14.999 14.999-8.287 0-15.002-6.712-15.002-14.999v-168.819c0-26.527-21.578-48.105-48.102-48.105s-48.105 21.578-48.105 48.105v168.819c0 8.287-6.715 14.999-14.999 14.999-8.287 0-15.002-6.712-15.002-14.999v-168.819c0-26.527-21.578-48.105-48.102-48.105s-48.102 21.578-48.102 48.105v175.411c0 8.287-6.715 14.999-15.002 14.999-8.285 0-14.999-6.712-14.999-14.999v-175.411c0-26.527-21.578-48.105-48.102-48.105-26.358 0-47.832 21.307-48.102 47.603l22.842 318.592c3.53 49.216 44.948 87.771 94.292 87.771h494.51c49.58 0 91.008-38.749 94.318-88.219l21.289-318.111c-0.248-26.312-21.729-47.636-48.097-47.636zM764.401 498.801c-8.287 0-15.002-6.715-15.002-15.002v-26.368c0-8.287 6.715-15.002 15.002-15.002 8.284 0 14.999 6.715 14.999 15.002v26.368c0 8.284-6.715 15.002-14.999 15.002z" />
<glyph unicode="&#xe914;" glyph-name="double-angle" d="M987.511 486.183c21.094-21.1 21.094-55.54 0-76.64l-413.311-413.297c-21.134-21.129-55.51-21.129-76.641 0l-23.119 23.125c-21.152 21.146-21.156 55.509-0.003 76.663l313.53 313.499c21.157 21.152 21.157 55.517 0 76.669l-313.527 313.502c-21.156 21.154-21.154 55.51 0.003 76.664l23.119 23.119c21.1 21.1 55.54 21.1 76.64 0l413.309-413.304zM136.444 899.491c-21.122 21.124-55.531 21.121-76.653 0l-23.119-23.119c-21.112-21.112-21.114-55.552 0-76.666l313.513-313.504c21.154-21.154 21.154-55.514 0-76.669l-313.516-313.499c-21.121-21.12-21.119-55.552 0-76.672l23.119-23.117c21.131-21.129 55.521-21.129 76.652 0l376.595 376.608c105.64-105.534 78.919-78.771 0.078 0.077l36.61 36.612c21.114 21.114 21.112 55.529 0 76.643l-413.28 413.306z" />
<glyph unicode="&#xe915;" glyph-name="double-angle-down" d="M459.429 395.429l-365.714 365.714c-29.714 27.429-29.714 75.429 0 102.857 27.429 29.714 75.429 29.714 102.857 0l315.429-313.143 313.139 313.143c27.429 29.714 75.432 29.714 102.861 0 29.718-27.429 29.718-75.429 0-102.857l-365.714-365.714c-13.714-13.714-32-20.571-50.286-20.571-20.571 0-38.857 6.857-52.571 20.571zM825.139 425.143c27.429 29.714 75.432 29.714 102.861 0 29.718-27.429 29.718-75.429 0-102.857l-365.714-365.718c-13.714-13.707-32-20.568-50.286-20.568-20.571 0-38.857 6.861-52.571 20.568l-365.714 365.718c-29.714 27.429-29.714 75.429 0 102.857 27.429 29.714 75.429 29.714 102.857 0l315.429-313.147 313.139 313.147z" />
<glyph unicode="&#xe916;" glyph-name="download" d="M960 256c34.002 0 64-29.998 64-64v-192c0-35.999-29.998-64-64-64h-896c-36 0-64 28.001-64 64v192c0 34.002 28 64 64 64h266l90-92.001c24.001-23.997 56.001-35.999 92-35.999 34.002 0 66.002 12.001 89.999 35.999l89.999 92.001h268.001zM864 48c25.999 0 48 19.999 48 48 0 25.999-22.001 48-48 48-28.001 0-48-22.001-48-48 0-28.001 19.999-48 48-48zM466 210.002l-256 255.998c-26 24-26 66 0 90 24 26 66 26 90 0l148-146.001v486.001c0 34 28 64 64 64 34.002 0 64-30 64-64v-486.001l146.002 146.001c23.997 26 65.997 26 89.999 0 25.999-24.001 25.999-66 0-90l-256-255.998c-12.001-12.001-28.001-18.002-44.001-18.002-18 0-34 6.001-46 18.002z" />
<glyph unicode="&#xe917;" glyph-name="envelop" horiz-adv-x="1303" d="M1181.091 913.455c66.178 0 122.182-56 122.182-122.182 0-40.727-20.368-76.363-50.911-99.273l-552.361-414.909c-30.545-22.909-68.727-22.909-99.273 0l-552.363 414.909c-30.545 22.91-48.364 58.546-48.364 99.273 0 66.182 53.455 122.182 122.182 122.182h1058.909zM552.363 210.909c58.546-43.272 137.455-43.272 196 0l554.909 417.455v-529.455c0-91.639-73.821-162.909-162.909-162.909h-977.455c-91.636 0-162.909 71.27-162.909 162.909v529.455l552.363-417.455z" />
<glyph unicode="&#xe918;" glyph-name="facebook" horiz-adv-x="634" d="M531.383 387.048h-142.859v-426.667h-190.476v426.667h-156.19v175.238h156.19v135.238c0 152.381 91.429 238.095 230.477 238.095 66.668 0 137.143-13.333 137.143-13.333v-150.476h-78.096c-76.19 0-99.048-45.714-99.048-95.238v-114.286h169.522l-26.663-175.238z" />
<glyph unicode="&#xe919;" glyph-name="fi" d="M607.266 526.406l373.009 433.594h-88.388l-323.887-376.484-258.686 376.484h-298.363l391.184-569.31-391.184-454.69h88.397l342.031 397.579 273.191-397.579h298.365l-405.669 590.406zM486.195 385.673l-354.997 507.784h135.772l624.957-893.94h-135.771l-269.961 386.156z" />
<glyph unicode="&#xe91a;" glyph-name="instagram" horiz-adv-x="973" d="M499.15 652.4c126.002 0 230-104 230-230 0-128-103.997-230.001-230-230.001-128 0-230 102.001-230 230.001 0 126 102 230 230 230zM499.15 272.399c82.001 0 147.998 66.002 147.998 150.001 0 82-65.997 148-147.998 148-84 0-150-66-150-148 0-83.999 68-150.001 150-150.001zM791.148 660.4c0 30-23.997 54-53.996 54-30.003 0-54.001-23.999-54.001-54s23.997-54 54.001-54c29.998 0 53.996 24 53.996 54zM943.15 606.4c3.999-74 3.999-296 0-369.999-3.999-72.003-19.999-134.001-72.003-188.001-51.999-51.999-115.999-67.999-187.996-71.997-73.999-4.004-296.002-4.004-370.001 0-72 3.999-134 19.999-188 71.997-52 54.001-68 115.999-72 188.001-4 73.999-4 295.999 0 369.999 4 72 20 136 72 188 54 52 116 68 188 72.001 74 4 296.002 4 370.001 0 71.997-4 135.997-20 187.996-72.001 52.004-52 68.004-116 72.003-188zM847.15 158.403c23.997 57.999 18.002 197.996 18.002 263.997 0 64 5.996 204-18.002 264-16 38-45.998 70-83.999 84-60.001 23.999-200.003 18-264.002 18-66 0-206 6-264-18-40-16-70-46-86-84-24-60-18-200-18-264 0-66.002-6-205.998 18-263.997 16-40.003 46-70.001 86-86.001 58-24.003 198-18.002 264-18.002 63.999 0 204-6.001 264.002 18.002 38.001 16 70.001 45.998 83.999 86.001z" />
<glyph unicode="&#xe91b;" glyph-name="ionic-ios-people" horiz-adv-x="1587" d="M1114.189 171.789c-39.314 14.019-103.475 14.968-131.914 25.595-21.896 5.696-42.573 15.332-61.018 28.439-7.752 32.668-11.108 66.227-9.979 99.784 14.62 14.029 26.465 30.682 34.926 49.093 8.484 31.596 14.111 63.887 16.814 96.492 0 0 23.148-9.979 32.279 36.47 7.734 39.916 22.451 61.018 18.609 90.504-3.84 29.489-20.355 22.454-20.355 22.454 17.91 41.272 24.919 86.455 20.355 131.215-0.271 28.807-6.469 57.251-18.207 83.56s-28.764 49.921-50.020 69.366c-21.258 19.445-46.287 34.307-73.536 43.662-27.246 9.355-56.128 13.002-84.846 10.714-28.723 2.289-57.608-1.338-84.874-10.659-27.264-9.32-52.326-24.135-73.636-43.528s-38.415-42.952-50.258-69.219c-11.843-26.268-18.168-54.685-18.588-83.496-4.518-44.722 2.348-89.86 19.955-131.217 0 0-16.463 7.035-20.355-22.451-3.894-29.486 10.575-50.888 18.509-90.803 9.132-46.648 32.279-36.47 32.279-36.47 2.732-32.599 8.358-64.891 16.814-96.492 8.461-18.412 20.308-35.064 34.926-49.093 1.129-33.556-2.227-67.116-9.979-99.784-18.394-13.117-39.094-22.648-61.018-28.091-28.040-10.875-92.252-12.273-131.914-26.291-47.826-17.925-88.934-50.199-117.696-92.403s-43.766-92.273-42.957-143.337h975.987c0.96 51.082-13.942 101.207-42.65 143.47s-69.814 74.586-117.655 92.518v0zM380.675 342.702c41.216 0.556 81.58 11.799 117.148 32.63-54.382 82.422-24.947 178.563-36.122 268.37-0.55 20.431-5.327 40.53-14.031 59.026-8.704 18.494-21.143 34.986-36.536 48.434s-33.405 23.561-52.902 29.702c-19.497 6.141-40.054 8.176-60.375 5.977h-1.398c-20.201 1.919-40.583-0.323-59.885-6.589s-37.114-16.421-52.337-29.84c-15.223-13.418-27.534-29.815-36.173-48.177s-13.422-38.303-14.053-58.586c-11.226-89.457 19.957-196.475-35.773-268.367 35.677-20.49 76.379-30.584 117.496-29.138v0c2.129-19.699 0.949-39.613-3.493-58.924-12.074-10.058-26.608-16.722-42.109-19.308-30.747-6.651-61.082-15.081-90.853-25.244-23.853-12.467-43.846-31.214-57.818-54.216-13.972-23.004-21.393-49.388-21.46-76.303h281.741c25.608 45.752 64.85 82.378 112.256 104.773 27.474 11.512 56.881 17.708 86.661 18.26 0 0 13.322 21.056-30.533 29.138-23.309 5.117-45.921 13.007-67.354 23.498-6.687 7.485-2.097 54.881-2.097 54.881zM1194.522 342.702c-41.216 0.556-81.58 11.799-117.146 32.63 54.382 82.422 24.945 178.563 36.122 268.37 0.548 20.431 5.327 40.53 14.029 59.026 8.704 18.494 21.143 34.986 36.539 48.434 15.393 13.448 33.405 23.561 52.902 29.702 19.494 6.141 40.051 8.176 60.375 5.977h1.395c20.204 1.919 40.584-0.323 59.886-6.589 19.3-6.265 37.112-16.421 52.337-29.84s27.535-29.815 36.173-48.177c8.64-18.363 13.422-38.303 14.054-58.586 11.226-89.457-19.958-196.475 35.771-268.367-35.676-20.49-76.378-30.584-117.494-29.138v0c-2.13-19.699-0.95-39.613 3.492-58.924 12.076-10.058 26.609-16.722 42.109-19.308 30.746-6.651 61.082-15.081 90.852-25.244 23.854-12.467 43.848-31.214 57.82-54.216 13.972-23.004 21.391-49.388 21.458-76.303h-281.738c-25.61 45.752-64.85 82.378-112.259 104.773-27.471 11.512-56.881 17.708-86.661 18.26 0 0-13.322 21.056 30.533 29.138 23.309 5.117 45.921 13.007 67.354 23.498 6.687 7.485 2.097 54.881 2.097 54.881z" />
<glyph unicode="&#xe91c;" glyph-name="linkedin-in" d="M267.077-64h-200.307v644h200.307v-644zM165.846 666.154c-62.462 0-114.154 53.846-114.154 118.462 0 88.307 94.77 144.308 172.308 99.077 36.615-19.384 58.154-58.154 58.154-99.077 0-64.616-51.692-118.462-116.307-118.462zM1014.461-64h-198.152v312.307c0 75.385-2.158 170.154-105.54 170.154-103.385 0-118.462-79.692-118.462-163.692v-318.77h-200.308v644h191.693v-88.307h2.154c28 49.538 92.615 103.385 189.538 103.385 202.464 0 241.227-133.538 241.227-305.846v-353.231h-2.15z" />
<glyph unicode="&#xe91d;" glyph-name="linkedin-in-2" d="M896 910.769c36.612 0 68.923-32.308 68.923-71.077v-824.923c0-38.77-32.311-68.923-68.923-68.923h-829.231c-36.615 0-66.769 30.153-66.769 68.923v824.923c0 38.769 30.154 71.077 66.769 71.077h829.231zM290.77 83.692v458.769h-142.154v-458.769h142.154zM219.692 607.077c45.231 0 81.846 36.616 81.846 81.846s-36.615 84-81.846 84c-47.384 0-84-38.769-84-84s36.615-81.846 84-81.846zM827.077 83.692v252c0 122.769-28.002 219.692-172.308 219.692-68.923 0-116.307-38.769-135.693-75.385h-2.154v62.462h-135.693v-458.769h142.154v226.154c0 60.308 10.769 118.462 86.154 118.462 73.231 0 73.231-68.923 73.231-120.615v-224h144.308z" />
<glyph unicode="&#xe91e;" glyph-name="location" d="M990.367 0.762l-75.455 299.618c-5.805 23.156-26.549 39.331-50.449 39.331h-49.236c-8.283 0-14.998-6.713-14.998-15 0-8.285 6.715-14.998 14.998-14.998h49.236c10.117 0 18.896-6.836 21.354-16.641l35.31-140.215h-183.121c-16.798 0-33.36 2.958-49.207 8.793l-24.694 9.111c19.399 26.319 38.992 55.382 57.795 85.891 85.438 138.62 136.447 272.086 136.447 357.014 0 87.823-32.925 171.584-92.713 235.849-5.643 6.066-15.135 6.406-21.199 0.766-6.067-5.642-6.408-15.134-0.765-21.2 54.604-58.695 84.676-135.2 84.676-215.415 0-93.732-68.18-237.75-131.989-341.274-53.239-86.496-137.1-197.957-184.35-204.77-51.519 8.267-142.363 137.368-183.888 204.782-64.030 103.663-132.451 247.749-132.451 341.263 0.004 174.426 141.91 316.335 316.343 316.335 64.466 0 126.482-19.266 179.346-55.715 6.82-4.706 16.163-2.982 20.865 3.834 4.704 6.82 2.986 16.162-3.834 20.866-57.892 39.915-125.8 61.015-196.376 61.015-190.974 0-346.339-155.367-346.339-346.337 0-67.636 32.628-166.309 89.374-273.954h-95.49c-23.9 0-44.645-16.172-50.445-39.312l-75.459-299.629c-3.952-15.66-0.524-31.953 9.404-44.694 9.928-12.748 24.888-20.054 41.041-20.054h855.825c31.776-0.912 58.969 32.079 50.445 64.744zM645.111 145.79l33.312-12.293c19.19-7.061 39.235-10.643 59.583-10.643h190.664l13.464-53.48h-213.229c-16.88 0-33.503 2.99-49.407 8.884l-69.607 25.793c9.619 10.468 23.309 26.581 35.219 41.738zM138.205 293.085c2.454 9.792 11.234 16.625 21.35 16.625h111.789c9.828-17.545 20.252-35.264 31.255-53.075 3.049-4.938 6.126-9.821 9.214-14.68l-60.163-121.248-42.913 54.249c-13.216 16.707-33.017 26.292-54.329 26.292h-39.329l23.127 91.837zM66.725-25.493c-4.204 5.395-5.654 12.293-3.98 18.928l44.779 177.812h46.885c12.082 0 23.308-5.432 30.799-14.903l51.697-65.354-62.013-124.974h-90.794c-6.838 0-13.172 3.095-17.374 8.49zM208.384-33.983l122.464 246.807c9.259-13.756 18.584-27.038 27.869-39.702l-47.061-94.861c-3.682-7.418-0.649-16.42 6.772-20.102 2.144-1.063 4.417-1.568 6.654-1.568 5.52 0 10.829 3.058 13.451 8.34l40.434 81.501c31.248-42.803 100.839-113.687 133.045-108.815 20.091 0 44.772 14.104 74.977 42.931l82.086-30.417c19.249-7.136 39.381-10.757 59.831-10.757h60.004l-29.58-73.357h-469.873l17.654 35.583c3.682 7.418 0.649 16.42-6.772 20.102-7.423 3.68-16.423 0.651-20.105-6.772l-24.264-48.913h-47.586zM957.297-25.493c-4.203-5.395-10.536-8.49-17.374-8.49h-148.243l29.578 73.359h128.453l11.571-45.95c1.67-6.626 0.218-13.524-3.984-18.919zM512.020 886.133c-150.223 0-272.439-122.214-272.439-272.439 0-60.091 19.258-117.107 55.692-164.878 112.249-147.294 328.474-139.178 433.498 0 36.434 47.775 55.69 104.789 55.69 164.878 0 150.223-122.218 272.439-272.441 272.439zM505.349 371.348c-60.154 1.616-121.337 26.226-165.262 71.559h343.871c-45.611-46.119-110.731-74.040-178.608-71.559zM494.813 713.25l23.334-27.794c3.57-4.239 5.536-9.637 5.536-15.198v-25.514c-3.796-2.54-6.915-6.11-8.959-10.483-4.258-9.118-2.892-19.572 3.568-27.291l58.707-70.133v-63.929h-23.318v54.34c0 8.285-6.717 14.998-15 14.998s-15-6.713-15-14.998v-54.34h-99.499v197.35c0 5.546 1.973 10.95 5.548 15.212l23.32 27.78c2.269 2.701 3.513 6.119 3.513 9.644v53.821c0 3.518 2.86 6.38 6.378 6.38h22c3.507 0 6.36-2.864 6.36-6.38v-53.819c0-3.527 1.242-6.943 3.511-9.646zM591.995 565.658l-44.692 53.387h89.379l-44.687-53.387zM709.229 472.908h-102.236v63.929l58.707 70.133c6.458 7.716 7.826 18.175 3.568 27.291-4.258 9.118-13.155 14.782-23.217 14.782h-92.369v21.215c0 12.62-4.471 24.876-12.572 34.502l-19.809 23.595v48.36c0 20.060-16.311 36.38-36.359 36.38h-22c-20.059 0-36.379-16.32-36.379-36.38v-48.36l-19.811-23.6c-8.103-9.66-12.568-21.911-12.568-34.497v-197.352h-79.371c-29.594 41.267-45.231 89.773-45.231 140.789 0 133.681 108.758 242.439 242.44 242.439s242.44-108.758 242.44-242.439c0-51.011-15.635-99.517-45.231-140.786zM841.050 242.865c0 8.581-6.954 15.535-15.533 15.535-8.581 0-15.535-6.954-15.535-15.535 0-8.579 6.954-15.533 15.535-15.533 8.579 0 15.533 6.954 15.533 15.533z" />
<glyph unicode="&#xe91f;" glyph-name="magic-show" d="M789.19 558.232l-649.359 209.83c-21.446 6.924-44.53-4.878-51.46-26.328l-16.43-50.842c-6.428-18.464 4.028-44.813 26.328-51.462l61.724-19.945-154.635-478.545c-6.928-21.445 4.882-44.533 26.328-51.462l448.12-144.8c17.112-6.565 45.443 3.998 51.462 26.326l36.805 113.896c2.546 7.883-1.777 16.338-9.662 18.885-7.871 2.546-16.334-1.779-18.885-9.662l-36.803-113.898c-1.434-2.453-3.518-8.679-13.692-7.002l-448.121 144.803c-5.708 1.843-8.85 7.985-7.006 13.692l120.722 373.598 468.818-151.493-62.107-192.196c-2.546-7.883 1.777-16.338 9.662-18.885 7.876-2.553 16.336 1.775 18.883 9.662l96.019 297.142 61.724-19.945c4.162-1.345 8.381-1.982 12.538-1.982 17.256 0 33.337 11.025 38.923 28.31l16.43 50.843c6.931 21.443-4.879 44.526-26.326 51.459zM632.67 382.368l-468.819 151.491 24.686 76.4 468.819-151.491-24.685-76.4zM786.974 515.996l-16.432-50.845c-1.843-5.707-7.98-8.85-13.69-7.004l-649.359 209.831c-2.454 1.429-8.682 3.518-7.006 13.69l16.43 50.843c1.844 5.708 7.988 8.846 13.692 7.006l649.358-209.831c5.705-1.843 8.847-7.987 7.006-13.69zM1005.625 515.047c8.285 0 15 6.715 15 15v93.273c0 18.314-14.9 33.214-33.214 33.214h-38.577c-18.314 0-33.214-14.9-33.214-33.214v-654.058c0-18.314 14.9-33.214 33.214-33.214h38.577c18.314 0 33.214 14.9 33.214 33.214v488.5c0 8.285-6.715 15-15 15s-15-6.715-15-15v-488.503c0-1.773-1.44-3.213-3.213-3.213h-38.577c-1.775 0-3.215 1.443-3.215 3.213v545.787h60.006zM945.616 623.318c0 1.773 1.443 3.213 3.215 3.213h38.577c1.775 0 3.213-1.44 3.213-3.213v-78.27h-45.006v78.27zM495.2 737.877c1.577-0.53 3.181-0.78 4.758-0.78 6.276 0 12.124 3.966 14.222 10.246l29.321 87.65c2.628 7.856-1.609 16.356-9.466 18.982-7.851 2.632-16.354-1.61-18.98-9.466l-29.321-87.65c-2.631-7.856 1.607-16.356 9.466-18.982zM546.887 892.456c1.579-0.53 3.184-0.78 4.76-0.78 6.274 0 12.124 3.966 14.222 10.244l12.818 38.316c2.628 7.858-1.609 16.358-9.464 18.984-7.857 2.63-16.357-1.61-18.985-9.464l-12.816-38.316c-2.631-7.856 1.607-16.356 9.464-18.984zM384.828 775.669h0.091c8.285 0.048 14.96 6.804 14.912 15.088l-0.701 119.042c-0.048 8.254-6.754 14.912-14.998 14.912-0.030 0-0.059 0-0.089 0-8.285-0.048-14.96-6.804-14.912-15.088l0.699-119.042c0.050-8.254 6.754-14.912 14.998-14.912zM248.743 827.389c1.811-6.68 7.862-11.072 14.463-11.072 1.302 0 2.624 0.172 3.941 0.53 7.994 2.17 12.714 10.412 10.543 18.406l-12.527 46.122c-2.171 7.996-10.415 12.71-18.407 10.542-7.994-2.17-12.714-10.412-10.543-18.406l12.529-46.122zM605.992 701.693c2.715-2.071 5.912-3.072 9.084-3.072 4.519 0 8.988 2.034 11.94 5.905l72.185 94.659c5.024 6.588 3.757 16-2.831 21.024-6.59 5.026-15.999 3.756-21.024-2.832l-72.187-94.66c-5.022-6.588-3.755-15.999 2.833-21.024zM736.718 657.945c3.213 0 6.451 1.029 9.189 3.149l37.756 29.302c6.542 5.079 7.73 14.502 2.651 21.047-5.079 6.542-14.5 7.728-21.047 2.651l-37.756-29.3c-6.542-5.079-7.732-14.502-2.651-21.047 2.956-3.809 7.382-5.803 11.858-5.803zM831.361 886.983c-5.857 5.86-15.355 5.858-21.21 0.002l-12.541-12.54-12.541 12.54c-5.855 5.856-15.353 5.858-21.213-0.002-5.857-5.858-5.857-15.356 0.002-21.212l12.538-12.538-12.538-12.538c-5.86-5.858-5.86-15.356-0.002-21.212 2.931-2.93 6.77-4.394 10.609-4.394s7.678 1.464 10.606 4.392l12.541 12.54 12.538-12.54c2.929-2.928 6.77-4.392 10.606-4.392 3.839 0 7.678 1.464 10.609 4.394 5.857 5.858 5.857 15.356-0.002 21.212l-12.538 12.538 12.538 12.538c5.857 5.856 5.857 15.354-0.002 21.212zM936.555 740.173c8.495 0 15.38 6.886 15.38 15.38s-6.886 15.38-15.38 15.38c-8.495 0-15.38-6.886-15.38-15.38s6.886-15.38 15.38-15.38z" />
<glyph unicode="&#xe921;" glyph-name="modern-cos" d="M1008.996 386.977h-79.713c-8.287 0-14.999-6.715-14.999-15.002 0-8.284 6.712-14.999 14.999-14.999h64.714v-364.122c0-10.342-8.417-18.76-18.76-18.76h-926.477c-10.344 0-18.76 8.417-18.76 18.76v205.88l285.919-0.020c72.415 0 142.016 30.62 190.956 84.004 33.226 36.298 79.447 62.326 130.102 70.932v-202.245c0-21.87-11.651-42.45-30.403-53.704l-42.122-25.28c-9.431-5.66-13.793-16.589-10.857-27.19 2.934-10.604 12.301-17.725 23.301-17.725h209.892c11 0 20.365 7.124 23.301 17.725 2.936 10.598-1.426 21.53-10.86 27.19l-42.117 25.28c-18.755 11.254-30.405 31.834-30.405 53.704v205.571h130.668c8.287 0 14.999 6.715 14.999 14.999 0 8.287-6.712 15.002-14.999 15.002h-130.668v28.672l44.145 55.278c39.908 13.217 86.001 18.604 127.849 6.070l106.22-29.957c1.362-0.381 2.732-0.566 4.081-0.566 6.546 0 12.562 4.319 14.428 10.931 2.25 7.974-2.391 16.261-10.365 18.511l-106.222 29.957c-34.176 9.633-70.085 11.005-104.788 4.127l56.307 70.513c80.722-7.427 153.879 59.052 153.091 141.006-0.079 77.882-63.457 141.218-141.358 141.218-48.174 0-92.575-24.182-118.774-64.686-4.498-6.958-2.506-16.242 4.449-20.742 6.956-4.502 16.246-2.508 20.744 4.45 17.892 27.664 46.556 45.64 78.584 49.952v-95.34h-338.752c-19.848 0-35.996-16.148-35.996-35.996v-51.502c0-22.492 7.731-44.557 21.765-62.129l61.453-76.956c-34.547 6.382-70.113 4.608-104.072-5.358l-83.597-24.535c-15.726 36.524-52.063 62.164-94.287 62.164h-108.545l9.824 101.169c2.954 50.962 36.788 92.533 65.554 128.589-3.726-25.744-13.778-71.621-12.826-98.342l0.814-76.718c0.088-8.228 6.788-14.838 14.996-14.838h0.164c8.285 0.087 14.928 6.874 14.841 15.158l-0.817 76.846c-1.155 16.904 6.264 54.898 9.027 72.382l95.475-78.183c13.747-13.053 43.241-2.419 42.332 20.838l-1.426 47.137c-0.271 33.434-25.8 62.462-57.482 73.038l113.989 94.838c6.825 5.68 9.613 14.528 7.273 23.094-2.34 8.564-9.236 14.768-18.002 16.188l-46.845 7.586c-28.813 4.67-58.417-6.28-77.266-28.568l-53.251-62.984-7.212 24.242c-6.083 20.442-19.055 38.434-36.527 50.664l-19.082 13.358c-6.786 4.75-16.14 3.098-20.89-3.688-4.75-6.788-3.1-16.138 3.688-20.89l19.082-13.358c11.946-8.362 20.814-20.664 24.974-34.64l5.726-19.248-65.194 29.702c-28.518 12.99-61.388 10.796-87.928-5.878l-38.156-23.98c-14.75-8.694-13.174-34.714 6.292-40.024l150.572-38.31c-30.992-36.58-58.178-81.487-61.756-131.113l-10.106-104.067h-40.314c-56.578-0.003-102.61-46.031-102.61-102.612v-62.006c0-8.284 6.714-14.999 15-14.999h332.512c20.242 0 36.708 16.466 36.708 36.708-0.323 18.911 0.765 33.879-0.653 51.727l84.378 24.765c39.928 12.572 86.743 8.891 126.884-5.007l42.148-52.777v-33.838c-55.872-8.072-113.073-37.596-152.212-81.027-43.274-47.206-104.814-74.276-168.842-74.276l-300.918 0.020c-3.978 0-7.794-1.58-10.608-4.393-2.816-2.813-4.396-6.628-4.396-10.609v-220.879c0-26.885 21.874-48.76 48.76-48.76h926.477c26.885 0 48.758 21.875 48.758 48.76v379.118c0 8.287-6.712 15.002-14.999 15.002zM381.041 735.191l1.152-38.185-101.919 83.459 4.352 26.38 68.682-30.418c16.307-7.222 27.192-23.41 27.732-41.236zM355.602 902.9c12.088 14.298 31.081 21.326 49.559 18.326l30.303-4.908-112.532-93.628-25.572 11.326 58.243 68.884zM89.598 840.046l22.444 14.104c17.966 11.292 40.22 12.778 59.528 3.98l78.026-35.548-14.926-19.444-145.071 36.908zM354.22 399.15c0-3.699-3.008-6.707-6.707-6.707h-317.512v47.004c0 40.038 32.572 72.612 72.61 72.612h179.003c40.038 0 72.609-32.573 72.609-72.612v-40.297h-0.003zM877.268 610.271c5.11 12.16 7.831 25.303 7.831 38.6v57.499h95.319c-7.040-52.005-50.089-92.706-103.15-96.098zM980.419 736.369h-95.319v95.327c49.423-6.69 88.635-45.904 95.319-95.327zM525.555 605.46c-9.807 12.278-15.209 27.697-15.209 43.41v51.502c0 3.308 2.691 5.997 5.996 5.997h338.757v-57.499c0-15.713-5.399-31.132-15.206-43.41l-139.904-175.199c-2.125-2.655-3.282-5.957-3.282-9.359v-269.496c0-32.346 17.229-62.779 44.964-79.427l24.113-14.469h-167.885l24.113 14.469c27.735 16.648 44.964 47.081 44.964 79.427v271.706c0 3.402-1.157 6.702-3.282 9.359l-138.138 172.989zM238.911 278.792c20.519-5.972 41.665-8.963 62.828-8.963 20.058 0 40.131 2.688 59.686 8.064l52.8 14.543c7.987 2.199 12.682 10.458 10.478 18.445-2.199 7.985-10.45 12.68-18.442 10.478l-52.795-14.541c-34.824-9.569-71.539-9.303-106.172 0.781l-41.5 12.078c-7.946 2.324-16.278-2.255-18.594-10.209-2.314-7.954 2.256-16.279 10.21-18.593l41.5-12.083zM14.993 282.458c0.102 0 0.204 0 0.304 0.003 19.758 0.397 39.376-2.207 58.33-7.726l41.5-12.078c1.398-0.41 2.81-0.602 4.2-0.602 6.498 0 12.486 4.257 14.394 10.811 2.314 7.954-2.256 16.279-10.21 18.593l-41.498 12.081c-21.874 6.369-44.532 9.39-67.31 8.914-8.284-0.164-14.866-7.012-14.7-15.293 0.162-8.182 6.844-14.702 14.99-14.702zM682.729 465.787c4.562 0 8.878 2.076 11.722 5.642l122.004 152.778c5.578 6.984 8.65 15.757 8.65 24.696v12.498c0 8.287-6.715 15.002-14.999 15.002h-184.481c-8.287 0-14.999-6.715-14.999-15.002s6.712-14.999 14.999-14.999h169.147c-0.343-1.26-0.94-2.447-1.759-3.471l-110.285-138.104-110.29 138.104c-1.347 1.69-2.089 3.812-2.089 5.972v12.498c0 8.287-6.715 15.002-14.999 15.002-8.287 0-15.002-6.715-15.002-15.002v-12.498c0-8.94 3.069-17.708 8.648-24.691l122.010-152.783c2.849-3.566 7.163-5.642 11.722-5.642zM257.449 50.168c0-8.581 6.958-15.534 15.534-15.534 8.579 0 15.534 6.953 15.534 15.534 0 8.579-6.953 15.534-15.534 15.534-8.579 0-15.534-6.956-15.534-15.534zM351.25 50.168c0-8.581 6.953-15.534 15.534-15.534s15.534 6.953 15.534 15.534c0 8.579-6.953 15.534-15.534 15.534-8.579 0-15.534-6.956-15.534-15.534zM305.9 111.268c0-8.581 6.956-15.534 15.534-15.534 8.581 0 15.534 6.953 15.534 15.534s-6.953 15.534-15.534 15.534c-8.579 0-15.534-6.953-15.534-15.534z" />
<glyph unicode="&#xe922;" glyph-name="paper-plan" d="M967.24 890.353c15.059-9.412 22.588-26.353 16.938-43.294l-120.471-813.176c-1.879-13.179-9.409-26.353-22.588-31.997-5.644-3.771-13.173-7.529-20.703-7.529s-13.179 1.879-18.824 3.759l-184.471 79.065-208.942-135.529c-7.529-3.771-16.941-5.65-24.471-5.65-5.647 0-13.176 1.879-20.706 3.765-15.059 9.415-22.588 24.474-22.588 41.412v212.703l-289.882 120.471c-15.059 7.529-26.353 22.588-26.353 39.532-1.882 16.941 7.529 33.882 22.588 41.412l873.41 496.941c15.059 9.412 33.882 7.529 47.062-1.882zM718.77 673.882l-547.766-310.588 195.765-82.821 352.001 393.409zM428.886 64l86.588 54.585-86.588 37.647v-92.232zM784.649 105.412l90.353 608-421.645-468.706 331.292-139.294z" />
<glyph unicode="&#xe923;" glyph-name="party-blower" d="M467.026 336.796c-5.86-5.86-5.86-15.362 0-21.22 5.864-5.86 15.362-5.86 21.224 0l425.051 425.052c24.278 24.278 37.649 56.557 37.649 90.892s-13.371 66.613-37.649 90.892c-47.213 49.436-134.927 50.795-183.544 0l-87.534-87.534c-35.685-35.685-35.683-93.751 0.002-129.435 14.614-14.486 36.302-25.937 60.289-26.704l-327.771-327.773-24.74 24.742c-11.382 11.519-34.486 14.684-49.134 0l-54.215-54.217c-13.546-13.546-13.546-35.585 0-49.129l0.157-0.159-208.194-208.193c-5.86-5.862-5.86-15.365 0-21.222 5.863-5.86 15.362-5.86 21.223 0l79.537 79.54 40.243-122.097-38.612-38.612c-5.86-5.862-5.86-15.362 0-21.222 2.931-2.929 6.773-4.396 10.612-4.396s7.681 1.465 10.613 4.396l208.194 208.195 0.162-0.162c6.774-6.772 15.669-10.158 24.565-10.158s17.793 3.386 24.565 10.158l54.217 54.217c13.544 13.546 13.544 35.585 0 49.132l-77.972 77.97 448.774 448.769c20.769 20.769 20.769 54.561 0 75.329-18.446 19.178-54.475 21.509-75.325 0l-74.176-74.173c-5.86-5.86-5.86-15.362 0-21.221 5.864-5.86 15.362-5.86 21.224 0l41.545 41.545c6.21-9.434 9.546-20.477 9.546-32.033 0-15.6-6.076-30.269-17.11-41.301-11.617-11.619-27.063-18.016-43.493-18.016-13.462-0.107-31.435 5.737-43.509 18.029-23.973 23.984-23.968 63 0.011 86.98l87.536 87.534c35.986 37.676 103.504 39.232 141.1 0 18.609-18.61 28.856-43.352 28.856-69.669s-10.247-51.061-28.859-69.669l-425.058-425.059zM163.409 146.357l51.615 51.614 40.252-122.084-51.889-51.889-40.243 122.095 0.264 0.264zM279.042 99.653l-40.255 122.084 29.245 29.245 81.169-81.169-70.16-70.16zM452.71 223.869l-54.215-54.217c-1.841-1.845-4.845-1.841-6.686 0l-123.931 123.931c-1.845 1.843-1.845 4.842 0 6.688l54.217 54.215c1.277-0.287-0.237 2.976 6.683 0l123.931-123.931c1.843-1.845 1.843-4.845 0-6.686zM779.505 821.5l11.125 11.125c7.345 7.225 22.492 10.176 32.886 0 9.068-9.066 9.068-23.82 0-32.885l-26.151-26.151c-1.097 17.529-7.286 34.070-17.861 47.912zM520.522 846.044c7.097-7.095 16.527-11 26.558-11s19.465 3.908 26.558 11l23.939 23.942c7.095 7.093 11.002 16.525 11.002 26.559 0 10.032-3.907 19.466-11 26.557l-23.939 23.942c-7.095 7.093-16.527 11.001-26.558 11.001s-19.463-3.906-26.558-11.001l-23.943-23.942c-14.641-14.644-14.641-38.474 0-53.116l23.941-23.942zM517.805 901.881l23.939 23.94c1.925 1.923 4.171 2.211 5.338 2.211s3.411-0.288 5.334-2.209l23.943-23.942c1.923-1.923 2.21-4.168 2.21-5.336 0-1.166-0.287-3.413-2.21-5.336l-23.943-23.942c-1.923-1.923-4.167-2.209-5.334-2.209s-3.413 0.288-5.338 2.211l-23.939 23.942c-2.945 2.939-2.945 7.727 0 10.67zM729.42 443.076l-29.93-29.93c-5.864-5.86-5.864-15.36-0.002-21.22 2.931-2.931 6.77-4.396 10.611-4.396s7.682 1.465 10.611 4.396l29.933 29.93c5.862 5.86 5.862 15.36 0.002 21.22-5.862 5.862-15.365 5.862-21.224 0zM912.234 625.917l-134.372-134.374c-5.862-5.862-5.862-15.362 0-21.222 2.931-2.929 6.77-4.396 10.613-4.396 3.839 0 7.68 1.465 10.611 4.396l134.372 134.374c5.862 5.86 5.862 15.362 0 21.222-5.864 5.86-15.365 5.86-21.224 0zM566.563 610.026c8.499 0 15.387 6.89 15.387 15.387s-6.888 15.387-15.387 15.387c-8.497 0-15.385-6.89-15.385-15.387s6.888-15.387 15.385-15.387zM974.409 704.25c8.497 0 15.385 6.888 15.385 15.385 0 8.499-6.888 15.387-15.385 15.387s-15.387-6.888-15.387-15.387c0-8.497 6.89-15.385 15.387-15.385zM946.683 419.963l-12.543 12.543 12.543 12.545c5.86 5.86 5.86 15.362 0 21.22-5.864 5.86-15.362 5.86-21.224 0l-12.543-12.543-12.543 12.543c-5.86 5.86-15.36 5.862-21.222 0-5.862-5.86-5.862-15.362 0-21.22l12.543-12.545-12.543-12.543c-5.862-5.86-5.862-15.362 0-21.22 2.931-2.931 6.772-4.396 10.611-4.396 3.841 0 7.682 1.465 10.613 4.396l12.543 12.543 12.543-12.543c2.931-2.931 6.772-4.396 10.613-4.396 3.839 0 7.68 1.465 10.611 4.396 5.857 5.86 5.857 15.362-0.002 21.22zM294.728 561.589c2.931-2.931 6.774-4.396 10.613-4.396s7.68 1.463 10.613 4.396l12.543 12.543 12.543-12.543c2.931-2.933 6.77-4.396 10.611-4.396s7.682 1.463 10.613 4.396c5.86 5.86 5.86 15.362 0 21.22l-12.543 12.543 12.543 12.543c5.86 5.862 5.86 15.362 0 21.222-5.862 5.86-15.362 5.86-21.222 0l-12.543-12.543-12.545 12.543c-5.86 5.86-15.36 5.86-21.222 0-5.86-5.86-5.86-15.362 0-21.222l12.543-12.543-12.543-12.543c-5.864-5.857-5.864-15.36-0.005-21.22zM426.628 603.564c8.29 0 15.007 6.72 15.007 15.007v61.090c0 8.288-6.717 15.005-15.007 15.005s-15.005-6.717-15.005-15.005v-61.090c0-8.288 6.717-15.007 15.005-15.007zM426.628 732.843c8.29 0 15.007 6.719 15.007 15.006v130.034c0 8.287-6.717 15.006-15.007 15.006s-15.005-6.719-15.005-15.006v-130.034c0-8.287 6.717-15.006 15.005-15.006zM845.332 315.733h-168.949c-8.29 0-15.005-6.72-15.005-15.007 0-8.285 6.715-15.005 15.005-15.005h168.949c8.29 0 15.005 6.72 15.005 15.005 0 8.288-6.715 15.007-15.005 15.007zM959.031 285.316c8.497 0 15.387 6.888 15.387 15.387 0 8.497-6.89 15.385-15.387 15.385s-15.385-6.888-15.385-15.385c0-8.499 6.888-15.387 15.385-15.387z" />
<glyph unicode="&#xe924;" glyph-name="pin" horiz-adv-x="723" d="M316.235 18.836c-97.882 122.35-316.235 414.116-316.235 579.764 0 199.529 160 361.412 361.412 361.412 199.529 0 361.412-161.883 361.412-361.412 0-165.647-220.235-457.414-318.118-579.764-22.588-28.238-65.882-28.238-88.471 0zM361.412 478.128c65.882 0 120.471 52.706 120.471 120.471 0 65.882-54.588 120.471-120.471 120.471-67.765 0-120.471-54.588-120.471-120.471 0-67.765 52.706-120.471 120.471-120.471z" />
<glyph unicode="&#xe925;" glyph-name="pinterest" horiz-adv-x="731" d="M388.524 922.286c179.045 0 342.856-123.809 342.856-312.381 0-177.143-91.429-375.238-293.332-375.238-49.524 0-108.571 24.761-133.334 68.569-41.905-171.427-40-198.090-135.238-329.523-9.524-3.808-7.619-3.808-13.333 3.813-3.81 36.191-7.619 70.476-7.619 106.667 0 116.19 53.333 285.711 80 398.093-15.238 30.476-19.047 64.762-19.047 97.143 0 152.381 179.047 175.238 179.047 49.524 0-74.286-51.428-144.762-51.428-217.144 0-47.621 41.905-81.905 89.523-81.905 131.427 0 171.426 188.573 171.426 289.525 0 135.238-95.237 209.524-226.664 209.524-150.476 0-266.667-108.571-266.667-260.952 0-74.286 45.714-112.384 45.714-129.523 0-15.238-11.428-66.667-30.476-66.667-45.714 0-120 76.19-120 209.524 0 211.428 192.381 340.952 388.571 340.952z" />
<glyph unicode="&#xe926;" glyph-name="quote" horiz-adv-x="1164" d="M675.421 407.759h294.828c-5.474-70.251-34.576-135.685-81.569-183.394-46.995-47.709-108.463-74.226-172.281-74.324-5.69 0-11.148-2.497-15.171-6.942s-6.284-10.475-6.284-16.761v-152.564c0-6.286 2.262-12.316 6.284-16.761 4.024-4.445 9.481-6.942 15.171-6.942 240.291 0 435.742 215.95 435.742 481.394v503.013c0 6.287-2.26 12.316-6.284 16.762s-9.481 6.943-15.171 6.943h-455.266c-5.69 0-11.145-2.497-15.169-6.943s-6.284-10.475-6.284-16.762v-503.013c0-6.288 2.26-12.316 6.284-16.761 4.024-4.447 9.479-6.945 15.169-6.945zM696.876 910.773h412.355v-479.308c0-231.359-164.685-420.994-371.377-433.322v105.344c154.173 12.183 276.205 154.65 276.205 327.978 0 6.286-2.26 12.316-6.284 16.761s-9.481 6.942-15.171 6.942h-295.729v455.605zM32 407.759h294.872c-5.464-70.256-34.567-135.696-81.562-183.408-46.994-47.709-108.468-74.224-172.29-74.31-5.69 0-11.147-2.497-15.171-6.942s-6.284-10.475-6.284-16.761v-152.564c0-6.286 2.26-12.316 6.284-16.761s9.481-6.942 15.171-6.942c240.29 0 435.742 215.95 435.742 481.394v503.013c0 6.287-2.26 12.316-6.284 16.762s-9.481 6.943-15.171 6.943h-455.308c-5.69 0-11.147-2.497-15.171-6.943s-6.284-10.475-6.284-16.762v-503.013c0-6.288 2.26-12.316 6.284-16.761 4.024-4.447 9.48-6.945 15.171-6.945zM53.455 910.773h412.4v-479.308c0-231.359-164.729-420.994-371.379-433.322v105.344c154.173 12.183 276.163 154.65 276.163 327.978 0 6.286-2.26 12.316-6.284 16.761s-9.481 6.942-15.171 6.942h-295.729v455.605z" />
<glyph unicode="&#xe927;" glyph-name="search" d="M979.046 82.907c27.271-29.091 27.271-74.543 0-103.633-29.091-27.271-74.547-27.271-103.638 0l-216.362 218.182c-74.547-49.091-165.455-74.547-263.637-61.817-167.273 23.636-301.818 160-323.637 325.45-30.909 247.275 178.182 456.366 425.454 425.457 165.455-21.819 301.819-156.364 325.455-323.637 12.726-98.181-12.726-189.093-61.817-261.816l218.182-218.186zM213.591 512c0-129.089 103.636-232.727 232.727-232.727 127.271 0 232.729 103.638 232.729 232.727 0 127.273-105.458 232.727-232.729 232.727-129.091 0-232.727-105.454-232.727-232.727zM979.046 82.907l33.955 31.837-0.512 0.549-0.531 0.531-32.912-32.917zM979.046-20.727l31.832-33.96 1.098 1.029 1.024 1.094-33.955 31.837zM875.408-20.727l-33.047-32.777 0.596-0.6 0.619-0.582 31.832 33.96zM659.046 197.455l33.047 32.773-26.829 27.057-31.818-20.955 25.6-38.875zM395.409 135.638l-6.513-46.094 0.529-0.065 5.984 46.159zM71.773 461.089l-46.187-5.772 0.041-0.312 46.146 6.083zM497.226 886.546l6.088 46.147-0.312 0.039-5.776-46.186zM822.682 562.909l46.164 5.984-0.074 0.528-46.089-6.512zM760.865 301.093l-38.582 26.038-21.471-31.814 27.141-27.141 32.912 32.917zM945.087 51.074c10.491-11.185 10.491-28.779 0-39.969l67.914-63.67c44.060 46.997 44.060 120.311 0 167.308l-67.914-63.67zM947.209 13.228c-11.185-10.487-28.779-10.487-39.964 0l-63.67-67.914c46.992-44.055 120.311-44.055 167.303 0l-63.67 67.914zM908.46 12.046l-216.367 218.182-66.099-65.55 216.367-218.182 66.099 65.55zM633.446 236.33c-66.057-43.501-145.873-65.704-232.054-54.533l-11.967-92.318c110.184-14.285 212.184 14.42 295.221 69.101l-51.2 77.75zM401.921 181.723c-146.631 20.722-264.924 140.772-284.003 285.454l-92.292-12.172c24.558-186.228 175.356-338.902 363.27-365.456l13.025 92.174zM117.959 466.865c-27.144 217.154 156.341 400.639 373.496 373.495l11.548 92.372c-277.393 34.674-512.090-200.023-477.416-477.415l92.372 11.548zM491.143 840.4c144.682-19.079 264.732-137.371 285.449-284.003l92.179 13.024c-26.554 187.914-179.233 338.713-365.456 363.27l-12.172-92.292zM776.522 556.926c11.185-86.281-11.106-165.897-54.239-229.795l77.158-52.080c55.054 81.557 83.67 183.761 69.399 293.841l-92.318-11.967zM727.952 268.176l218.182-218.182 65.825 65.829-218.182 218.182-65.825-65.829zM167.046 512c0-154.796 124.475-279.273 279.273-279.273v93.091c-103.385 0-186.182 82.795-186.182 186.182h-93.091zM446.318 232.727c152.74 0 279.274 124.239 279.274 279.273h-93.091c0-103.149-84.382-186.182-186.183-186.182v-93.091zM725.592 512c0 152.979-126.296 279.273-279.274 279.273v-93.091c101.568 0 186.183-84.615 186.183-186.182h93.091zM446.318 791.273c-155.034 0-279.273-126.531-279.273-279.273h93.091c0 101.803 83.033 186.182 186.182 186.182v93.091z" />
<glyph unicode="&#xe928;" glyph-name="skewer" d="M284.577 328.829l1.262-12.052c1.108-10.634 8.059-19.459 18.135-23.032 3.049-1.080 6.177-1.608 9.27-1.608 7.124 0 14.049 2.801 19.325 8.074l37.041 37.041c5.875 5.878 8.75 13.993 7.89 22.262-2.342 21.97-3.794 48.312-12.219 70.272 15.483-7.593 23.301-18.555 43.96-12.221 8.643 3.295 15.281 10.217 18.207 18.993l43.709 130.99c20.073-25.464 62.083-30.39 86.595-5.366l19.154 19.154c10.849 10.847 16.824 25.272 16.824 40.614 0 11.131-3.159 21.77-9.029 30.922 13.97 2.304 26.844 8.868 37.056 19.080l57.062 57.067c12.913 12.91 20.022 30.074 20.022 48.332s-7.109 35.422-20.019 48.332l-8.261 8.26 17.661 17.66c5.86 5.858 5.86 15.354 0.003 21.212-5.86 5.858-15.357 5.86-21.212 0l-17.661-17.66-8.259 8.258c-26.65 26.648-70.013 26.652-96.666 0l-57.062-57.068c-10.217-10.212-16.781-23.094-19.085-37.068-22.218 14.198-52.14 11.61-71.532-7.782l-19.156-19.154c-24.197-23.692-21.13-64.721 5.368-86.599l-130.99-43.709c-8.776-2.929-15.698-9.564-18.99-18.207-3.294-8.645-2.544-18.204 2.054-26.23l10.164-17.731c-18.102 7.621-50.484 10.273-70.264 12.216-8.268 0.855-16.386-2.012-22.27-7.895l-37.042-37.038c-7.558-7.56-10.038-18.516-6.464-28.593s12.398-17.027 23.034-18.138c79.532-2.007 148.527-86.584 152.385-141.588zM406.679 632.031l40.771-40.771-31.291-93.775c-45.379 21.652-81.638 58.493-103.255 103.252l93.775 31.293zM508.582 785.13l57.065 57.066c7.478 7.478 17.295 11.214 27.118 11.214 9.82 0 19.643-3.74 27.118-11.214l37.732-37.73c7.242-7.244 11.233-16.876 11.233-27.12s-3.991-19.874-11.233-27.118l-57.068-57.065c-7.242-7.245-16.873-11.233-27.118-11.233-10.243 0-19.876 3.991-27.118 11.233l-37.732 37.731c-7.242 7.244-11.231 16.874-11.231 27.118s3.988 19.874 11.233 27.118zM437.368 748.305c7.027 0 14.052-2.676 19.4-8.024l98.934-98.929c5.181-5.184 8.036-12.076 8.036-19.402 0-6.838-2.514-13.279-7.058-18.322l-27.692 27.694c-5.857 5.857-15.355 5.86-21.215 0-5.857-5.86-5.857-15.355 0-21.212l27.694-27.694c-8.965-8.166-25.795-10.222-37.724 0.98l-98.931 98.931c-10.35 10.35-10.655 26.963-0.978 37.721l27.282-27.282c2.931-2.931 6.769-4.393 10.609-4.393 3.837 0 7.677 1.462 10.609 4.393 5.857 5.857 5.857 15.356 0 21.212l-27.282 27.282c5.194 4.676 11.745 7.044 18.317 7.044zM261.018 583.142c0.123 0.325 0.338 0.397 0.453 0.435l22.405 7.475c34.092-67.587 72.704-96.448 122.596-122.596l-7.475-22.408c-83.103 37.847-108.096 79.567-137.979 137.093zM147.363 499l-6.752 0.707 32.414 32.415 30.954-3.231c29.384-3.067 57.070-16.261 77.957-37.151l25.221-25.221c20.89-20.89 34.084-48.579 37.151-77.96l3.228-30.953-32.415-32.415c-5.263 90.644-101.204 169.298-167.758 173.809zM185.186 391.007l-180.792-180.792c-5.858-5.857-5.858-15.357 0-21.212 2.93-2.929 6.77-4.393 10.608-4.393s7.678 1.462 10.608 4.393l180.792 180.795c5.858 5.857 5.858 15.355 0 21.21-5.86 5.857-15.356 5.857-21.216 0zM917.235 587.308l17.661 17.661c5.86 5.857 5.86 15.352 0 21.212-5.857 5.857-15.355 5.86-21.212 0l-17.661-17.661-8.259 8.261c-12.91 12.91-30.072 20.019-48.33 20.019s-35.423-7.109-48.333-20.019l-57.065-57.068c-10.212-10.209-16.776-23.086-19.082-37.056-9.152 5.87-19.791 9.032-30.92 9.032-15.342 0-29.768-5.975-40.617-16.824l-19.154-19.154c-24.197-23.69-21.13-64.722 5.368-86.597l-130.99-43.709c-8.778-2.929-15.7-9.564-18.993-18.209-3.295-8.643-2.545-18.202 2.053-26.227l10.166-17.731c-18.102 7.624-50.486 10.276-70.267 12.216-8.294 0.868-16.387-2.012-22.269-7.892l-37.036-37.038c-7.56-7.56-10.040-18.516-6.467-28.593 3.571-10.079 12.398-17.029 23.035-18.138 33.093-1.416 68.306-15.263 92.014-40.412l-219.835-219.84c-5.858-5.857-5.858-15.357 0-21.212 2.93-2.929 6.769-4.396 10.609-4.396 3.837 0 7.677 1.464 10.606 4.396l219.835 219.835c24.307-22.492 38.915-58.109 40.41-92.014 1.111-10.634 8.059-19.461 18.138-23.035 3.046-1.083 6.18-1.608 9.27-1.608 7.124 0 14.052 2.801 19.325 8.074l37.038 37.038c5.88 5.88 8.758 13.998 7.892 22.269-2.345 21.99-3.791 48.294-12.214 70.264l17.731-10.166c13.115-8.612 38.359-2.67 44.436 16.934l27.587 82.68c2.624 7.859-1.623 16.353-9.48 18.977-7.864 2.624-16.356-1.623-18.975-9.48l-10.427-31.25c-45.379 21.658-81.636 58.496-103.252 103.258l93.775 31.291 69.85-69.85c21.35-21.555 58.099-22.659 81.229 0l19.154 19.154c19.392 19.397 21.98 49.316 7.782 71.534 13.972 2.304 26.854 8.87 37.069 19.085l57.065 57.068c26.65 26.65 26.65 70.011 0 96.66l-8.261 8.259zM561.787 78.561c-2.276 36.9-19.425 76.088-46.474 102.81-32.996 37.443-76.378 69.56-128.038 71.703l32.412 32.415 30.956-3.231c29.381-3.067 57.068-16.261 77.957-37.151l25.224-25.221c20.89-20.887 34.081-48.573 37.146-77.957l3.231-30.953-32.412-32.415zM545.672 318.021c22.697-42.286 64.824-74.368 107.464-96.195l-7.475-22.408c-93.558 44.040-107.052 82.872-137.93 136.466-1.121 1.948 21.012 7.278 22.81 8.538l15.132-26.401zM744.407 336.76l-98.931 98.931c-10.35 10.35-10.657 26.964-0.978 37.722l27.282-27.279c2.929-2.929 6.769-4.393 10.606-4.393s7.677 1.464 10.609 4.393c5.857 5.857 5.857 15.357-0.003 21.212l-27.284 27.282c8.965 8.169 25.797 10.225 37.722-0.978l98.931-98.931c10.35-10.348 10.655-26.962 0.978-37.722l-27.692 27.692c-5.855 5.86-15.352 5.857-21.212 0-5.857-5.86-5.857-15.357 0.003-21.212l27.692-27.692c-10.755-9.679-27.372-9.375-37.722 0.975zM904.279 503.598l-57.062-57.068c-7.245-7.245-16.878-11.233-27.121-11.233-10.245 0-19.876 3.991-27.118 11.233l-37.747 37.745c-7.232 7.24-11.22 16.868-11.22 27.105 0 10.243 3.991 19.873 11.236 27.118l57.065 57.065c7.242 7.245 16.876 11.233 27.118 11.233 10.245 0 19.876-3.991 27.118-11.233l37.729-37.729c14.958-14.953 14.958-39.283 0.003-54.236zM1009.001 958.1h-223.155c-24.12 0-43.74-19.622-43.74-43.742s19.622-43.742 43.74-43.742h39.667c7.578 0 13.742-6.164 13.742-13.742v-17.582c0-7.576-6.164-13.74-13.742-13.74h-8.166c-24.12 0-43.74-19.622-43.74-43.742v-67.476c0-8.284 6.715-15.001 14.999-15.001 8.287 0 15.002 6.717 15.002 15.001v67.478c0 7.578 6.162 13.742 13.74 13.742h8.166c24.12 0 43.74 19.622 43.74 43.74v17.582c0 24.12-19.62 43.742-43.74 43.742h-39.667c-7.575 0-13.74 6.164-13.74 13.742s6.164 13.742 13.74 13.742h223.155c8.284 0 14.999 6.716 14.999 15s-6.715 14.998-14.999 14.998zM850.15 655.608c8.287 0 14.999 6.715 14.999 14.999v35.531c0 6.708 5.458 12.164 12.165 12.164h24.061c23.25 0 42.163 18.916 42.163 42.164v52.434c0 8.284-6.712 15-14.999 15s-14.999-6.716-14.999-15v-52.434c0-6.708-5.458-12.164-12.165-12.164h-24.061c-23.25 0-42.166-18.916-42.166-42.164v-35.531c0-8.284 6.715-14.999 15.002-14.999z" />
<glyph unicode="&#xe929;" glyph-name="star" horiz-adv-x="1073" d="M725.704 648.009l272.379-40c22.86-3.809 41.906-19.047 49.527-41.905 7.617-20.953 1.902-45.714-15.238-60.952l-198.095-196.192 47.616-278.094c3.808-22.86-5.715-45.714-24.761-59.046-19.046-15.238-43.808-15.238-64.761-5.715l-243.81 131.428-245.715-131.428c-19.047-9.523-45.714-9.523-62.857 5.715-19.047 13.332-28.572 36.186-24.762 59.046l45.714 278.094-198.095 196.192c-17.143 15.238-22.857 40-15.238 60.952 7.619 22.857 26.666 38.095 49.524 41.905l274.286 40 121.906 253.333c9.523 20.952 30.476 34.286 55.237 34.286 22.855 0 43.808-13.333 53.331-34.286l123.811-253.333z" />
<glyph unicode="&#xe92b;" glyph-name="theater" d="M983.256 923.021h-660.965c-8.283 0-15-6.714-15-15s6.717-15 15-15h86.066c-7.084-31.38-35.886-54.942-70.256-54.942-39.679 0-71.96 31.376-71.96 69.942-0.123 7.512-6.028 15.1-15 15h-210.398c-22.466 0-40.744-18.278-40.744-40.744v-733.497c0-22.462 18.276-40.739 40.74-40.739h114.884v-37.508h-49.896c-19.342 0-35.078-15.735-35.078-35.078v-27.352c0-19.342 15.736-35.078 35.078-35.078h812.543c19.34 0 35.078 15.735 35.078 35.078v27.352c0 19.342-15.738 35.078-35.078 35.078h-49.896v37.508h114.884c22.464 0 40.739 18.277 40.739 40.739v733.497c0.002 22.466-18.275 40.744-40.742 40.744zM868.416 893.021v-78.308c0-20.644 4.722-41.396 13.656-60.012l20.23-42.143c2.58-5.375 7.944-8.511 13.535-8.511 2.175 0 4.387 0.476 6.481 1.479 7.466 3.586 10.615 12.547 7.031 20.016l-20.227 42.141c-7.002 14.588-10.702 30.85-10.702 47.030v78.308h84.84c5.923 0 10.743-4.82 10.743-10.744v-330.721l-121.032 101.69c-43.486 36.536-71.161 89.949-75.931 146.543l-7.86 93.232h79.237zM756.194 893.021c-7.084-31.38-35.913-54.942-70.294-54.942-34.375 0-63.194 23.56-70.276 54.942h140.57zM582.294 893.021c-7.084-31.38-35.913-54.942-70.294-54.942s-63.21 23.56-70.294 54.942h140.588zM338.1 808.079c36.741 0 68.999 19.162 86.942 47.822 17.945-28.66 50.208-47.822 86.958-47.822s69.013 19.162 86.958 47.822c17.943-28.66 50.199-47.822 86.942-47.822 30.932 0 58.668 13.588 77.383 34.974l3.859-45.786c5.436-64.494 36.973-125.362 86.528-166.993l129.536-108.835-46.719-27.864c-38.266-22.817-66.194-60.751-76.62-104.063l-60.543-251.472h-574.645l-29.108 120.9h579.291c8.283 0 14.998 6.713 14.998 14.998 0 8.288-6.715 15-14.998 15h-586.513l-24.214 100.573c-10.428 43.313-38.356 81.246-76.62 104.063l-46.72 27.864 129.534 108.835c49.554 41.631 81.091 102.499 86.528 166.993l3.859 45.786c18.716-21.384 46.453-34.974 77.385-34.974zM30 882.277c0 5.924 4.82 10.744 10.744 10.744h84.84v-78.308c0-16.178-3.702-32.44-10.702-47.028l-20.228-42.143c-3.584-7.468-0.438-16.43 7.032-20.016 2.094-1.004 4.304-1.479 6.48-1.479 5.588 0 10.954 3.138 13.534 8.511l20.23 42.145c8.934 18.616 13.656 39.366 13.656 60.010v78.308h79.238l-7.86-93.232c-4.77-56.596-32.446-110.009-75.932-146.543l-121.032-101.692v330.724zM30 148.785v344.164l42.15-25.136c31.372-18.707 54.268-49.805 62.82-85.322l58.85-244.449h-153.076c-5.924 0-10.744 4.82-10.744 10.743zM354.163 70.533c-8.285 0-15-6.713-15-15 0-8.285 6.715-15 15-15h564.108c2.801 0 5.079-2.278 5.079-5.077v-27.352c0-2.799-2.278-5.079-5.079-5.079h-812.543c-2.8 0-5.078 2.28-5.078 5.079v27.352c0 2.799 2.278 5.077 5.078 5.077h176.994c8.283 0 15 6.715 15 15 0 8.288-6.717 15-15 15h-97.098v37.506h652.752v-37.506h-484.213zM830.18 138.042l58.853 244.449c8.549 35.517 31.448 66.615 62.819 85.322l42.148 25.136v-344.164c0-5.923-4.82-10.743-10.743-10.743h-153.077zM258.266 590.859l30.16-95.801c11.924-37.881 41.829-67.067 79.995-78.067l40.853-11.774c7.457-9.182 16.348-17.317 26.497-24.048l46.524-30.859c9.020-5.985 19.36-8.975 29.701-8.975s20.678 2.99 29.701 8.975l46.524 30.859c33.098 21.952 52.859 58.768 52.859 98.486v100.438c0 30.85-25.095 55.947-55.942 55.947h-70.433l-10.179 32.345c-4.481 14.25-14.25 25.9-27.505 32.809-13.248 6.904-28.394 8.238-42.646 3.759l-139.526-43.923c-29.416-9.271-45.827-40.746-36.582-70.171zM611.080 580.091v-100.438c0-29.635-14.746-57.11-39.442-73.487l-46.524-30.859c-7.969-5.284-18.266-5.284-26.235 0l-46.524 30.859c-24.699 16.377-39.442 43.852-39.442 73.487v100.438c0 14.306 11.637 25.946 25.944 25.946h146.28c14.302 0 25.944-11.639 25.944-25.946zM303.859 632.413l139.517 43.918c6.606 2.078 13.631 1.459 19.781-1.745 6.146-3.202 10.672-8.602 12.75-15.208l7.343-23.343h-44.394c-30.847 0-55.945-25.097-55.945-55.945v-100.441c0-12.896 2.098-25.484 6.044-37.36l-12.224 3.525c-28.476 8.208-50.79 29.98-59.686 58.247l-30.16 95.792c-4.289 13.653 3.327 28.258 16.973 32.559zM470.776 463.813c9.471-7.052 26.378-15.173 44.571-15.173 13.292 0 27.275 4.339 39.533 16.598 5.86 5.86 5.86 15.358 0 21.213-5.855 5.86-15.353 5.857-21.21 0.002-17.879-17.881-43.789 0.56-45.026 1.459-6.642 4.906-16.002 3.518-20.94-3.108-4.949-6.642-3.573-16.043 3.072-20.99zM647.93 685.063c2.926-2.929 6.768-4.392 10.606-4.392s7.678 1.463 10.604 4.392l12.773 12.77 12.773-12.77c2.926-2.929 6.768-4.392 10.606-4.392s7.678 1.463 10.604 4.392c5.86 5.86 5.86 15.355 0 21.213l-12.768 12.77 12.768 12.77c5.86 5.86 5.86 15.356 0 21.214-5.857 5.856-15.355 5.856-21.21 0l-12.773-12.772-12.773 12.772c-5.857 5.856-15.355 5.856-21.21 0-5.86-5.86-5.86-15.356 0-21.214l12.77-12.77-12.77-12.77c-5.86-5.857-5.86-15.353 0-21.213zM772.867 553.465c8.579 0 15.533 6.954 15.533 15.535 0 8.579-6.954 15.533-15.533 15.533s-15.535-6.954-15.535-15.533c0-8.581 6.956-15.535 15.535-15.535z" />
<glyph unicode="&#xe92c;" glyph-name="user" horiz-adv-x="887" d="M418.133 430.933c-132.534 0-238.933 106.4-238.933 238.933 0 130.666 106.4 238.933 238.933 238.933 130.666 0 238.933-108.267 238.933-238.933 0-132.534-108.267-238.933-238.933-238.933zM511.467 341.333c179.201 0 324.8-145.599 324.8-324.799 0-35.465-29.867-63.468-65.331-63.468h-707.469c-35.467 0-63.467 28.003-63.467 63.468 0 179.2 143.733 324.799 322.933 324.799h188.533z" />
<glyph unicode="&#xe92d;" glyph-name="down-arrow" d="M512 256c-8.184 0-16.376 3.128-22.624 9.376l-320 320c-12.504 12.504-12.504 32.752 0 45.248s32.752 12.504 45.248 0l297.376-297.376 297.376 297.376c12.504 12.504 32.752 12.504 45.248 0s12.504-32.752 0-45.248l-320-320c-6.248-6.248-14.44-9.376-22.624-9.376z" />
<glyph unicode="&#xe92e;" glyph-name="left-arrow" d="M1024 480.253h-900.515l202.973 202.975-45.614 45.614-280.844-280.842 280.844-280.846 45.614 45.616-202.973 202.973h900.515z" />
<glyph unicode="&#xe92f;" glyph-name="plus" d="M575.888 511.888v448.112h-127.775v-448.112h-448.112v-127.775h448.112v-448.112h127.775v448.112h448.112v127.775z" />
<glyph unicode="&#xe930;" glyph-name="minus" d="M885.333 448c-0.237-17.577-14.423-31.763-31.977-32h-682.69c-17.673 0-32 14.327-32 32s14.327 32 32 32v0h682.667c17.577-0.237 31.763-14.423 32-31.977v-0.023z" />
<glyph unicode="&#xe931;" glyph-name="chat1" d="M608 768h-384c-17.664 0-32-14.336-32-32s14.336-32 32-32h384c17.664 0 32 14.336 32 32s-14.336 32-32 32zM480 640h-256c-17.664 0-32-14.336-32-32s14.336-32 32-32h256c17.664 0 32 14.336 32 32s-14.336 32-32 32zM704 960h-576c-70.592 0-128-57.408-128-128v-640c0-12.416 7.168-23.744 18.432-28.992 4.288-1.984 8.96-3.008 13.568-3.008 7.36 0 14.656 2.56 20.48 7.424l183.104 152.576h468.416c70.592 0 128 57.408 128 128v384c0 70.592-57.408 128-128 128zM768 448c0-35.264-28.672-64-64-64h-480c-7.488 0-14.72-2.624-20.48-7.424l-139.52-116.288v571.712c0 35.264 28.672 64 64 64h576c35.328 0 64-28.736 64-64v-384zM896 704c-17.664 0-32-14.336-32-32s14.336-32 32-32c35.328 0 64-28.736 64-64v-541.376l-108.032 86.4c-5.632 4.48-12.736 6.976-19.968 6.976h-448c-35.328 0-64 28.736-64 64v32c0 17.664-14.336 32-32 32s-32-14.336-32-32v-32c0-70.592 57.408-128 128-128h436.736l151.232-121.024c5.824-4.608 12.928-6.976 20.032-6.976 4.672 0 9.408 1.024 13.888 3.136 11.072 5.376 18.112 16.576 18.112 28.864v608c0 70.592-57.408 128-128 128z" />
<glyph unicode="&#xe932;" glyph-name="menu1" d="M256 755.2c0 28.276 22.924 51.2 51.2 51.2h665.6c28.276 0 51.2-22.924 51.2-51.2s-22.924-51.2-51.2-51.2h-665.6c-28.276 0-51.2 22.926-51.2 51.2zM972.8 499.2h-921.6c-28.276 0-51.2-22.926-51.2-51.2 0-28.276 22.924-51.2 51.2-51.2h921.6c28.276 0 51.2 22.924 51.2 51.2 0 28.274-22.924 51.2-51.2 51.2zM972.8 192h-460.8c-28.274 0-51.2-22.924-51.2-51.2 0-28.274 22.926-51.2 51.2-51.2h460.8c28.276 0 51.2 22.926 51.2 51.2 0 28.276-22.924 51.2-51.2 51.2z" />
<glyph unicode="&#xe933;" glyph-name="right-arrow" d="M1017.232 464.407v0l-232.722 232.724c-8.36 9.762-23.052 10.9-32.813 2.538-9.762-8.36-10.9-23.052-2.538-32.813 0.78-0.91 1.628-1.76 2.538-2.538l192.927-193.161h-921.352c-12.852 0-23.272-10.42-23.272-23.274s10.42-23.272 23.272-23.272h921.352l-192.927-192.927c-9.762-8.36-10.9-23.052-2.538-32.813s23.052-10.9 32.813-2.538c0.91 0.78 1.76 1.628 2.538 2.538l232.724 232.724c9.022 9.074 9.022 23.734-0.002 32.811z" />
<glyph unicode="&#xe934;" glyph-name="loupe" d="M1011.488 8.835l-291.197 291.197c56.405 69.673 90.367 158.206 90.367 254.632 0 223.486-181.844 405.33-405.33 405.33s-405.328-181.842-405.328-405.328 181.844-405.33 405.33-405.33c96.425 0 184.958 33.962 254.632 90.367l291.197-291.197c8.32-8.32 19.242-12.502 30.166-12.502s21.846 4.182 30.166 12.502c16.682 16.682 16.682 43.648-0.002 60.329zM405.33 234.669c-176.468 0-319.997 143.529-319.997 319.997s143.529 319.997 319.997 319.997 319.997-143.529 319.997-319.997-143.531-319.997-319.997-319.997z" />
</font>
</defs>
</svg>
