<svg width="36" height="36" viewBox="0 0 36 36" fill="none" xmlns="http://www.w3.org/2000/svg">
<g clip-path="url(#clip0_896_3831)">
<path d="M36 7.22055V4.19922C36 2.33223 34.4811 0.813354 32.6141 0.813354H26.7941C26.2682 0.49117 25.6501 0.305176 24.9894 0.305176H3.46606C1.55493 0.305069 0 1.86 0 3.77113V32.2289C0 34.1401 1.55493 35.6949 3.46606 35.6949H24.9893C25.6501 35.6949 26.2683 35.5088 26.7944 35.1865H32.614C34.481 35.1865 35.9999 33.6677 35.9999 31.8007V28.7793C35.9999 27.7433 35.5316 26.8149 34.7962 26.1933C35.5316 25.5718 35.9999 24.6434 35.9999 23.6073V20.5859C35.9999 19.5498 35.5316 18.6214 34.7962 17.9999C35.5316 17.3784 35.9999 16.45 35.9999 15.4139V12.3926C35.9999 11.3565 35.5316 10.4281 34.7962 9.80656C35.5317 9.1849 36 8.25653 36 7.22055ZM26.8557 32.2289C26.8557 33.2579 26.0184 34.0952 24.9893 34.0952H3.46606C2.43701 34.0952 1.59972 33.2579 1.59972 32.2289V3.77113C1.59972 2.74208 2.43701 1.90479 3.46606 1.90479H24.9893C26.0184 1.90479 26.8557 2.74208 26.8557 3.77113V32.2289ZM34.4003 31.8008C34.4003 32.7857 33.599 33.5869 32.6141 33.5869H28.1781C28.3565 33.1697 28.4555 32.7107 28.4555 32.229V26.9933H32.6141C33.599 26.9933 34.4003 27.7946 34.4003 28.7795V31.8008ZM34.4003 23.6073C34.4003 24.5922 33.599 25.3935 32.6141 25.3935H28.4555V18.7998H32.6141C33.599 18.7998 34.4003 19.601 34.4003 20.5859V23.6073ZM34.4003 15.4139C34.4003 16.3988 33.599 17.2 32.6141 17.2H28.4555V10.6063H32.6141C33.599 10.6063 34.4003 11.4076 34.4003 12.3924V15.4139ZM34.4003 7.22055C34.4003 8.20545 33.599 9.0067 32.6141 9.0067H28.4555V3.77113C28.4555 3.28929 28.3564 2.83028 28.178 2.41297H32.6141C33.599 2.41297 34.4003 3.21421 34.4003 4.19911V7.22055Z" fill="url(#paint0_linear_896_3831)"/>
<path d="M24.1456 24.5317H4.31006V26.1315H24.1456V24.5317Z" fill="url(#paint1_linear_896_3831)"/>
<path d="M7.13398 21.9908H21.3219C21.5632 21.9908 21.7917 21.882 21.9436 21.6944C22.0954 21.5068 22.1545 21.2607 22.1043 21.0247C21.7209 19.2216 20.7103 17.5932 19.2809 16.4367C20.2175 15.283 20.7408 13.8305 20.7408 12.3284C20.7408 8.73716 17.819 5.81543 14.2278 5.81543C10.6365 5.81543 7.71478 8.73716 7.71478 12.3284C7.71478 13.8305 8.23821 15.283 9.17469 16.4367C7.74539 17.5932 6.73479 19.2215 6.3515 21.0247C6.30127 21.2607 6.36035 21.5069 6.51222 21.6944C6.66419 21.882 6.89263 21.9908 7.13398 21.9908ZM10.8082 17.2325C11.0202 17.0998 11.1579 16.8753 11.1802 16.626C11.2025 16.3768 11.1069 16.1315 10.9219 15.9631C9.90032 15.0333 9.3145 13.7086 9.3145 12.3284C9.3145 9.61924 11.5186 7.41515 14.2278 7.41515C16.937 7.41515 19.1411 9.61924 19.1411 12.3284C19.1411 13.7086 18.5551 15.0333 17.5337 15.9631C17.3486 16.1315 17.2531 16.3768 17.2754 16.626C17.2976 16.8753 17.4353 17.0996 17.6473 17.2325C18.8369 17.9779 19.752 19.0978 20.2517 20.3912H8.20387C8.70352 19.0978 9.61866 17.9777 10.8082 17.2325Z" fill="url(#paint2_linear_896_3831)"/>
<path d="M21.6478 27.6953H6.80713V29.295H21.6478V27.6953Z" fill="url(#paint3_linear_896_3831)"/>
</g>
<defs>
<linearGradient id="paint0_linear_896_3831" x1="3.57038" y1="6.87009" x2="37.5403" y2="27.7163" gradientUnits="userSpaceOnUse">
<stop offset="0.0220719" stop-color="#3663D8"/>
<stop offset="0.56" stop-color="#77BEFF"/>
<stop offset="0.99" stop-color="#00D1FF"/>
</linearGradient>
<linearGradient id="paint1_linear_896_3831" x1="6.27729" y1="24.8285" x2="6.7297" y2="28.2126" gradientUnits="userSpaceOnUse">
<stop offset="0.0220719" stop-color="#3663D8"/>
<stop offset="0.56" stop-color="#77BEFF"/>
<stop offset="0.99" stop-color="#00D1FF"/>
</linearGradient>
<linearGradient id="paint2_linear_896_3831" x1="7.89977" y1="8.81602" x2="23.1279" y2="17.7825" gradientUnits="userSpaceOnUse">
<stop offset="0.0220719" stop-color="#3663D8"/>
<stop offset="0.56" stop-color="#77BEFF"/>
<stop offset="0.99" stop-color="#00D1FF"/>
</linearGradient>
<linearGradient id="paint3_linear_896_3831" x1="8.27899" y1="27.9921" x2="8.87542" y2="31.33" gradientUnits="userSpaceOnUse">
<stop offset="0.0220719" stop-color="#3663D8"/>
<stop offset="0.56" stop-color="#77BEFF"/>
<stop offset="0.99" stop-color="#00D1FF"/>
</linearGradient>
<clipPath id="clip0_896_3831">
<rect width="36" height="36" fill="white"/>
</clipPath>
</defs>
</svg>
