<svg width="36" height="27" viewBox="0 0 36 27" fill="none" xmlns="http://www.w3.org/2000/svg">
<g clip-path="url(#clip0_896_3825)">
<path d="M2.06543 0H33.9346C34.4793 0.00539187 35 0.225192 35.3839 0.611787C35.7677 0.998381 35.9838 1.52064 35.9854 2.06543V23.9678C35.9884 24.3857 35.8637 24.7946 35.6279 25.1396C35.5855 25.2502 35.5196 25.3502 35.4346 25.4326C35.3774 25.4872 35.3122 25.5327 35.2412 25.5674C34.8716 25.8793 34.4036 26.0505 33.9199 26.0508H2.06543C1.52318 26.0454 1.00466 25.8277 0.621214 25.4442C0.23777 25.0608 0.0199911 24.5422 0.0146484 24V2.06543C0.0161629 1.52064 0.232251 0.998381 0.616104 0.611787C0.999957 0.225192 1.52066 0.00539187 2.06543 0ZM1.97754 23.0977L12.7529 11.9004L1.97754 2.79492V23.0977ZM14.376 13.2979L2.8623 24.4482H33.0381L22.0371 13.2979L18.8145 15.9961C18.6724 16.114 18.4937 16.1786 18.3091 16.1786C18.1245 16.1786 17.9457 16.114 17.8037 15.9961L14.376 13.2979ZM23.6338 11.8799L34.0225 23.1885V2.69531L23.6338 11.8799ZM2.99121 1.58496L18.2783 13.9746L32.8916 1.58496H2.99121Z" fill="url(#paint0_linear_896_3825)"/>
</g>
<defs>
<linearGradient id="paint0_linear_896_3825" x1="3.58213" y1="4.8325" x2="31.1667" y2="27.8101" gradientUnits="userSpaceOnUse">
<stop offset="0.0220719" stop-color="#3663D8"/>
<stop offset="0.56" stop-color="#77BEFF"/>
<stop offset="0.99" stop-color="#00D1FF"/>
</linearGradient>
<clipPath id="clip0_896_3825">
<rect width="36" height="26.0332" fill="white"/>
</clipPath>
</defs>
</svg>
