<?xml version="1.0" encoding="UTF-8"?>
<svg version="1.1" xmlns="http://www.w3.org/2000/svg" width="909" height="955">
<path d="M0 0 C0.84336914 0.36834961 1.68673828 0.73669922 2.55566406 1.11621094 C29.48676017 13.01977864 55.38125757 28.45786958 79 46 C79.71381836 46.52980469 80.42763672 47.05960937 81.16308594 47.60546875 C94.02818168 57.2044148 106.29463548 67.34752257 118.05078125 78.2734375 C119.9665657 80.05359677 121.90045234 81.80067582 123.85546875 83.5390625 C135.36913075 93.82522208 146.15510509 105.06141097 155.75 117.1640625 C157.45327696 119.31090117 159.17889562 121.42275765 160.9375 123.5234375 C225.37819923 200.8286539 255.23606026 301.84683601 247.17529297 401.69238281 C240.00430067 476.95402205 210.67972442 548.61455683 163.26416016 607.43164062 C162.06994134 608.91322843 160.88430494 610.40172215 159.69921875 611.890625 C154.51393321 618.33769406 149.01481088 624.44982384 143.38085938 630.50146484 C142.05502199 631.94028908 140.75347641 633.40138311 139.453125 634.86328125 C93.02480817 686.84892691 30.02199381 724.43206377 -35 748 C-36.05461426 748.38397949 -37.10922852 748.76795898 -38.19580078 749.16357422 C-78.43124668 763.63697821 -120.43944145 771.66790387 -163 775 C-163.85271484 775.07057617 -164.70542969 775.14115234 -165.58398438 775.21386719 C-226.67600218 780.10226319 -289.82090144 771.98466004 -348 753 C-349.47847412 752.52095215 -349.47847412 752.52095215 -350.98681641 752.03222656 C-397.34560709 736.8591384 -442.67721795 714.40773977 -481.22998047 684.37304688 C-482.93488014 683.05051504 -484.653416 681.74863217 -486.37890625 680.453125 C-509.29711349 663.18668511 -532.61144083 642.95919253 -550.21484375 620.28125 C-551.98618585 618.0176531 -553.86302737 615.9234441 -555.8125 613.8125 C-572.29879538 595.35044034 -586.0743069 573.62610455 -598 552 C-598.48500977 551.12956055 -598.97001953 550.25912109 -599.46972656 549.36230469 C-628.77968184 496.34174464 -643.73744322 437.3614659 -646 377 C-646.03464355 376.08041504 -646.06928711 375.16083008 -646.10498047 374.21337891 C-646.28528443 368.46493015 -646.21648982 362.74654596 -646 357 C-645.95891113 355.90381348 -645.91782227 354.80762695 -645.87548828 353.67822266 C-642.0287271 262.37602188 -606.31811909 177.53584649 -546 109 C-545.175 108.0615625 -544.35 107.123125 -543.5 106.15625 C-537.47996468 99.4589607 -531.16690967 93.06624275 -524.8125 86.6875 C-523.96880859 85.83913574 -523.12511719 84.99077148 -522.25585938 84.11669922 C-517.33125327 79.20466575 -512.29390411 74.51015172 -507 70 C-505.9787909 69.1111086 -504.95793151 68.2218152 -503.9375 67.33203125 C-495.57210229 60.15692285 -486.90986558 53.48369567 -478 47 C-477.26458984 46.46004395 -476.52917969 45.92008789 -475.77148438 45.36376953 C-391.84165625 -16.00678156 -287.38134088 -44.55778912 0 0 Z M-160 40.25 C-161.24136719 40.63393921 -161.24136719 40.63393921 -162.5078125 41.02563477 C-165.6751398 42.00687762 -168.83750351 43.00329517 -172 44 C-222.55236991 59.89795331 -273.34976439 70.82321584 -325.77734375 78.625 C-326.59500717 78.74698761 -327.41267059 78.86897522 -328.25511169 78.99465942 C-329.0370137 79.11130951 -329.81891571 79.22795959 -330.62451172 79.34814453 C-331.36803894 79.45918518 -332.11156616 79.57022583 -332.87762451 79.68463135 C-334.85166027 79.97795786 -336.82643754 80.26628216 -338.80126953 80.55419922 C-339.87876465 80.71936035 -340.95625977 80.88452148 -342.06640625 81.0546875 C-342.96431885 81.18858887 -343.86223145 81.32249023 -344.78735352 81.46044922 C-348.39446499 82.34003836 -349.91535861 84.003328 -352 87 C-352.58201172 87.83337891 -352.58201172 87.83337891 -353.17578125 88.68359375 C-356.68489186 94.48387624 -356.86178085 100.38430863 -356 107 C-354.36573535 112.8029504 -351.744326 117.18139614 -347 121 C-343.63163086 122.55668802 -340.6201807 123.33135415 -336.94116211 123.73022461 C-335.46823952 123.89566017 -335.46823952 123.89566017 -333.96556091 124.06443787 C-332.91344925 124.17594681 -331.86133759 124.28745575 -330.77734375 124.40234375 C-328.52408719 124.65558689 -326.27083202 124.9088425 -324.01757812 125.16210938 C-320.48534834 125.55033908 -316.95283236 125.93583235 -313.42016602 126.32006836 C-309.99677048 126.69489619 -306.57457891 127.07958631 -303.15234375 127.46484375 C-302.1144017 127.57432846 -301.07645966 127.68381317 -300.00706482 127.7966156 C-279.54613734 130.10847639 -279.54613734 130.10847639 -273 136 C-263.05736242 149.80921886 -265.79758563 172.07489043 -265.44360352 188.42456055 C-265.42259366 189.37042884 -265.40158381 190.31629714 -265.37993729 191.29082811 C-264.79727591 218.34520683 -264.86977502 245.40518035 -264.89646127 272.46426483 C-264.90378732 280.09760294 -264.90512743 287.7309393 -264.90625793 295.36428043 C-264.9084215 308.96591993 -264.91500655 322.56755327 -264.92456055 336.16918945 C-264.93380575 349.34529592 -264.94085132 362.52140069 -264.94506836 375.69750977 C-264.94533108 376.51607198 -264.94559381 377.33463419 -264.94586449 378.17800132 C-264.94716997 382.28639457 -264.94843357 386.39478783 -264.94967639 390.5031811 C-264.95996466 424.33545852 -264.97750722 458.16772849 -265 492 C-260.82636888 492.65227004 -256.65213453 493.30059857 -252.4777832 493.94824219 C-251.30175789 494.13208466 -250.12573257 494.31592712 -248.91407013 494.50534058 C-241.00847644 495.72930503 -233.1760118 496.76095969 -225.1875 497.25 C-224.04410156 497.32444336 -222.90070313 497.39888672 -221.72265625 497.47558594 C-175.4108881 501.3799865 -175.4108881 501.3799865 -131 492 C-131 405.87 -131 319.74 -131 231 C-69.16234557 245.27022795 -69.16234557 245.27022795 -46 268 C-45.31292969 268.66257812 -44.62585938 269.32515625 -43.91796875 270.0078125 C-16.92196571 298.01550007 -16.35771196 342.51214831 -16.80859375 378.80078125 C-17.57216925 414.20859382 -21.46960354 450.80787817 -48 477 C-90.09446543 515.62347741 -158.24772089 518.88096252 -212.67578125 516.86376953 C-240.27074438 515.60977597 -267.33646791 512.36335957 -294 505 C-294.73347656 504.79793945 -295.46695313 504.59587891 -296.22265625 504.38769531 C-323.09675382 496.74882511 -348.07775933 481.54614618 -362.04345703 456.78662109 C-373.75813671 434.90606319 -377.10063064 410.64677491 -377.203125 386.1484375 C-377.20882507 385.05069 -377.21452515 383.9529425 -377.22039795 382.82192993 C-377.2297824 380.50759829 -377.23635558 378.19325367 -377.24023438 375.87890625 C-377.24984103 372.43203665 -377.28088771 368.98579029 -377.3125 365.5390625 C-377.48492409 329.64886795 -372.94995415 293.79982614 -347.5234375 266.47265625 C-331.890766 251.15457412 -312.27588191 244.27134745 -291.77636719 237.91040039 C-289.13252724 237.04345709 -286.57024941 236.06350087 -284 235 C-283.80266413 217.98526262 -284.40793088 201.00151661 -285 184 C-344.01168229 191.60762624 -412.92085354 208.67474796 -455 254 C-460 259 -460 259 -461.6640625 260.48828125 C-488.58049032 285.4662832 -502.63382721 325.98599385 -504.12109375 361.92626953 C-505.43277937 404.52325992 -493.88173964 444.0447732 -465 476 C-463.76931827 477.43620313 -462.53994149 478.87352664 -461.3125 480.3125 C-412.99497581 534.91244459 -334.50842673 554.75812801 -265 563 C-265.23956815 567.21401151 -265.48819719 571.42736985 -265.74462891 575.64038086 C-265.83035244 577.06862482 -265.91375333 578.49701043 -265.99462891 579.92553711 C-267.29543685 602.81815105 -267.29543685 602.81815105 -272 611 C-272.33 611.99 -272.66 612.98 -273 614 C-279.25113788 617.79281568 -286.74212155 619.41848458 -293.9375 620.0625 C-294.70819824 620.13919922 -295.47889648 620.21589844 -296.27294922 620.29492188 C-302.00135257 620.82618944 -307.73735239 621.17418952 -313.48046875 621.49609375 C-314.22906662 621.53831558 -314.97766449 621.58053741 -315.74894714 621.6240387 C-319.52600817 621.83476109 -323.30319507 622.03385707 -327.08178711 622.21508789 C-339.33115978 622.31361891 -339.33115978 622.31361891 -350.33984375 626.69921875 C-355.18829981 632.73311638 -357.48548086 637.93599035 -357.25390625 645.88671875 C-356.51836988 652.00864451 -354.47038113 657.65734404 -350 662 C-344.64263444 665.45797742 -340.09928283 665.37426111 -333.94921875 665.21826172 C-332.97740158 665.20562727 -332.00558441 665.19299282 -331.00431824 665.17997551 C-328.00231606 665.13640855 -325.0014721 665.07078019 -322 665 C-320.27425672 664.96524498 -318.54850823 664.93074767 -316.82275391 664.89654541 C-313.36937474 664.82322 -309.91638266 664.73982039 -306.46337891 664.65060425 C-272.79016267 663.78612282 -239.11542076 663.84689247 -205.4339056 663.87143159 C-199.65319677 663.87520183 -193.87250508 663.87384052 -188.09179688 663.86962891 C-154.33588458 663.84560511 -120.59351285 663.84536115 -86.84619141 664.72036171 C-83.44662905 664.80520749 -80.04687346 664.87557207 -76.64691162 664.94229889 C-74.78317681 664.98292721 -72.91960458 665.03139141 -71.05621338 665.08553314 C-68.05449217 665.17018823 -65.05320983 665.22778864 -62.05078125 665.28076172 C-60.67444771 665.32824145 -60.67444771 665.32824145 -59.27030945 665.37668037 C-53.63557754 665.44396803 -50.46324201 664.78541776 -46 661 C-40.26122575 654.94240496 -39.59028651 648.97785701 -39.75 640.90234375 C-40.30778782 634.42677579 -43.19281517 629.39806271 -48 625 C-54.53031827 622.916126 -61.52649056 622.60507047 -68.328125 622.25390625 C-70.28256305 622.13755391 -72.2369898 622.02101146 -74.19140625 621.90429688 C-77.21644557 621.73189164 -80.24162453 621.56295612 -83.26708984 621.39819336 C-116.43802591 619.56197409 -116.43802591 619.56197409 -123 613 C-132.69098987 599.3507185 -130.53395061 578.96124448 -131 563 C-130.46149414 562.94577881 -129.92298828 562.89155762 -129.36816406 562.83569336 C-100.01797165 559.76848251 -71.12441043 553.9422374 -43 545 C-42.09975098 544.71688965 -41.19950195 544.4337793 -40.27197266 544.14208984 C-3.76217825 532.50037927 30.01005269 514.28758842 58 488 C58.8051001 487.24589844 58.8051001 487.24589844 59.62646484 486.4765625 C86.95672967 460.66678967 106.71430438 423.95183082 108.20507812 385.80004883 C108.32815417 381.15815509 108.33442399 376.51819578 108.3125 371.875 C108.31034485 371.05507568 108.3081897 370.23515137 108.30596924 369.39038086 C108.25521984 357.36658671 107.9165958 345.72141332 105 334 C104.80132324 333.17226074 104.60264648 332.34452148 104.39794922 331.49169922 C97.17585837 302.1110435 82.79268774 277.82927334 62 256 C61.30648437 255.24203125 60.61296875 254.4840625 59.8984375 253.703125 C47.95985106 241.07311463 33.00008234 231.56179399 18 223 C17.27683594 222.58153809 16.55367187 222.16307617 15.80859375 221.73193359 C-21.53338646 200.33043644 -64.70954784 190.12154456 -107 184.0625 C-108.12305542 183.90063705 -108.12305542 183.90063705 -109.26879883 183.73550415 C-118.21065379 182.41438506 -118.21065379 182.41438506 -127.22583008 181.97825623 C-129.09404419 181.98901939 -129.09404419 181.98901939 -131 182 C-130.91406727 170.93891677 -130.8186647 159.87795441 -130.71247292 148.81704617 C-130.66338689 143.67615147 -130.6170837 138.53526931 -130.578125 133.39428711 C-130.53248798 127.42811968 -130.47621831 121.46211058 -130.4140625 115.49609375 C-130.39977581 114.02125078 -130.39977581 114.02125078 -130.3852005 112.51661301 C-130.27372705 101.86527172 -130.02550408 91.24693926 -129.37402344 80.61376953 C-129.31989729 79.71089864 -129.26577114 78.80802774 -129.21000481 77.87779713 C-128.9504881 73.63402658 -128.66280668 69.39509461 -128.32803345 65.15660095 C-127.53562441 54.49967208 -127.53562441 54.49967208 -132 45 C-136.75764656 40.66999516 -141.67474354 38.19152825 -148.1875 37.81640625 C-152.39974489 38.01925001 -156.02103837 38.96914265 -160 40.25 Z " fill="#FAA41A" transform="translate(646,96)"/>
<path d="M0 0 C4.29 0 8.58 0 13 0 C13.47308594 0.94617188 13.94617188 1.89234375 14.43359375 2.8671875 C14.74876953 3.49737793 15.06394531 4.12756836 15.38867188 4.77685547 C16.09492064 6.18968179 16.80063965 7.60277303 17.50585938 9.01611328 C19.50329074 13.01709774 21.51108585 17.01241827 23.53515625 21 C23.94644775 21.81355957 24.35773926 22.62711914 24.78149414 23.46533203 C25.58608842 25.05646518 26.39380981 26.64602135 27.20483398 28.23388672 C30 33.77493216 30 33.77493216 30 36 C30.66 36 31.32 36 32 36 C32.26353271 35.15219971 32.52706543 34.30439941 32.79858398 33.4309082 C34.05411794 29.84545429 35.56799868 26.52453278 37.22265625 23.10546875 C37.52819931 22.47264481 37.83374237 21.83982086 38.14854431 21.18782043 C38.78975743 19.86175871 39.43273249 18.53654763 40.07739258 17.2121582 C41.06709361 15.17805891 42.05054774 13.14102648 43.03320312 11.10351562 C47.85661135 1.14338865 47.85661135 1.14338865 49 0 C53.29 0 57.58 0 62 0 C62 19.14 62 38.28 62 58 C58.7 58 55.4 58 52 58 C51.67 45.13 51.34 32.26 51 19 C45.72 29.89 40.44 40.78 35 52 C32.36 52 29.72 52 27 52 C21.72 41.11 16.44 30.22 11 19 C10.67 31.87 10.34 44.74 10 58 C6.7 58 3.4 58 0 58 C0 38.86 0 19.72 0 0 Z " fill="#FAA41A" transform="translate(758,846)"/>
<path d="M0 0 C14.85 0 29.7 0 45 0 C45 2.97 45 5.94 45 9 C39.39 9 33.78 9 28 9 C28 25.17 28 41.34 28 58 C24.37 58 20.74 58 17 58 C17 41.83 17 25.66 17 9 C11.39 9 5.78 9 0 9 C0 6.03 0 3.06 0 0 Z " fill="#FAA41A" transform="translate(706,846)"/>
</svg>
