<?xml version="1.0" encoding="UTF-8"?>
<svg version="1.1" xmlns="http://www.w3.org/2000/svg" width="1080" height="321">
<path d="M0 0 C18.15 0 36.3 0 55 0 C54.67 5.28 54.34 10.56 54 16 C43.44 16 32.88 16 22 16 C22 21.94 22 27.88 22 34 C31.9 33.67 41.8 33.34 52 33 C52 46 52 46 51 49 C41.43 49 31.86 49 22 49 C22.33 51.64 22.66 54.28 23 57 C23 60.96 23 64.92 23 69 C33.89 69 44.78 69 56 69 C56 84 56 84 55 86 C36.85 86 18.7 86 0 86 C0 57.62 0 29.24 0 0 Z " fill="#006DA4" transform="translate(203,62)"/>
<path d="M0 0 C18.15 0 36.3 0 55 0 C54.67 5.28 54.34 10.56 54 16 C43.44 16 32.88 16 22 16 C22 21.94 22 27.88 22 34 C31.9 33.67 41.8 33.34 52 33 C52 45 52 45 51 49 C41.43 49 31.86 49 22 49 C22.33 55.6 22.66 62.2 23 69 C33.89 69 44.78 69 56 69 C56 83 56 83 55 86 C36.85 86 18.7 86 0 86 C0 57.62 0 29.24 0 0 Z " fill="#006DA4" transform="translate(139,62)"/>
<path d="M0 0 C18.15 0 36.3 0 55 0 C54.67 5.28 54.34 10.56 54 16 C43.44 16 32.88 16 22 16 C22 21.94 22 27.88 22 34 C31.9 33.67 41.8 33.34 52 33 C52 44 52 44 51 49 C41.43 49 31.86 49 22 49 C22.33 55.6 22.66 62.2 23 69 C33.89 69 44.78 69 56 69 C56 82 56 82 55 86 C36.85 86 18.7 86 0 86 C0 57.62 0 29.24 0 0 Z " fill="#006DA4" transform="translate(75,62)"/>
<path d="M0 0 C-0.00785522 1.92573853 -0.00785522 1.92573853 -0.01586914 3.89038086 C-0.12731342 34.245479 0.06035149 64.5859098 0.5 94.9375 C0.51195782 95.76333965 0.52391563 96.58917931 0.53623581 97.4400444 C0.68432988 107.62679988 0.83956144 117.81343135 1 128 C-2.96 128 -6.92 128 -11 128 C-11 126.02 -11 124.04 -11 122 C-11.87011719 122.50660156 -11.87011719 122.50660156 -12.7578125 123.0234375 C-13.53898437 123.46945313 -14.32015625 123.91546875 -15.125 124.375 C-15.89070313 124.81585938 -16.65640625 125.25671875 -17.4453125 125.7109375 C-26.17290579 130.11476898 -36.55313149 130.37852374 -46.05078125 128.34765625 C-54.92856513 125.13066769 -62.36219471 118.16418387 -67 110 C-72.38883949 98.30186707 -73.12373569 83.7080254 -69.375 71.375 C-64.64752179 59.5645405 -57.19050892 51.93671125 -45.53125 46.82421875 C-37.76774999 44.29628896 -30.57799494 43.73603544 -22.4375 43.875 C-18.993125 43.91625 -15.54875 43.9575 -12 44 C-12.33 29.81 -12.66 15.62 -13 1 C-4 -1.25 -4 -1.25 0 0 Z M-51 62 C-58.45788658 71.09381009 -60.68446325 80.39922551 -60 92 C-58.67921453 102.11487605 -54.97766324 108.64732705 -47.31640625 115.3359375 C-40.77407376 120.03582559 -33.78274456 119.70044701 -26 119 C-22.66078471 118.10729071 -19.88016678 116.9037466 -17 115 C-15.980271 114.36175293 -14.96054199 113.72350586 -13.90991211 113.06591797 C-11.88761205 111.35353827 -11.09723544 110.39928081 -10.46487427 107.80259705 C-10.2880968 105.04441872 -10.29971039 102.34483047 -10.37890625 99.58203125 C-10.38502426 98.56960861 -10.39114227 97.55718597 -10.39744568 96.51408386 C-10.42434866 93.27920595 -10.4933896 90.04672246 -10.5625 86.8125 C-10.58403476 84.65562383 -10.60294284 82.49871973 -10.61914062 80.34179688 C-10.71567202 71.16761304 -10.94528357 62.1210329 -12 53 C-32.9766885 52.2710762 -32.9766885 52.2710762 -51 62 Z " fill="#00AAB8" transform="translate(443,22)"/>
<path d="M0 0 C5.61 0 11.22 0 17 0 C17.83660156 2.54533447 18.67320312 5.09066895 19.53515625 7.71313477 C22.33126625 16.21923176 25.12957097 24.72460563 27.92889404 33.22964573 C29.62240514 38.3751724 31.31522599 43.52092381 33.00634766 48.66723633 C34.64079629 53.64090488 36.27693661 58.61401363 37.91452026 63.58665085 C38.55406502 65.52913368 39.19316526 67.47176292 39.83181763 69.41453934 C43.72812837 81.26243378 47.63973378 93.09989981 52.00732422 104.7848053 C53.49190904 108.87532417 54.08496913 110.66012349 53 115 C49.04 115 45.08 115 41 115 C38.273297 108.01551155 36.0228722 100.9127251 33.8125 93.75 C33.44447266 92.57953125 33.07644531 91.4090625 32.69726562 90.203125 C32.34986328 89.0790625 32.00246094 87.955 31.64453125 86.796875 C31.32846924 85.77948242 31.01240723 84.76208984 30.68676758 83.71386719 C30 81 30 81 30 77 C15.48 77.33 0.96 77.66 -14 78 C-15.8871875 84.125625 -15.8871875 84.125625 -17.8125 90.375 C-18.20284424 91.64134277 -18.59318848 92.90768555 -18.99536133 94.21240234 C-19.3127124 95.24316895 -19.63006348 96.27393555 -19.95703125 97.3359375 C-20.30330566 98.45967773 -20.64958008 99.58341797 -21.00634766 100.74121094 C-22.16755014 104.54949858 -23.28923995 108.36862944 -24.39331055 112.19384766 C-25 114 -25 114 -26 115 C-27.85287502 115.07226502 -29.70833878 115.0838122 -31.5625 115.0625 C-33.08037109 115.04896484 -33.08037109 115.04896484 -34.62890625 115.03515625 C-35.41136719 115.02355469 -36.19382812 115.01195312 -37 115 C-38.16276866 111.51169402 -37.81147188 110.72233502 -36.63916016 107.34399414 C-36.31296188 106.3890657 -35.98676361 105.43413727 -35.65068054 104.45027161 C-35.28384659 103.40578354 -34.91701263 102.36129547 -34.5390625 101.28515625 C-34.16163406 100.18624557 -33.78420563 99.0873349 -33.39533997 97.9551239 C-32.57546382 95.57021034 -31.75161002 93.18666139 -30.92428589 90.80432129 C-28.95233432 85.12528605 -27.00278267 79.43860645 -25.05489159 73.75128555 C-24.60751289 72.44531495 -24.15980831 71.13945594 -23.71178627 69.8337059 C-18.03554953 53.28634934 -12.63570317 36.65083854 -7.25830078 20.00415039 C-6.91764084 18.95338821 -6.5769809 17.90262604 -6.22599792 16.82002258 C-5.59219334 14.86464281 -4.96107915 12.90838806 -4.33320618 10.95109558 C-4.05365585 10.08906021 -3.77410553 9.22702484 -3.48608398 8.33886719 C-3.1257029 7.21989044 -3.1257029 7.21989044 -2.75804138 6.07830811 C-2 4 -2 4 0 0 Z M7 9 C4.55595178 15.32068541 2.44892478 21.70918432 0.42578125 28.17578125 C0.09708542 29.22275681 -0.23161041 30.26973236 -0.57026672 31.34843445 C-1.25969881 33.54742971 -1.9479269 35.74680278 -2.63500977 37.9465332 C-3.69006019 41.32068773 -4.75209324 44.69259391 -5.81445312 48.06445312 C-6.48480137 50.20559573 -7.15473784 52.3468673 -7.82421875 54.48828125 C-8.14291428 55.49764236 -8.4616098 56.50700348 -8.78996277 57.54695129 C-9.08059097 58.48189926 -9.37121918 59.41684723 -9.6706543 60.38012695 C-9.92807907 61.20205032 -10.18550385 62.02397369 -10.45072937 62.87080383 C-11.12489651 65.11766579 -11.12489651 65.11766579 -11 68 C1.21 68 13.42 68 26 68 C24.01320166 60.05280662 21.94011317 52.31718726 19.42578125 44.546875 C19.09708542 43.52064026 18.76838959 42.49440552 18.42973328 41.43707275 C17.39423285 38.2068871 16.35346853 34.9784271 15.3125 31.75 C14.60316445 29.54047729 13.89417701 27.3308428 13.18554688 25.12109375 C11.46104669 19.74609911 9.73223885 14.37250532 8 9 C7.67 9 7.34 9 7 9 Z " fill="#00AAB8" transform="translate(319,186)"/>
<path d="M0 0 C1.15249741 0.00222061 2.30499481 0.00444122 3.49241638 0.00672913 C5.4443264 0.00684242 5.4443264 0.00684242 7.43566895 0.00695801 C8.86661313 0.01206543 10.29755694 0.01728144 11.72850037 0.02259827 C13.18438672 0.02446249 14.64027369 0.02588637 16.09616089 0.02688599 C19.93488791 0.03071086 23.77357731 0.04054088 27.61228943 0.05158997 C31.52667227 0.06180474 35.44106117 0.06638375 39.35545349 0.07142639 C47.04101755 0.08216318 54.72655057 0.09923923 62.41209412 0.12025452 C62.41209412 3.42025452 62.41209412 6.72025452 62.41209412 10.12025452 C44.92209412 10.12025452 27.43209412 10.12025452 9.41209412 10.12025452 C9.41209412 23.32025452 9.41209412 36.52025452 9.41209412 50.12025452 C25.91209412 50.12025452 42.41209412 50.12025452 59.41209412 50.12025452 C60.41209412 55.12025452 60.41209412 55.12025452 59.41209412 60.12025452 C42.91209412 60.12025452 26.41209412 60.12025452 9.41209412 60.12025452 C9.74209412 74.97025452 10.07209412 89.82025452 10.41209412 105.12025452 C27.90209412 105.12025452 45.39209412 105.12025452 63.41209412 105.12025452 C63.41209412 108.42025452 63.41209412 111.72025452 63.41209412 115.12025452 C41.96209412 115.45025452 20.51209412 115.78025452 -1.58790588 116.12025452 C-2.63199315 112.98799272 -2.70265744 110.84372485 -2.68556213 107.55873108 C-2.68229416 106.40773926 -2.67902618 105.25674744 -2.67565918 104.07087708 C-2.66732559 102.81357788 -2.658992 101.55627869 -2.65040588 100.26087952 C-2.64411625 98.24872002 -2.63783716 96.23656046 -2.63201046 94.22439957 C-2.62512299 92.07973034 -2.61607492 89.93507931 -2.60649109 87.79042053 C-2.57421273 80.39518334 -2.55901716 72.99993188 -2.55274963 65.60462952 C-2.5520793 64.86351929 -2.55140896 64.12240906 -2.55071831 63.35884094 C-2.54233013 47.1080615 -2.85650097 30.86915827 -3.32032776 14.62513733 C-3.34505661 13.70553223 -3.36978546 12.78592712 -3.39526367 11.8384552 C-3.44160419 10.1386507 -3.49247136 8.4389611 -3.54873657 6.73945618 C-3.60003671 4.86704608 -3.59988861 2.99332891 -3.58790588 1.12025452 C-2.58790588 0.12025452 -2.58790588 0.12025452 0 0 Z " fill="#00AAB8" transform="translate(296.58790588378906,34.87974548339844)"/>
<path d="M0 0 C8.05924516 5.40629079 12.66696312 13.26786865 14.7265625 22.7109375 C15.33134994 27.77387236 15.32104764 32.91550136 15 38 C14 39 14 39 11.56394958 39.12025452 C10.48251175 39.11803391 9.40107391 39.11581329 8.28686523 39.11352539 C7.0656749 39.11344986 5.84448456 39.11337433 4.58628845 39.11329651 C3.24372314 39.10818911 1.90115825 39.10297311 0.55859375 39.09765625 C-0.80761158 39.09579199 -2.17381757 39.09436813 -3.5400238 39.09336853 C-7.14201695 39.08954394 -10.74397 39.07971417 -14.34594727 39.06866455 C-18.01903745 39.05844916 -21.69213409 39.05387064 -25.36523438 39.04882812 C-32.57684123 39.03809184 -39.788415 39.02101614 -47 39 C-46.389885 41.5708763 -45.7715826 44.13931098 -45.1484375 46.70703125 C-44.97755615 47.43088013 -44.8066748 48.154729 -44.63061523 48.9005127 C-42.65563079 56.97769267 -39.30339954 63.48954885 -32 68 C-23.83770417 72.45348878 -15.95030897 73.32892722 -6.88671875 71.3046875 C-0.14179356 69.26492613 5.39635002 66.24518938 11 62 C11.66 62.33 12.32 62.66 13 63 C13.41447416 72.31737908 13.41447416 72.31737908 10.3515625 75.9609375 C0.04898994 83.28803784 -12.79401914 84.05721094 -25 83 C-36.42579167 80.91355109 -45.0381717 75.71806874 -51.71875 66.1796875 C-59.17453295 53.49576406 -60.01837879 37.63817594 -56.875 23.4375 C-53.80492885 13.21344909 -48.05951708 5.21003927 -38.8515625 -0.28125 C-27.76831177 -6.04948458 -10.74367948 -6.83135846 0 0 Z M-38.2421875 11.12890625 C-43.0980396 16.29769104 -44.85561277 22.13367662 -46 29 C-29.83 29 -13.66 29 3 29 C3 20.44092843 1.07006417 15.35565154 -4.6875 9.0625 C-15.79075406 2.14915313 -28.03533372 2.84358567 -38.2421875 11.12890625 Z " fill="#00AAB8" transform="translate(766,220)"/>
<path d="M0 0 C9.4868537 6.679692 14.30159515 15.54360664 16.55859375 26.78125 C18.43845401 40.48925759 17.68857945 56.09914072 10.1875 68.125 C4.31083462 75.83812332 -3.34704638 81.18257001 -13 83 C-25.46448649 83.85623162 -36.42191253 83.20903081 -46.4375 74.875 C-56.23658352 65.31184947 -58.85875098 52.70439871 -59.25 39.4375 C-59.08874686 26.68237655 -56.59435705 15.39133587 -47.99609375 5.75390625 C-36.41835255 -5.53387363 -14.08572531 -9.16518403 0 0 Z M-39.375 12.125 C-47.52817714 22.86502088 -48.23123065 36.59882362 -46.5390625 49.51953125 C-44.83922608 58.10870468 -41.80623656 63.47226856 -35.4375 69.375 C-29.10904606 73.59396929 -22.43036324 74.56746307 -15 73.4375 C-8.77490514 71.98402163 -4.27235845 69.07606793 -0.46484375 63.921875 C6.26669322 52.69610489 6.53451074 38.87627168 4.34765625 26.2265625 C2.18229663 18.25283478 -1.0968692 12.25330607 -8.06640625 7.62890625 C-18.14373916 2.41897922 -31.40503615 3.67563983 -39.375 12.125 Z " fill="#00AAB8" transform="translate(831,69)"/>
<path d="M0 0 C0.91652344 -0.020625 1.83304688 -0.04125 2.77734375 -0.0625 C9.67866382 -0.10187986 15.41919052 0.58071017 20.9921875 5.046875 C21.53101563 5.69140625 22.06984375 6.3359375 22.625 7 C23.45644531 7.95132813 23.45644531 7.95132813 24.3046875 8.921875 C27.41904746 13.93851969 28.0020691 19.30466707 28.06884766 25.10327148 C28.07889328 25.74802933 28.0889389 26.39278717 28.09928894 27.05708313 C28.12987148 29.16174528 28.14708546 31.26628177 28.1640625 33.37109375 C28.18279431 34.84083621 28.2023692 36.31056815 28.2227478 37.7802887 C28.27386263 41.6287106 28.31359812 45.47716728 28.35089111 49.32574463 C28.39106101 53.26086893 28.4420938 57.19585111 28.4921875 61.13085938 C28.58870193 68.83714173 28.67318413 76.54349343 28.75 84.25 C21.16964286 86.58928571 21.16964286 86.58928571 16.75 85.25 C16.42 83.93 16.09 82.61 15.75 81.25 C15.00234375 81.59933594 14.2546875 81.94867188 13.484375 82.30859375 C12.49953125 82.76363281 11.5146875 83.21867187 10.5 83.6875 C9.52546875 84.13996094 8.5509375 84.59242188 7.546875 85.05859375 C-0.5467701 88.5063057 -10.40577133 88.66434256 -18.6875 85.6875 C-24.79388557 82.83517516 -28.78108157 78.79612527 -32.125 73 C-34.79585503 64.09714989 -35.28370266 55.31740532 -31.05859375 46.8671875 C-25.57834654 37.81805996 -18.45766913 34.84060699 -8.48046875 32.1640625 C-0.19219874 30.24903911 8.31686486 29.29780437 16.75 28.25 C15.79472407 19.31526031 15.79472407 19.31526031 10.75 12.25 C3.23463961 8.40066907 -5.32964387 9.75994813 -13.0625 12.1875 C-14.10019531 12.54714844 -15.13789062 12.90679687 -16.20703125 13.27734375 C-19.21978095 14.24034077 -22.1226866 14.80591215 -25.25 15.25 C-24.92 11.95 -24.59 8.65 -24.25 5.25 C-22.66800369 4.60089846 -21.08434276 3.95585306 -19.5 3.3125 C-18.61828125 2.95285156 -17.7365625 2.59320313 -16.828125 2.22265625 C-11.17014707 0.08805548 -5.99840084 0.03318617 0 0 Z M-18.25 48.25 C-21.53714904 51.77070963 -22.50602162 55.51394904 -22.75 60.25 C-22.47742823 66.43455945 -20.3161187 70.00157671 -16.125 74.5625 C-9.68216527 78.34416386 -2.92111306 78.88097401 4.28125 77.16015625 C8.8562102 75.47350162 13.28538695 72.71461305 16.75 69.25 C16.83790975 66.95848583 16.85694038 64.66427476 16.84765625 62.37109375 C16.8462413 61.6844313 16.84482635 60.99776886 16.84336853 60.29029846 C16.83775479 58.08932199 16.82520007 55.88844591 16.8125 53.6875 C16.80748676 52.19856917 16.80292355 50.70963676 16.79882812 49.22070312 C16.78778093 45.56376925 16.77050713 41.90689442 16.75 38.25 C4.92275014 38.09817394 -9.06085712 40.23845736 -18.25 48.25 Z " fill="#00AAB8" transform="translate(980.25,64.75)"/>
<path d="M0 0 C0.91652344 -0.020625 1.83304688 -0.04125 2.77734375 -0.0625 C9.98628647 -0.10363519 15.17395372 1.21815552 21.5 4.8125 C28.71560357 12.62940387 28.35355496 22.86235213 28.359375 32.8828125 C28.3743846 34.37069473 28.3911175 35.85856047 28.40948486 37.34640503 C28.45285962 41.22937864 28.47309032 45.11212764 28.48822021 48.99530029 C28.50790018 52.97095865 28.54985725 56.9463782 28.58984375 60.921875 C28.66482137 68.69785199 28.71530803 76.47372772 28.75 84.25 C21.16964286 86.58928571 21.16964286 86.58928571 16.75 85.25 C16.42 83.93 16.09 82.61 15.75 81.25 C15.00556641 81.64832031 15.00556641 81.64832031 14.24609375 82.0546875 C4.32554973 87.21261741 -6.03994041 89.2822221 -17.0625 86.1875 C-23.3975622 83.68375299 -28.48347688 79.30685647 -31.75 73.3125 C-34.59114896 65.9305862 -34.95749151 55.01890917 -31.75 47.6875 C-26.51253185 39.3626822 -18.35851699 34.8678498 -9.09375 32.4140625 C-0.54967326 30.47047748 8.0575479 29.28481573 16.75 28.25 C15.79472407 19.31526031 15.79472407 19.31526031 10.75 12.25 C3.23463961 8.40066907 -5.32964387 9.75994813 -13.0625 12.1875 C-14.10019531 12.54714844 -15.13789062 12.90679687 -16.20703125 13.27734375 C-19.21978095 14.24034077 -22.1226866 14.80591215 -25.25 15.25 C-24.92 11.95 -24.59 8.65 -24.25 5.25 C-22.66800369 4.60089846 -21.08434276 3.95585306 -19.5 3.3125 C-18.61828125 2.95285156 -17.7365625 2.59320313 -16.828125 2.22265625 C-11.17014707 0.08805548 -5.99840084 0.03318617 0 0 Z M-18.9609375 48.99609375 C-22.11856884 53.33129479 -23.03354125 57.46481587 -22.73046875 62.7890625 C-21.7712232 67.70227144 -19.47394044 71.427531 -15.60546875 74.59765625 C-9.20088019 78.63124589 -2.96995965 78.7007836 4.17578125 77.125 C8.82097182 75.54605814 13.26576667 72.73423333 16.75 69.25 C16.83790975 66.95848583 16.85694038 64.66427476 16.84765625 62.37109375 C16.8462413 61.6844313 16.84482635 60.99776886 16.84336853 60.29029846 C16.83775479 58.08932199 16.82520007 55.88844591 16.8125 53.6875 C16.80748676 52.19856917 16.80292355 50.70963676 16.79882812 49.22070312 C16.78778093 45.56376925 16.77050713 41.90689442 16.75 38.25 C5.29643065 38.09583887 -10.60045265 40.46381812 -18.9609375 48.99609375 Z " fill="#00AAB8" transform="translate(650.25,64.75)"/>
<path d="M0 0 C3.96 0 7.92 0 12 0 C12.01458252 1.84150635 12.02916504 3.6830127 12.04418945 5.58032227 C12.09595838 11.6832816 12.16127562 17.78598 12.23571491 23.88870335 C12.28033056 27.58666848 12.31960552 31.28452568 12.34643555 34.98266602 C12.37255719 38.55552792 12.4130207 42.12797253 12.46318626 45.70057487 C12.47979545 47.05957767 12.49134664 48.41865255 12.49761391 49.77774239 C12.53971353 58.07239224 12.5839008 64.44520107 17.6875 71.25 C23.5306725 75.67186027 28.92711226 76.59306363 36.05078125 75.71875 C41.46927552 74.3982163 46.16464144 71.70866297 51 69 C52.33089237 68.32847359 53.6638002 67.66090265 55 67 C54.96970703 65.92967529 54.93941406 64.85935059 54.90820312 63.7565918 C54.31277526 42.49959226 53.81695485 21.26703013 54 0 C55.81242052 -0.02687279 57.62495233 -0.04633715 59.4375 -0.0625 C60.44683594 -0.07410156 61.45617187 -0.08570312 62.49609375 -0.09765625 C65 0 65 0 66 1 C66.12505085 3.58549772 66.186048 6.14561411 66.20532227 8.73266602 C66.21522186 9.5423584 66.22512146 10.35205078 66.23532104 11.1862793 C66.26702987 13.87545805 66.29173035 16.5646545 66.31640625 19.25390625 C66.33696769 21.11336234 66.35796394 22.97281368 66.37937927 24.83226013 C66.43468366 29.73623815 66.4840559 34.64025893 66.53222656 39.54431152 C66.58238066 44.54455388 66.63809845 49.54473382 66.69335938 54.54492188 C66.80104321 64.36322799 66.90246532 74.18158819 67 84 C65.18818595 84.19401633 63.37551468 84.38004375 61.5625 84.5625 C60.04849609 84.71912109 60.04849609 84.71912109 58.50390625 84.87890625 C57.26447266 84.93884766 57.26447266 84.93884766 56 85 C55 84 55 84 54.9375 80.9375 C54.958125 79.968125 54.97875 78.99875 55 78 C54.53851562 78.32613281 54.07703125 78.65226562 53.6015625 78.98828125 C42.83583637 86.20089224 30.86749913 87.76547488 18.18359375 85.49609375 C11.73484429 83.58656557 7.64692522 80.33314405 3.75 74.8125 C-0.73468605 66.12767489 -0.27185601 56.19102199 -0.1953125 46.6796875 C-0.19157317 45.32634696 -0.18873056 43.97300367 -0.18673706 42.61965942 C-0.17917285 39.09171818 -0.15958825 35.56394681 -0.1373291 32.03607178 C-0.11671341 28.42250871 -0.10770204 24.80891767 -0.09765625 21.1953125 C-0.07633398 14.130133 -0.04121253 7.0650956 0 0 Z " fill="#00AAB8" transform="translate(464,66)"/>
<path d="M0 0 C0 2.31 0 4.62 0 7 C1.55460938 6.25943359 1.55460938 6.25943359 3.140625 5.50390625 C4.5103271 4.85658128 5.88012375 4.20945634 7.25 3.5625 C7.93191406 3.23701172 8.61382813 2.91152344 9.31640625 2.57617188 C9.98027344 2.26357422 10.64414062 1.95097656 11.328125 1.62890625 C11.9355957 1.34088135 12.54306641 1.05285645 13.16894531 0.75610352 C17.97512329 -1.22852758 22.62146203 -1.24965027 27.75 -1.3125 C28.91015625 -1.35600586 28.91015625 -1.35600586 30.09375 -1.40039062 C37.30846743 -1.47907462 42.33028037 0.74557009 47.8125 5.375 C53.81225413 12.57470495 54.1333911 20.04449525 54.31640625 29 C54.34764587 30.29824203 54.34764587 30.29824203 54.3795166 31.62271118 C54.44512991 34.41505755 54.50412706 37.20749365 54.5625 40 C54.60530851 41.90804214 54.64819596 43.8160825 54.69116211 45.72412109 C54.96937558 58.48421676 55.13450742 71.23674078 55 84 C51.04 84 47.08 84 43 84 C42.970271 81.64838745 42.970271 81.64838745 42.93994141 79.24926758 C42.86332698 73.38030112 42.77469957 67.51156472 42.68261719 61.64282227 C42.64455654 59.11259535 42.60966566 56.58231854 42.578125 54.05200195 C42.53197284 50.39516476 42.47406536 46.73866439 42.4140625 43.08203125 C42.40251129 41.96794388 42.39096008 40.85385651 42.37905884 39.70600891 C42.54325672 24.73544119 42.54325672 24.73544119 36 12 C30.28861696 8.70203121 24.27478705 8.35920782 18 10 C11.76009961 12.14372057 5.77885017 14.32225046 1 19 C0.27823603 22.01419752 0.27823603 22.01419752 0.43237305 25.42089844 C0.4327507 26.72194519 0.43312836 28.02299194 0.43351746 29.36346436 C0.45904899 30.77877767 0.48512894 32.19408118 0.51171875 33.609375 C0.52104816 35.06096173 0.52816367 36.51256424 0.53315735 37.96417236 C0.55221776 41.77862267 0.60130829 45.59211593 0.65667725 49.40618896 C0.70789159 53.30060886 0.73067593 57.19518392 0.75585938 61.08984375 C0.80943005 68.72704864 0.89735575 76.36326812 1 84 C-2.96 84 -6.92 84 -11 84 C-11.02505615 82.11998291 -11.0501123 80.23996582 -11.07592773 78.30297852 C-11.16056658 72.02059357 -11.24879064 65.73826653 -11.33933926 59.45596409 C-11.39399504 55.65515573 -11.44730841 51.8543394 -11.49731445 48.0534668 C-11.74954031 25.00795492 -11.74954031 25.00795492 -13 2 C-3.72011121 -1.86005561 -3.72011121 -1.86005561 0 0 Z " fill="#00AAB8" transform="translate(876,66)"/>
<path d="M0 0 C2.01953125 1.265625 2.01953125 1.265625 2.84765625 3.140625 C3.12998087 6.63118394 2.5384138 9.806408 2.01953125 13.265625 C-1.46401868 12.81613469 -4.31835994 11.72262338 -7.48046875 10.265625 C-13.7750755 7.40349738 -20.34685686 5.91691297 -27.16796875 7.90234375 C-29.13010348 8.64175114 -31.05308067 9.44082256 -32.98046875 10.265625 C-33.97046875 10.595625 -34.96046875 10.925625 -35.98046875 11.265625 C-38.31194208 15.31502605 -38.83281011 19.70745165 -37.98046875 24.265625 C-33.61314977 30.89190208 -25.22549878 32.3438256 -17.98828125 34.4140625 C-9.03314871 37.00675072 -0.96916908 39.40488345 4.45703125 47.515625 C7.44891756 53.59289408 7.61304196 59.96708306 5.95703125 66.453125 C3.44474294 73.60866047 -0.35003162 77.64476052 -7.04296875 81.140625 C-18.51170619 86.61228173 -32.60415681 85.35681247 -44.34375 81.43359375 C-48.9743231 79.38242137 -48.9743231 79.38242137 -50.98046875 77.265625 C-51.15234375 74.56640625 -51.15234375 74.56640625 -50.73046875 71.578125 C-50.6015625 70.58425781 -50.47265625 69.59039062 -50.33984375 68.56640625 C-50.22125 67.80714844 -50.10265625 67.04789062 -49.98046875 66.265625 C-45.21622629 67.17962835 -41.20707254 69.65340354 -36.953125 71.890625 C-30.30086659 74.96762232 -22.70189275 75.41071866 -15.73046875 73.078125 C-11.41079265 71.26748233 -8.10068016 68.50604782 -5.98046875 64.265625 C-5.78288644 62.18997824 -5.78288644 62.18997824 -5.79296875 59.890625 C-5.77878906 59.11976563 -5.76460937 58.34890625 -5.75 57.5546875 C-6.01177372 54.95469769 -6.62873002 53.49477452 -7.98046875 51.265625 C-13.87352246 46.96770394 -21.63261366 45.48425919 -28.55859375 43.64257812 C-37.20688876 41.20858712 -43.69631844 37.63141028 -48.98046875 30.265625 C-50.98000914 24.26700382 -51.23515033 16.6756517 -49.0390625 10.70703125 C-45.28430756 4.48049406 -40.07387428 0.58577222 -33.3125 -1.96875 C-22.43504842 -4.46814099 -10.47624011 -3.69232518 0 0 Z " fill="#00AAB8" transform="translate(841.98046875,218.734375)"/>
<path d="M0 0 C0.02312283 11.06534858 0.04091478 22.13069145 0.05181217 33.19605923 C0.05704113 38.33359566 0.06413901 43.47111563 0.07543945 48.60864258 C0.08626787 53.5623141 0.09227674 58.51596974 0.09487724 63.46965218 C0.09673157 65.36397616 0.10035234 67.25829924 0.10573006 69.1526165 C0.11293989 71.79634386 0.11399097 74.44000471 0.11352539 77.08374023 C0.11712067 77.87495773 0.12071594 78.66617523 0.12442017 79.48136902 C0.11405216 84.88594784 0.11405216 84.88594784 -1 86 C-8.59 86 -16.18 86 -24 86 C-24 57.62 -24 29.24 -24 0 C-3 -1 -3 -1 0 0 Z " fill="#006DA4" transform="translate(62,62)"/>
<path d="M0 0 C2.1368792 6.32513374 4.16994072 12.67718752 6.14453125 19.0546875 C6.58293587 20.46622604 6.58293587 20.46622604 7.03019714 21.90628052 C7.95850951 24.89558197 8.88559408 27.88526218 9.8125 30.875 C11.02674368 34.78924896 12.24158914 38.70331051 13.45703125 42.6171875 C13.75247833 43.56865662 14.04792542 44.52012573 14.35232544 45.50042725 C17.20470093 54.67651066 20.09629398 63.84004832 23 73 C24.80307605 67.71215968 26.59370626 62.42021818 28.375 57.125 C28.64366882 56.32643585 28.91233765 55.5278717 29.18914795 54.70510864 C33.76098315 41.07483371 37.95409832 27.36030793 41.87646484 13.52978516 C42.073349 12.841884 42.27023315 12.15398285 42.4730835 11.44523621 C43.00187905 9.59495075 43.52390221 7.74273355 44.04541016 5.89038086 C45 3 45 3 47 0 C49.6015625 -0.29296875 49.6015625 -0.29296875 52.625 -0.1875 C53.62789062 -0.16042969 54.63078125 -0.13335937 55.6640625 -0.10546875 C56.43492187 -0.07066406 57.20578125 -0.03585938 58 0 C59.41304674 4.23914022 57.74434674 7.17051739 56.23828125 11.1796875 C55.78501213 12.42264084 55.78501213 12.42264084 55.32258606 13.69070435 C54.6681918 15.48442952 54.00999209 17.27676989 53.34844971 19.06787109 C51.60000577 23.80565661 49.88196268 28.55434733 48.16796875 33.3046875 C47.81814941 34.27372009 47.46833008 35.24275269 47.10791016 36.2411499 C43.00490887 47.67361642 39.28390507 59.22511525 35.5949707 70.79638672 C35.35759689 71.54032684 35.12022308 72.28426697 34.87565613 73.05075073 C34.43497224 74.43480277 33.99621832 75.8194714 33.55976868 77.2048645 C32.81676909 79.54855552 32.10150944 81.79698113 31 84 C25.39 84 19.78 84 14 84 C13.32420898 81.96739014 12.64841797 79.93478027 11.95214844 77.84057617 C9.70642204 71.08674606 7.45899942 64.33348125 5.21076584 57.58048534 C3.84917846 53.49052885 2.48814369 49.40039028 1.12841797 45.30981445 C-0.18648112 41.35416485 -1.50289202 37.39902122 -2.82030487 33.44420815 C-3.31993015 31.94350011 -3.8190319 30.44261767 -4.31757355 28.9415493 C-5.02180699 26.82147408 -5.7278445 24.70200922 -6.43457031 22.58276367 C-6.65380283 21.92285022 -6.87303535 21.26293676 -7.09891129 20.58302593 C-8.72984881 15.70891453 -10.51520383 10.90680201 -12.41326904 6.1308136 C-13 4 -13 4 -12 1 C-7.9472484 0.01751476 -4.16138263 -0.08159574 0 0 Z " fill="#00AAB8" transform="translate(533,217)"/>
<path d="M0 0 C1.34191406 -0.03673828 1.34191406 -0.03673828 2.7109375 -0.07421875 C9.20934568 -0.10255483 13.91771252 1.31669078 19.625 4.375 C20.285 4.705 20.945 5.035 21.625 5.375 C21.70659574 9.53638263 21.60748524 13.3222484 20.625 17.375 C17.35837857 16.71719065 14.84332379 15.48466729 11.9375 13.875 C4.33058757 10.07154379 -0.83467153 9.71449209 -9.0625 12 C-17.28007895 14.8221022 -21.13148055 18.26188101 -25.296875 25.8984375 C-29.70359611 36.02112294 -30.25324114 48.95626965 -26.8125 59.5 C-23.90105677 66.12709631 -19.76305205 71.43390625 -13.3125 74.875 C-5.77003241 77.76305597 3.23991734 77.75820673 10.6875 74.625 C13.99389106 72.90739425 16.7499975 70.74264912 19.625 68.375 C20.615 68.375 21.605 68.375 22.625 68.375 C23.24607905 78.38127353 23.24607905 78.38127353 21.0625 81.875 C10.98367845 88.07735172 -0.86943741 88.78703457 -12.36328125 86.87890625 C-22.22073534 84.16542355 -29.41786476 78.64879895 -35.375 70.375 C-42.78268876 57.2033404 -42.60539803 40.93193926 -38.8125 26.6875 C-35.28030342 16.33059503 -29.4898045 9.37047554 -20.18359375 3.71484375 C-13.47578483 0.51487371 -7.29961915 0.01042803 0 0 Z " fill="#00AAB8" transform="translate(419.375,215.625)"/>
<path d="M0 0 C2.06716792 1.59088457 2.80011521 2.79939404 3.64453125 5.265625 C3.62109375 7.625 3.62109375 7.625 3.26953125 10.015625 C3.15867187 10.81484375 3.0478125 11.6140625 2.93359375 12.4375 C2.79050781 13.34242187 2.79050781 13.34242187 2.64453125 14.265625 C-0.63055382 13.88032087 -2.37237992 13.25371031 -5.10546875 11.328125 C-10.95307605 7.61714344 -17.19773669 6.62240001 -24.03125 7.671875 C-32.35318815 9.7978155 -38.60773477 14.11096181 -43.35546875 21.265625 C-48.48995955 31.36408846 -48.74245956 43.25494413 -45.73046875 54.015625 C-43.08984866 61.68075831 -39.9432778 67.08265572 -32.85546875 71.265625 C-24.85908586 74.81823487 -15.92087155 74.55601785 -7.79296875 71.515625 C-4.21090716 69.87140001 -1.36546008 67.81955703 1.64453125 65.265625 C2.63453125 65.265625 3.62453125 65.265625 4.64453125 65.265625 C4.91355009 75.80780091 4.91355009 75.80780091 2.04296875 79.10546875 C-7.88792559 85.41292867 -20.51975541 85.74422854 -31.8125 83.61328125 C-42.32427131 80.46919561 -49.39761171 74.64111455 -54.9140625 65.1953125 C-61.4874261 51.83481738 -61.22303003 35.27850288 -56.61328125 21.3203125 C-52.52127555 11.38258436 -45.74864753 4.19341992 -36.16796875 -0.671875 C-25.40761011 -4.8115289 -10.54284402 -4.78702107 0 0 Z " fill="#00AAB8" transform="translate(606.35546875,67.734375)"/>
<path d="M0 0 C0 7.59 0 15.18 0 23 C6.27 23 12.54 23 19 23 C19 25.97 19 28.94 19 32 C18 33 18 33 16.23413086 33.11352539 C15.48526611 33.10828857 14.73640137 33.10305176 13.96484375 33.09765625 C13.15595703 33.09443359 12.34707031 33.09121094 11.51367188 33.08789062 C10.66353516 33.07951172 9.81339844 33.07113281 8.9375 33.0625 C8.08349609 33.05798828 7.22949219 33.05347656 6.34960938 33.04882812 C4.23304337 33.03700373 2.11651315 33.01906769 0 33 C0.061289 40.60651701 0.13845108 48.21273369 0.23571491 55.81887341 C0.28038664 59.35098666 0.31964938 62.88298544 0.34643555 66.4152832 C0.3774908 70.47897322 0.43227834 74.54204542 0.48828125 78.60546875 C0.49467117 79.8702153 0.5010611 81.13496185 0.50764465 82.43803406 C0.52743881 83.61888077 0.54723297 84.79972748 0.56762695 86.01635742 C0.57873001 87.05338303 0.58983307 88.09040863 0.60127258 89.15885925 C1.06320993 92.45040369 2.00924953 94.354422 4 97 C8.77172037 98.55358338 13.14119368 97.7539527 18 97 C19.67830848 100.35661695 18.6353188 103.36135594 18 107 C12.78884615 109.60557692 3.01607669 108.79094586 -2.47265625 107.3515625 C-6.7639738 105.14459919 -9.43595849 101.46508625 -11 97 C-12.2854932 90.30775382 -12.12662209 83.64213894 -12.09765625 76.84765625 C-12.0962413 75.59238632 -12.09482635 74.33711639 -12.09336853 73.04380798 C-12.08873576 69.72794649 -12.07977139 66.41215548 -12.06866455 63.09631348 C-12.05838292 59.70418909 -12.05385653 56.31205739 -12.04882812 52.91992188 C-12.03782571 46.27992614 -12.02057483 39.6399727 -12 33 C-16.29 33 -20.58 33 -25 33 C-25.09765625 26.06640625 -25.09765625 26.06640625 -25 24 C-24 23 -24 23 -21.05859375 22.90234375 C-19.86363281 22.91394531 -18.66867187 22.92554688 -17.4375 22.9375 C-15.64119141 22.95103516 -15.64119141 22.95103516 -13.80859375 22.96484375 C-12.88175781 22.97644531 -11.95492188 22.98804688 -11 23 C-11.33 22.34 -11.66 21.68 -12 21 C-12.08308638 19.62451844 -12.10736016 18.24514204 -12.09765625 16.8671875 C-12.09443359 16.06152344 -12.09121094 15.25585938 -12.08789062 14.42578125 C-12.07951172 13.58402344 -12.07113281 12.74226562 -12.0625 11.875 C-12.05798828 11.02550781 -12.05347656 10.17601562 -12.04882812 9.30078125 C-12.03702874 7.20049091 -12.01909306 5.1002367 -12 3 C-10.37604003 2.49663233 -8.75079459 1.99741024 -7.125 1.5 C-6.22007812 1.2215625 -5.31515625 0.943125 -4.3828125 0.65625 C-2 0 -2 0 0 0 Z " fill="#00AAB8" transform="translate(468,194)"/>
<path d="M0 0 C0 7.59 0 15.18 0 23 C5.87883003 22.96042231 5.87883003 22.96042231 11.75756836 22.90991211 C12.48596924 22.90741455 13.21437012 22.90491699 13.96484375 22.90234375 C14.7137085 22.89710693 15.46257324 22.89187012 16.23413086 22.88647461 C18 23 18 23 19 24 C19.1328125 25.8125 19.1328125 25.8125 19.125 28 C19.12886719 29.0828125 19.12886719 29.0828125 19.1328125 30.1875 C19 32 19 32 18 33 C16.58429877 33.08651611 15.164405 33.10704904 13.74609375 33.09765625 C12.89208984 33.09443359 12.03808594 33.09121094 11.15820312 33.08789062 C10.26037109 33.07951172 9.36253906 33.07113281 8.4375 33.0625 C7.53580078 33.05798828 6.63410156 33.05347656 5.70507812 33.04882812 C3.46998686 33.03700225 1.23502563 33.0205222 -1 33 C-0.90728483 40.38344096 -0.79992357 47.76656732 -0.68261719 55.1496582 C-0.64445157 57.65872428 -0.60957754 60.16784275 -0.578125 62.67700195 C-0.53220433 66.29397241 -0.47425441 69.91058599 -0.4140625 73.52734375 C-0.40251129 74.64020248 -0.39096008 75.75306122 -0.37905884 76.89964294 C-0.54628406 87.75972038 -0.54628406 87.75972038 4 97 C8.93691501 98.29300155 13.03908866 97.76979659 18 97 C18.05399736 98.45792884 18.09279177 99.91642712 18.125 101.375 C18.14820313 102.18710938 18.17140625 102.99921875 18.1953125 103.8359375 C18 106 18 106 16 108 C13.3701299 108.22701793 10.87944026 108.32428065 8.25 108.3125 C7.54617188 108.32861328 6.84234375 108.34472656 6.1171875 108.36132812 C0.24179994 108.36678852 -3.93106127 107.01146821 -8.25 102.8125 C-12.91851468 95.30952998 -12.26583931 86.84782605 -12.1953125 78.3125 C-12.1924826 77.01425293 -12.18965271 75.71600586 -12.18673706 74.37841797 C-12.17915637 70.95237308 -12.15955685 67.52650188 -12.1373291 64.1005249 C-12.11674969 60.59438424 -12.10770966 57.0882151 -12.09765625 53.58203125 C-12.07630474 46.72127629 -12.04116905 39.8606644 -12 33 C-16.29 33 -20.58 33 -25 33 C-26 28 -26 28 -25 23 C-20.71 23 -16.42 23 -12 23 C-12 16.4 -12 9.8 -12 3 C-7.88303535 1.35321414 -4.42217182 0 0 0 Z " fill="#00AAB8" transform="translate(714,43)"/>
<path d="M0 0 C0.0270817 2.72923388 0.04687847 5.45819637 0.0625 8.1875 C0.07087891 8.95642578 0.07925781 9.72535156 0.08789062 10.51757812 C0.09272461 11.64389648 0.09272461 11.64389648 0.09765625 12.79296875 C0.10551147 13.82200317 0.10551147 13.82200317 0.11352539 14.87182617 C0 17 0 17 -1 22 C5.27 22 11.54 22 18 22 C19 26 19 26 18 32 C11.73 32 5.46 32 -1 32 C-0.91432413 39.32842118 -0.82048452 46.65662996 -0.71247292 53.98475838 C-0.66263498 57.38790984 -0.61630456 60.79103213 -0.578125 64.19433594 C-0.53402425 68.11150262 -0.4744247 72.02836132 -0.4140625 75.9453125 C-0.40251129 77.16115021 -0.39096008 78.37698792 -0.37905884 79.62966919 C-0.35918915 80.77039886 -0.33931946 81.91112854 -0.31884766 83.08642578 C-0.30552399 84.08570099 -0.29220032 85.0849762 -0.2784729 86.11453247 C0.03682974 89.38162069 0.6679035 91.99691227 2 95 C7.71333216 97.26563172 12.0206211 97.06774623 18 96 C18.05399736 97.45792884 18.09279177 98.91642712 18.125 100.375 C18.14820313 101.18710937 18.17140625 101.99921875 18.1953125 102.8359375 C18 105 18 105 16 107 C13.3701299 107.22701793 10.87944026 107.32428065 8.25 107.3125 C7.54617188 107.32861328 6.84234375 107.34472656 6.1171875 107.36132812 C1.3519251 107.36575681 -1.85322549 106.56705089 -6 104 C-10.93085373 98.93217812 -12.25587019 93.66471474 -12.22705078 86.71923828 C-12.22682419 84.88801926 -12.22682419 84.88801926 -12.22659302 83.01980591 C-12.21627045 81.71647308 -12.20594788 80.41314026 -12.1953125 79.0703125 C-12.19157802 77.71125497 -12.1887331 76.35219474 -12.18673706 74.99313354 C-12.17913483 71.43225551 -12.1595161 67.87154303 -12.1373291 64.31072998 C-12.11679679 60.67071776 -12.10771962 57.03067855 -12.09765625 53.390625 C-12.07626662 46.26034932 -12.04217234 39.13018552 -12 32 C-13.39025391 32.01740234 -13.39025391 32.01740234 -14.80859375 32.03515625 C-16.00613281 32.04417969 -17.20367188 32.05320313 -18.4375 32.0625 C-19.63246094 32.07410156 -20.82742188 32.08570313 -22.05859375 32.09765625 C-25 32 -25 32 -26 31 C-26.1328125 29.1875 -26.1328125 29.1875 -26.125 27 C-26.12757813 26.278125 -26.13015625 25.55625 -26.1328125 24.8125 C-26 23 -26 23 -25 22 C-20.66469082 21.85606543 -16.33842269 21.95787939 -12 22 C-12 15.4 -12 8.8 -12 2 C-3 -1 -3 -1 0 0 Z " fill="#00AAB8" transform="translate(650,195)"/>
<path d="M0 0 C0.13177488 13.27578916 0.26225117 26.55159043 0.39115143 39.82740784 C0.4510691 45.99448258 0.51140397 52.16155261 0.57275391 58.32861328 C0.63214432 64.30034421 0.69035845 70.27208564 0.74781799 76.24383545 C0.76973629 78.5015299 0.7920509 80.75922055 0.81480408 83.01690674 C0.96893151 98.34514955 1.02703756 113.67099123 1 129 C-2.96 129 -6.92 129 -11 129 C-11.01030746 127.71865677 -11.02061493 126.43731354 -11.03123474 125.11714172 C-11.12962592 112.95339066 -11.23241241 100.78968333 -11.33933926 88.62600422 C-11.39415474 82.37478993 -11.44750119 76.12357077 -11.49731445 69.87231445 C-11.54557755 63.82274629 -11.59792912 57.77322525 -11.65294075 51.72371483 C-11.67308795 49.43285507 -11.69184072 47.14198255 -11.70907402 44.85109901 C-11.81783111 30.54316549 -12.19970214 16.28661375 -13 2 C-8.46298506 0.54815522 -4.81938524 -0.23509196 0 0 Z " fill="#00AAB8" transform="translate(1041,21)"/>
<path d="M0 0 C0.91615158 2.74845473 1.11794605 4.30782743 1.09765625 7.13134766 C1.09438828 7.9666803 1.0911203 8.80201294 1.0877533 9.66265869 C1.07525291 11.02460358 1.07525291 11.02460358 1.0625 12.4140625 C1.05402306 14.37809204 1.04564497 16.34212201 1.03735352 18.30615234 C1.0280632 19.85456818 1.0280632 19.85456818 1.01858521 21.43426514 C0.91727811 38.82681384 1.0214048 56.18182008 1.73242188 73.56103516 C1.80493164 75.42961182 1.80493164 75.42961182 1.87890625 77.3359375 C1.9260376 78.41407715 1.97316895 79.4922168 2.02172852 80.60302734 C2 83 2 83 1 84 C-2.96 84 -6.92 84 -11 84 C-11.33 56.94 -11.66 29.88 -12 2 C-7.14786828 0.38262276 -4.81798756 -0.22942798 0 0 Z " fill="#00AAB8" transform="translate(613,217)"/>
<path d="M0 0 C0.14599903 7.62322644 0.28788993 15.24652232 0.42724609 22.86987305 C0.47485698 25.44996778 0.52332555 28.03004687 0.57275391 30.61010742 C0.91297308 48.40912504 1.06458863 66.1977595 1 84 C-2.96 84 -6.92 84 -11 84 C-11.13203225 75.98360564 -11.26270545 67.96719237 -11.39115143 59.95073986 C-11.45088016 56.22617942 -11.51114608 52.50162948 -11.57275391 48.77709961 C-11.83581577 32.85122056 -12.0936601 16.92872057 -12 1 C-7.93631321 0.22596442 -4.13574827 -0.0984702 0 0 Z " fill="#00AAB8" transform="translate(509,217)"/>
<path d="M0 0 C0.13274274 7.55614588 0.26324574 15.11232792 0.39115143 22.66855717 C0.45065536 26.1800172 0.51083422 29.69146253 0.57275391 33.20288086 C0.87081211 50.1361943 1.07617145 67.06348914 1 84 C-2.96 84 -6.92 84 -11 84 C-11.1325463 76.57423478 -11.26328838 69.14844153 -11.39115143 61.72259426 C-11.45063762 58.27166771 -11.51080937 54.82075642 -11.57275391 51.36987305 C-11.87361104 34.57840361 -12.07519416 17.79440759 -12 1 C-7.92855518 0.2244867 -4.13880432 -0.04637316 0 0 Z " fill="#00AAB8" transform="translate(755,66)"/>
<path d="M0 0 C-0.00523682 0.70455322 -0.01047363 1.40910645 -0.01586914 2.13500977 C-0.12786108 19.88218827 0.11864179 37.59325377 0.64428711 55.33227539 C0.9235249 64.89269997 1.06396141 74.4351036 1 84 C-2.96 84 -6.92 84 -11 84 C-11.02505615 82.72398926 -11.0501123 81.44797852 -11.07592773 80.13330078 C-11.59020165 54.08445003 -12.16197887 28.04063087 -13 2 C-8.44102516 0.35980225 -4.86182168 -0.19447287 0 0 Z " fill="#00AAB8" transform="translate(691,217)"/>
<path d="M0 0 C2.908125 0.0309375 2.908125 0.0309375 5.875 0.0625 C5.875 4.0225 5.875 7.9825 5.875 12.0625 C2.18128427 13.90935787 1.04741362 14.32018025 -2.8125 14.25 C-3.99392578 14.24033203 -3.99392578 14.24033203 -5.19921875 14.23046875 C-7.125 14.0625 -7.125 14.0625 -8.125 13.0625 C-8.19744053 11.04285801 -8.20877188 9.02082876 -8.1875 7 C-8.17847656 5.89527344 -8.16945313 4.79054688 -8.16015625 3.65234375 C-8.14855469 2.79769531 -8.13695312 1.94304688 -8.125 1.0625 C-5.36047967 -0.31976016 -3.0788637 -0.03275387 0 0 Z " fill="#00AAB8" transform="translate(750.125,26.9375)"/>
<path d="M0 0 C4.58984375 0.09765625 4.58984375 0.09765625 9.1796875 0.1953125 C9.1796875 4.1553125 9.1796875 8.1153125 9.1796875 12.1953125 C5.48597177 14.04217037 4.35210112 14.45299275 0.4921875 14.3828125 C-0.68923828 14.37314453 -0.68923828 14.37314453 -1.89453125 14.36328125 C-3.8203125 14.1953125 -3.8203125 14.1953125 -4.8203125 13.1953125 C-4.94519008 11.38603969 -4.99602096 9.57135143 -5.0078125 7.7578125 C-5.02199219 6.76910156 -5.03617188 5.78039062 -5.05078125 4.76171875 C-4.71291211 0.99934545 -3.73059727 0.25835161 0 0 Z " fill="#00AAB8" transform="translate(604.8203125,177.8046875)"/>
<path d="M0 0 C4.58984375 0.09765625 4.58984375 0.09765625 9.1796875 0.1953125 C9.1796875 4.1553125 9.1796875 8.1153125 9.1796875 12.1953125 C5.48597177 14.04217037 4.35210112 14.45299275 0.4921875 14.3828125 C-0.68923828 14.37314453 -0.68923828 14.37314453 -1.89453125 14.36328125 C-3.8203125 14.1953125 -3.8203125 14.1953125 -4.8203125 13.1953125 C-4.94519008 11.38603969 -4.99602096 9.57135143 -5.0078125 7.7578125 C-5.02199219 6.76910156 -5.03617187 5.78039062 -5.05078125 4.76171875 C-4.71291211 0.99934545 -3.73059727 0.25835161 0 0 Z " fill="#00AAB8" transform="translate(500.8203125,177.8046875)"/>
<path d="M0 0 C1.093125 0.00257813 2.18625 0.00515625 3.3125 0.0078125 C4.405625 0.00523437 5.49875 0.00265625 6.625 0 C9.3125 0.1328125 9.3125 0.1328125 10.3125 1.1328125 C10.22247602 3.15690005 10.06608962 5.17825537 9.875 7.1953125 C9.77316406 8.30003906 9.67132812 9.40476563 9.56640625 10.54296875 C9.48261719 11.39761719 9.39882813 12.25226563 9.3125 13.1328125 C6.31769083 14.0051537 3.67674089 14.24111016 0.5625 14.1953125 C-0.23671875 14.18628906 -1.0359375 14.17726562 -1.859375 14.16796875 C-2.46265625 14.15636719 -3.0659375 14.14476562 -3.6875 14.1328125 C-3.71435938 11.98704613 -3.73383088 9.84118605 -3.75 7.6953125 C-3.76160156 6.50035156 -3.77320313 5.30539063 -3.78515625 4.07421875 C-3.65588833 0.1806689 -3.65588833 0.1806689 0 0 Z " fill="#00AAB8" transform="translate(681.6875,177.8671875)"/>
</svg>
